<?xml version="1.0" standalone="no"?>
<!DOCTYPE svg PUBLIC "-//W3C//DTD SVG 20010904//EN"
 "http://www.w3.org/TR/2001/REC-SVG-20010904/DTD/svg10.dtd">
<svg version="1.0" xmlns="http://www.w3.org/2000/svg"
 width="797.000000pt" height="797.000000pt" viewBox="0 0 797.000000 797.000000"
 preserveAspectRatio="xMidYMid meet">
<metadata>
Created by potrace 1.14, written by Peter Selinger 2001-2017
</metadata>
<g transform="translate(0.000000,797.000000) scale(0.100000,-0.100000)"
fill="#000000" stroke="none">
<path d="M3615 7949 c-1795 -167 -3266 -1531 -3559 -3302 -36 -213 -46 -321
-53 -562 -26 -908 254 -1779 806 -2510 205 -272 494 -561 768 -768 420 -317
916 -558 1411 -682 592 -149 1207 -164 1797 -44 1023 209 1931 820 2512 1694
369 553 586 1166 649 1835 20 208 15 672 -10 858 -96 725 -353 1355 -785 1927
-204 270 -486 553 -756 756 -612 462 -1304 729 -2065 798 -133 13 -583 12
-715 0z m1521 -1547 c84 -22 1449 -521 1494 -546 48 -27 60 -68 60 -214 0
-145 -10 -187 -52 -214 -14 -9 -292 -70 -649 -141 -343 -70 -1004 -203 -1469
-297 -786 -159 -849 -171 -900 -162 -30 6 -361 122 -735 260 -866 319 -791
294 -911 300 -115 5 -178 -10 -251 -60 -225 -153 -187 -593 81 -949 107 -142
275 -287 415 -359 66 -33 1363 -508 1408 -516 29 -4 377 62 1373 261 1039 208
1345 266 1379 261 51 -7 103 -37 130 -75 41 -57 124 -237 162 -352 142 -423
110 -823 -88 -1115 -52 -76 -181 -199 -259 -246 -135 -82 -149 -86 -1629 -401
l-1410 -300 -130 0 c-99 0 -151 5 -218 21 -123 30 -1527 548 -1552 573 -18 18
-20 33 -20 185 l0 166 28 24 c15 13 38 24 50 24 12 0 353 -122 757 -271 404
-150 766 -280 804 -290 98 -27 228 -25 303 2 78 29 161 112 194 195 20 51 23
76 23 189 1 106 -4 145 -22 210 -88 306 -320 594 -595 740 -45 24 -248 105
-452 180 -203 75 -400 149 -438 165 -85 36 -242 140 -329 219 -232 212 -437
571 -504 881 -28 132 -26 358 5 475 43 166 137 320 249 410 70 55 188 118 262
139 30 8 726 157 1545 330 820 173 1499 317 1510 320 11 3 83 4 160 2 103 -2
161 -9 221 -24z m1247 -1522 c153 -49 179 -62 160 -81 -5 -5 -349 -77 -764
-159 -553 -110 -773 -150 -827 -150 -61 0 -99 9 -233 52 l-160 52 818 167
c450 92 825 168 834 168 8 1 86 -22 172 -49z m-236 -361 c102 -33 153 -55 153
-65 0 -8 -2 -14 -4 -14 -2 0 -352 -70 -778 -156 -677 -137 -781 -155 -839
-151 -74 6 -373 101 -349 110 30 12 1596 325 1630 326 19 1 104 -22 187 -50z
m-264 -349 c152 -49 182 -64 157 -80 -14 -8 -872 -181 -877 -177 -1 2 -11 45
-22 95 l-18 92 31 5 c17 4 146 30 286 60 140 29 262 53 271 54 8 1 86 -22 172
-49z"/>
</g>
</svg>
