<svg id="Calque_1" data-name="Calque 1" xmlns="http://www.w3.org/2000/svg" viewBox="0 0 659.75 949"><defs><style>.cls-1,.cls-2{fill:#6296ff;}.cls-2{stroke:#6296ff;stroke-miterlimit:10;}.cls-3{fill:none;}</style></defs><path class="cls-1" d="M370.2,364.89l-8.42,9.64a2.7,2.7,0,0,1-2.34.91L346.72,374a2.71,2.71,0,0,0-2.63,4.08l6.57,11a2.69,2.69,0,0,1,.14,2.51l-5.32,11.64a2.7,2.7,0,0,0,3.06,3.76L361,404.09a2.7,2.7,0,0,1,2.44.65l9.42,8.65a2.7,2.7,0,0,0,4.52-1.75l1.15-12.74a2.7,2.7,0,0,1,1.36-2.12l11.15-6.28a2.71,2.71,0,0,0-.27-4.85l-11.77-5a2.71,2.71,0,0,1-1.59-1.95l-2.53-12.55A2.71,2.71,0,0,0,370.2,364.89Z"/><path class="cls-1" d="M63.26,165.23,55.39,167a1.68,1.68,0,0,1-1.53-.4l-6-5.47a1.7,1.7,0,0,0-2.85,1.1l-.73,8a1.69,1.69,0,0,1-.86,1.33l-7,4a1.71,1.71,0,0,0,.16,3.06L44,181.82a1.73,1.73,0,0,1,1,1.23L46.62,191a1.71,1.71,0,0,0,3,.79l5.31-6.08a1.69,1.69,0,0,1,1.48-.57l8,.93a1.7,1.7,0,0,0,1.66-2.57l-4.14-6.93a1.72,1.72,0,0,1-.08-1.59l3.36-7.34A1.7,1.7,0,0,0,63.26,165.23Z"/><path class="cls-1" d="M287.11,99.51l-5.46-1a1.15,1.15,0,0,1-.85-.68l-2.28-5a1.17,1.17,0,0,0-2.1-.08l-2.63,4.89a1.19,1.19,0,0,1-.91.61l-5.51.6a1.17,1.17,0,0,0-.72,2l3.83,4a1.16,1.16,0,0,1,.3,1l-1.13,5.43a1.18,1.18,0,0,0,1.66,1.3l5-2.41a1.17,1.17,0,0,1,1.09,0l4.81,2.75a1.17,1.17,0,0,0,1.74-1.17l-.74-5.5a1.18,1.18,0,0,1,.37-1l4.11-3.73A1.17,1.17,0,0,0,287.11,99.51Z"/><path class="cls-1" d="M20.32,66.92l2,3.32a.82.82,0,0,1,.05.76L20.8,74.54a.82.82,0,0,0,.94,1.13l3.78-.89a.83.83,0,0,1,.74.19l2.88,2.6A.81.81,0,0,0,30.5,77l.32-3.87a.79.79,0,0,1,.41-.64l3.36-1.94a.82.82,0,0,0-.09-1.47l-3.58-1.49a.86.86,0,0,1-.49-.59l-.8-3.8a.82.82,0,0,0-1.42-.36l-2.53,2.94a.81.81,0,0,1-.71.28l-3.86-.41A.82.82,0,0,0,20.32,66.92Z"/><path class="cls-1" d="M310,24.11l1.37,3.63a.8.8,0,0,1-.09.75l-2.21,3.19a.82.82,0,0,0,.71,1.29l3.88-.18a.79.79,0,0,1,.69.32l2.35,3.09a.82.82,0,0,0,1.44-.28l1-3.75a.86.86,0,0,1,.52-.56l3.67-1.28a.82.82,0,0,0,.18-1.46l-3.25-2.13a.85.85,0,0,1-.37-.67l-.08-3.88a.83.83,0,0,0-1.34-.62l-3,2.43a.82.82,0,0,1-.75.15L311,23A.82.82,0,0,0,310,24.11Z"/><path class="cls-1" d="M576.56,491l5.53-6.34a1.79,1.79,0,0,1,1.55-.59l8.36,1a1.78,1.78,0,0,0,1.73-2.68l-4.32-7.22a1.76,1.76,0,0,1-.09-1.65l3.5-7.65a1.79,1.79,0,0,0-2-2.48l-8.2,1.88a1.77,1.77,0,0,1-1.6-.43l-6.19-5.69a1.78,1.78,0,0,0-3,1.15l-.75,8.38a1.75,1.75,0,0,1-.9,1.39l-7.33,4.14a1.77,1.77,0,0,0,.18,3.18l7.74,3.31a1.72,1.72,0,0,1,1,1.28l1.67,8.25A1.78,1.78,0,0,0,576.56,491Z"/><path class="cls-1" d="M581.1,179.61l5.46,1a1.18,1.18,0,0,1,.86.67l2.27,5.06a1.17,1.17,0,0,0,2.1.07l2.63-4.88a1.16,1.16,0,0,1,.91-.61l5.51-.6a1.17,1.17,0,0,0,.72-2l-3.83-4a1.14,1.14,0,0,1-.3-1l1.13-5.43a1.17,1.17,0,0,0-1.66-1.3l-5,2.41a1.18,1.18,0,0,1-1.08,0L586,166.16a1.17,1.17,0,0,0-1.74,1.18l.74,5.5a1.18,1.18,0,0,1-.37,1l-4.11,3.73A1.17,1.17,0,0,0,581.1,179.61Z"/><path class="cls-1" d="M505.35,655.47,504,651.84a.83.83,0,0,1,.1-.76l2.21-3.19a.81.81,0,0,0-.71-1.28l-3.88.18a.83.83,0,0,1-.69-.32l-2.35-3.09a.82.82,0,0,0-1.45.28l-1,3.74a.83.83,0,0,1-.52.56L492,649.24a.82.82,0,0,0-.18,1.46l3.24,2.13a.8.8,0,0,1,.37.67l.09,3.88a.82.82,0,0,0,1.33.62l3-2.43a.81.81,0,0,1,.75-.14l3.72,1.12A.82.82,0,0,0,505.35,655.47Z"/><path class="cls-1" d="M28.62,548.15l1.56,8.56a1.82,1.82,0,0,1-.51,1.63l-6.17,6.14a1.83,1.83,0,0,0,1.05,3.12l8.62,1.16a1.85,1.85,0,0,1,1.4,1l3.92,7.76a1.84,1.84,0,0,0,3.3,0l3.77-7.84a1.87,1.87,0,0,1,1.37-1l8.6-1.34a1.83,1.83,0,0,0,1-3.14l-6.29-6a1.81,1.81,0,0,1-.54-1.62l1.38-8.59A1.84,1.84,0,0,0,48.37,546l-7.65,4.13a1.85,1.85,0,0,1-1.71,0l-7.74-4A1.84,1.84,0,0,0,28.62,548.15Z"/><circle class="cls-1" cx="150.18" cy="530.32" r="44.83"/><path class="cls-1" d="M150.18,485.49a44.82,44.82,0,0,1,41.48,27.82A44.83,44.83,0,0,1,106,537.65a45.5,45.5,0,0,1-.61-7.33A44.83,44.83,0,0,1,150.18,485.49Z"/><path class="cls-1" d="M150.18,481.49a48.9,48.9,0,0,0-47.53,37.68A44.82,44.82,0,0,1,184.89,496,48.67,48.67,0,0,0,150.18,481.49Z"/><path class="cls-1" d="M179.77,683.43a16.43,16.43,0,0,1,15.37-24.06c8.18.4,15,6.06,15.91,13.81l.11,0,12.61,50.73A14.48,14.48,0,1,1,196.42,732Z"/><path class="cls-1" d="M191.2,636.54a31.31,31.31,0,0,0-30.52,24.55L107.09,542.68,194,520.9l19.86,125.42A31.18,31.18,0,0,0,191.2,636.54Z"/><path class="cls-1" d="M177.9,675a16.46,16.46,0,0,1,16.43-15.66l.81,0c8.18.4,15,6.06,15.91,13.81l.11,0,1.33,5.34a75.07,75.07,0,0,0-16.71,24.68,13.48,13.48,0,0,1-4.41.67,23.64,23.64,0,0,1-4.79-.55l-6.81-19.86A16.31,16.31,0,0,1,177.9,675Z"/><path class="cls-1" d="M18,686.62a74.85,74.85,0,0,1,8.16-.22,73,73,0,0,1,16.5-17.11c27.57-20.62,46.21-29.4,56.68-26.64a8.49,8.49,0,0,1,6,5.52c.72,2.2.43,4.44-4.48,3.4a5.27,5.27,0,0,0-4,4A139.48,139.48,0,0,1,112.35,683c17.71,1.43,35.67-2.86,37.54,1.92,4.82,12.33-17.63,34.56-27.7,39.52A77.05,77.05,0,0,1,103.1,778c-2.19,2.56-4.22,5.25-6.16,8s-5.11,5.76-10,5.11c-7.94-1-6-8.57-14.19-15.23a130.18,130.18,0,0,1-25-2.76c-4.86,1.72-12.2,10.69-19.65,9.22s-17.3-37.34-16-51.65a77.44,77.44,0,0,1,3.8-23.24C10,696.1,15.59,687,18,686.62Z"/><path class="cls-1" d="M98.57,286.49c1-.52,2-1,3.05-1.52a20.07,20.07,0,0,1,4.28,2.61c2.83-1.53,6.94-3.06,8.2-3.06a.54.54,0,0,1,.33.07c.58.43,2.29,6,2.29,6,.39,0,.79,0,1.2,0a13,13,0,0,1,3.74.54,1.67,1.67,0,0,1,1.19,1.52,20.21,20.21,0,0,1-.4,5,74.48,74.48,0,0,1,10.73,12.08,2,2,0,0,1,0,2.38,63.4,63.4,0,0,1-6.9,7.66c-2,1.27-4,2.55-5.92,3.86Z"/><path class="cls-1" d="M370,227.35a754.91,754.91,0,0,0-91.54,6.49,660.25,660.25,0,0,0-90.8,18.42,490.55,490.55,0,0,0-81.34,30.32c.24.14.48.27.71.42,3.84-1.87,8.17-3.31,10.32-1.7.66.49,1.29,1,2.75,5.31a17.06,17.06,0,0,1,3.37.63,5.21,5.21,0,0,1,3.7,4.71,22.29,22.29,0,0,1-.14,3.8,87.05,87.05,0,0,1,9.77,11.32,5.51,5.51,0,0,1,.43,5.9,469,469,0,0,1,60.91-30.21,634.5,634.5,0,0,1,84.4-27.82,747.68,747.68,0,0,1,178.45-23A749.36,749.36,0,0,0,370,227.35Z"/><path class="cls-2" d="M77.63,307.15l.41.57,5.53,9.15a7.18,7.18,0,0,0-.71,3.14,2.23,2.23,0,0,0,.68,1.78,18,18,0,0,0,2.93,2,18,18,0,0,0,1,7h0a3.11,3.11,0,0,0,.06.44,2.63,2.63,0,0,0,3.17,1.91l6-1.51,9.25,6.7a2.55,2.55,0,0,0,3.49-.48l6.11-7.75,3.35.12.35,0a2.59,2.59,0,0,0,2.33-2.86c-.11-1.09-.25-2.18-.41-3.27a68,68,0,0,0,12-12.06,2,2,0,0,0,0-2.38,74.48,74.48,0,0,0-10.73-12.08,20.21,20.21,0,0,0,.4-5,1.67,1.67,0,0,0-1.19-1.52,13.46,13.46,0,0,0-4.94-.5s-1.71-5.57-2.29-6-5.37,1.27-8.53,3c-3.15-2.61-8.48-4.63-15.52-6.16a1.87,1.87,0,0,0-2.13,1.11c-1.84,4.44-3,11.36-3.49,17.3a64.19,64.19,0,0,0-6.41,3.64l-.08,0A2.6,2.6,0,0,0,77.63,307.15ZM102,308.9l12.16,3.16a.77.77,0,0,1,.48,1.12c-1.48,2.74-4.32,4.27-8.39,4.7a.72.72,0,0,1-.69-.29C104.32,316,101.51,309.3,102,308.9Zm-13.8,8.74a7.1,7.1,0,0,1,3.62,4.17Q90.3,329,88.42,332.12C88,325.83,87.57,319.26,88.24,317.64ZM78.16,304.4a58.59,58.59,0,0,1,15-4.82,57.24,57.24,0,0,0-3.31,14.2c-3.81-2.16-8.53-4.8-11.87-7.88a.88.88,0,0,1-.2-.29A.9.9,0,0,1,78.16,304.4Z"/><path class="cls-1" d="M104.9,330.55l14.18-.29c2.43.19,2.93-1.36,2.43-3.9,0,0,.87,3.48-3,3.47a81.79,81.79,0,0,1-9.94-.95,18.57,18.57,0,0,0-8.1.9l-9.5,3.34Z"/><path class="cls-3" d="M282.78,640.26a5.58,5.58,0,1,0,5.57,5.58A5.58,5.58,0,0,0,282.78,640.26Z"/><path class="cls-1" d="M128.77,819.82c2.55,2.68,2.36,6.72,2.13,11.41a57.14,57.14,0,0,0,.08,9.59l39-113.25,0-.19.09,0,4.6-13.37a20.94,20.94,0,0,0,4.47,1.85,39.89,39.89,0,0,1-.62-9.87l.46-4.83,3,.89L176.08,685a20.44,20.44,0,0,1,18.25-29.65c.33,0,.67,0,1,0a20.72,20.72,0,0,1,18.61,12.94l.13,0,1,3.9.79,3.18q1-.86,2-1.68A27,27,0,0,0,215.25,655h0c-.28-.52-.57-1-.88-1.53l-.1-.15c-.28-.44-.56-.86-.86-1.28l-.14-.2a27.17,27.17,0,0,0-2.17-2.62l-.2-.21c-.34-.36-.7-.72-1.07-1.06l-.14-.13c-.42-.39-.84-.76-1.29-1.12l-.14-.11c-.38-.31-.78-.61-1.18-.9l-.29-.21c-.45-.31-.9-.61-1.36-.89l0,0c-.47-.29-1-.56-1.46-.83l-.33-.17c-.4-.2-.8-.4-1.21-.58l-.35-.16c-.51-.22-1-.43-1.55-.62l-.17-.06c-.46-.16-.94-.31-1.41-.45l-.45-.13c-.44-.12-.89-.23-1.34-.33l-.31-.07c-.55-.12-1.1-.22-1.66-.3l-.4-.05c-.45-.06-.89-.1-1.34-.14l-.48,0c-.58,0-1.15-.06-1.74-.06a27.27,27.27,0,0,0-27.26,27.26c0,.18,0,.35,0,.53h0A27.11,27.11,0,0,0,168.57,683,20.59,20.59,0,0,0,164,696a20.82,20.82,0,0,0,1,6.2L125.14,817.86A6.85,6.85,0,0,1,128.77,819.82Z"/><path class="cls-1" d="M104.47,917.88a136.59,136.59,0,0,1-15.41,4.82L80,949H93.75Z"/><path class="cls-1" d="M224.92,903.56q-6.53,2.91-12.46,5.34L217.2,949h13.09Z"/><path class="cls-1" d="M203.68,820.62c-.7-1.14-1.39-2.29-2.06-3.44l4.64,39.29a23.84,23.84,0,0,0,4.81-1.13c2-.89,4.58-3.16,7.38-6.49l-1.15-9.74c-1-1.17-2-2.38-3-3.61l-6,7.22,3.83-9.93A146.84,146.84,0,0,1,203.68,820.62Z"/><path class="cls-1" d="M222.12,838.5l1.52,1.62-3.32-11.94-3.45,4.17c1.5,1.87,3.06,3.73,4.69,5.54C221.74,838.09,221.94,838.29,222.12,838.5Z"/><path class="cls-1" d="M659.37,843l-30.91,5.87a7.25,7.25,0,0,0-4.11-4.11,7,7,0,0,0,.38-4.88,3.5,3.5,0,0,0-1.76-2.2l-17.5-9.35c29-23.09,21.23-34.24,21.23-34.24a500.93,500.93,0,0,1-40.25,30.78c-1.55-8.18-4.06-14.63-12.58-10.63-5.49,2.59-10.53,7.55-14.81,13l-16.26-9.46,16-9.62-3.22-3.72h-3l7.15-8.41-3-3.62-18,12.91-14.08,4.4-1.67,8-17.31,14.45,3.81,4.59,12.52-6.91,4.8,4.08,12.71-13.44,17.23,10a126.47,126.47,0,0,0-11.88,21.12c-34.69,7-88.69,0-88.69,0-26.6-12-52.56-22.6-64.11-27.23a47.43,47.43,0,0,0-12.79-3.14l-9.92-1a25.73,25.73,0,0,0,1.17-6.66,65.36,65.36,0,0,1-17.9,3.61l1-.22c2.81-20.77,11.58-34.18,14-52a36.29,36.29,0,0,0,15.39-23.15h-.78l-.5,0h-3.18l-.86,0h-.46l-1-.05-.41,0-1.52-.11-.28,0-1.33-.13-.56-.06-1.15-.14-.62-.08L369,741l-.57-.09c-.6-.1-1.21-.21-1.82-.34,8.73-9.72,5.34-26.2,5.34-26.2A47.49,47.49,0,0,1,361.22,720c-7.42-20.7-22.87-44.92-55-55.09a5.58,5.58,0,0,0-2.81-7.8L307.17,636l-7.43,3.91L282.91,611.5l-28.56,29-30.13-12.53L231,654.08a5.79,5.79,0,0,0-1.16,1.76,5.58,5.58,0,0,0,3.57,7.47l1.15,4.41c-1,.46-2,.95-2.92,1.47-.51.27-1,.57-1.53.86l-1.3.74c-.69.42-1.38.86-2.06,1.31l-.69.43c-.79.53-1.57,1.08-2.35,1.65l-.31.22c-.85.62-1.69,1.27-2.51,1.93l-.07,0a75,75,0,0,0-7.24,6.69h0c-1.61,1.71-3.15,3.49-4.6,5.35-.65.82-1.27,1.66-1.88,2.51l0,0c-.61.86-1.21,1.73-1.78,2.61a67.42,67.42,0,0,0-6.46,12.62,16.46,16.46,0,0,1-7.51,1.64,24.85,24.85,0,0,1-3.32-.25v0l-.49-.08-1.33-.22-1-.2-1.23-.3-.52-.12v0l-1.06-.28a37.73,37.73,0,0,0,.86,10.24,44.93,44.93,0,0,0,1.73,6.11l0,.07c.24.67.51,1.35.8,2a2.44,2.44,0,0,1,.1.24q.43,1,.93,2l.15.31c.34.66.69,1.34,1.08,2l.17.31c.4.68.82,1.37,1.27,2.06l.15.22q.72,1.08,1.53,2.16c-.48.05-1,.08-1.54.09h-.53l-.76,0h-1c-.42,0-.84,0-1.27,0l-.59,0c-.58,0-1.16-.08-1.76-.14h-.16c-.66-.06-1.32-.13-2-.22l-.6-.08c-.48-.06-1-.13-1.45-.21l-.71-.11-1.44-.26-.65-.12c-.68-.14-1.37-.28-2-.44,0,0,1.93,13.52,13.63,25.87.05,1.18.12,2.37.21,3.56l.09,1.14c.07.82.14,1.63.23,2.45,0,.43.09.87.14,1.3.09.8.19,1.59.3,2.39.05.41.1.81.16,1.22.16,1.1.34,2.2.53,3.3.09.52.19,1,.28,1.55l.36,1.85.39,1.87c.11.49.22,1,.34,1.46.15.69.31,1.37.48,2,.07.28.15.56.22.84.69,2.65,1.45,5.27,2.31,7.87l.18.56c.3.89.6,1.78.92,2.66a1.46,1.46,0,0,1,.07.19q2.08,5.78,4.75,11.35a127.88,127.88,0,0,0,6.77,12.42c2,3.3,4.29,6.61,6.72,9.88l4.11-10.66-1.14-25.91,7.4,17.64,16.18-18.79-13.7,28.06,3.13,22-4.4,5.66h0l-.71,1-.12.18c-1.3,1.76-2.75,3.59-4.29,5.3h0c-2.43,2.69-5.06,5-7.58,6.14a33.42,33.42,0,0,1-7.4,1.66l-.23,0-1.48.2-.12,0c-1.13.14-2.33.28-3.58.41l-.25,0-1.74.17-.19,0c-1.32.13-2.7.25-4.12.36l-.26,0-1.91.14-.29,0c-1.46.1-2.95.2-4.46.28l-.34,0-2,.11-.42,0-4.65.2H179l-2,.07-.53,0-2,.06h-.28l-2.36,0h-.35l-1.94,0h-.6l-1.81,0h-5.69l-1.51,0h-.76l-1.48,0-.68,0-2,0h-.09l-2-.07-.62,0-1.34-.07-.7,0-1.23-.07-.65-.05-1.32-.09-.46,0-1.67-.15-.39,0-1.19-.13-.52-.07-1-.13-.5-.07-.93-.15-.41-.07-1.21-.23c-.65-.5-1.27-1-1.85-1.5l-.07-.06c-.56-.49-1.09-1-1.6-1.49l-.1-.1c-.49-.49-.95-1-1.39-1.48l-.12-.14c-.42-.49-.81-1-1.19-1.48l-.12-.17c-.37-.49-.7-1-1-1.47l-.13-.2c-.3-.48-.59-1-.86-1.47a2.12,2.12,0,0,1-.11-.21c-.26-.49-.5-1-.73-1.46a2.29,2.29,0,0,0-.1-.23c-.21-.48-.41-1-.6-1.46,0-.07,0-.15-.08-.22s-.08-.2-.11-.29v0c-4.64-13.12,2-25.88-4.93-26.2h-.79l-.68.08-.3.05c-.25,0-.51.09-.78.16l-.31.07c-.39.1-.79.21-1.22.34-8.32,2.63-4.17,7.83-7.87,14.08L97.24,806.17h0l-.06,0,0,0-.14,0h0l-.15,0h-.06l-.16,0h-.06l-.24,0h-.06l-.22,0h-.76l-.23,0-.1,0-.27.06h0l-.32.12-.08,0-.24.12-.09.06-.24.17-.07.05a3.58,3.58,0,0,0-.29.27l-.06.07-.21.26a1,1,0,0,1-.08.11,3.21,3.21,0,0,0-.19.31l-.06.11a4.12,4.12,0,0,0-.22.47l0,.1a2.76,2.76,0,0,0-.15.46,1.21,1.21,0,0,0-.05.18c0,.15-.08.31-.11.48a1.16,1.16,0,0,0,0,.18c0,.23-.08.48-.1.73a.34.34,0,0,0,0,.1c0,.23,0,.47,0,.73v.27c0,.22,0,.44,0,.68a2.71,2.71,0,0,1,0,.29c0,.33,0,.67.06,1,.78,9.79,9.78,34.44,9.78,34.44l-36.2-50.09h-.83l-.14,0h-.1l-.15,0-.12,0-.16,0-.12,0-.17,0-.12,0-.2.06-.1,0-.29.11h0l-.3.13-.11,0-.19.11-.12.07-.18.12-.12.09-.17.12-.12.11-.16.14-.11.12-.15.17a1.47,1.47,0,0,0-.1.13l-.14.19-.09.14a1.59,1.59,0,0,0-.13.22,1.09,1.09,0,0,1-.08.15c0,.09-.08.18-.11.27a.84.84,0,0,0-.06.14,3.22,3.22,0,0,0-.14.44v0c0,.16-.07.32-.1.49s0,.12,0,.18,0,.24,0,.37a1.69,1.69,0,0,0,0,.23c0,.12,0,.24,0,.36V803c0,.12,0,.25,0,.38l0,.29c0,.13,0,.27.05.41a3.06,3.06,0,0,1,0,.32l.09.44c0,.11,0,.22.07.34s.08.31.12.48.06.23.1.35.11.36.17.54.07.23.11.36l.23.64.12.31c.13.33.26.67.42,1,5.08,11.74,20.74,38.35,20.74,38.35L39.72,810.67s-9,3.72,0,14.09S67.7,851,67.7,851L28.57,831.41s-4.31,5,5.28,13.55,32.28,23.82,32.28,23.82l.47.41a24,24,0,0,1,0,15.22l0,0h0l-.12-.09-.08-.06-.13-.11-.11-.09-.18-.14-.14-.11-.21-.17-.19-.15-.24-.19-.22-.16-.29-.22-.23-.18-.35-.26-.23-.17-.47-.35-.17-.12-.68-.49-.2-.14c-.17-.13-.35-.25-.54-.38l-.28-.2-.49-.34-.33-.22-.49-.33-.35-.23-.5-.32-.38-.25-.51-.32-.39-.24L57.5,878l-.39-.24-.57-.33-.37-.22-.65-.37-.31-.17c-.32-.17-.64-.35-1-.51l-.07,0-.9-.46-.33-.15-.65-.31L51.9,875l-.6-.26-.41-.17-.57-.23-.42-.15-.56-.2-.41-.14-.56-.17-.4-.11-.56-.14-.38-.09-.58-.11-.34-.06c-.24,0-.47-.06-.7-.08l-.19,0-.86,0h-.13l-.66,0-.24,0a4.51,4.51,0,0,0-.53.09l-.23,0c-.24.06-.47.13-.7.21C35,876,53.48,886.85,57.39,892.33c-5.46,4.88-17.43.66-20.61,14.6a3.31,3.31,0,0,0-.07.55v.17c0,.14,0,.28,0,.43l0,.18a3.06,3.06,0,0,0,.12.57.09.09,0,0,0,0,0,4.93,4.93,0,0,0,.24.67l.06.14a5,5,0,0,0,.28.57l.08.15a11.82,11.82,0,0,0,1.72,2.27l0,.05c6.1,6.39,23,13.06,51.31,5.43h0a137.57,137.57,0,0,0,14.28-4.74l1.1.19,1,.16.07,0,2.48.39.27,0,1.14.17.32.05,1.5.21h0l1.64.23.33.05,1.38.18.47.07,1.41.18.43,0,1.88.24.32,0,1.59.19.66.08,1.4.16.66.07,2,.22H127l2,.2.69.07,1.52.15.76.07,1.66.14.57.05,2.2.18.65.05,1.62.12.83,0,1.59.11.73,0,2.26.13.49,0,1.83.09.79,0,1.58.06.8,0,2,0H152q1.13,0,2.25,0h3.57l1.14,0,1.41,0,1.1,0,1.4-.06,1.07-.05,1.37-.08,1-.06,1.37-.12,1-.08c.47,0,.92-.1,1.38-.15l.89-.09,1.46-.2.71-.1c.71-.11,1.41-.22,2.09-.35s1.38-.26,2.08-.41l1.24-.27.88-.19,1.05-.26,1.13-.27.73-.19,1.48-.39,1.3-.36,1-.26,1.24-.37,1.05-.31,1.17-.36,1.13-.35,1.49-.49.85-.27,1.25-.42,1.11-.38,1-.34,1.4-.49,1.13-.41,1.25-.44,1.74-.65.64-.24,1.68-.64.71-.27,1.75-.69.64-.25,1.54-.61.85-.34,1.93-.79c4.41-1.81,8.75-3.69,12.89-5.55,5.86-2.62,11.33-5.2,16.06-7.48l.36-.18,1.82-.88.44-.22,2-1c4.55,9.14,20.24,39.44,37.6,59.32H506.47c-1.32-3.85-2.79-8-4.47-12.38-14.35-37.85-54.95-51.53-59.12-52.85,114.26,35.77,169.34,18.28,169.34,18.28l44.41,8.61c-3.84-4.58-10.14-7.51-12.55-10.82-5.43-7.43,5.66-9,4.35-17.34-.81-5.21-15.52-6.13-15.52-6.13s6.21-3.93.38-14.25C665,850.4,659.37,843,659.37,843Zm-124-27.88L528.12,823l-1.13-1,2.27-1.06,2.68-5.94,11.6-5.22ZM282.78,651.41a5.58,5.58,0,1,1,5.57-5.57A5.57,5.57,0,0,1,282.78,651.41Z"/></svg>