<svg id="Calque_1" data-name="Calque 1" xmlns="http://www.w3.org/2000/svg" viewBox="0 0 388 949"><defs><style>.cls-1{fill:#6296ff;}</style></defs><path class="cls-1" d="M41.65,391.5l8.42,9.65a2.66,2.66,0,0,0,2.34.9l12.72-1.46a2.7,2.7,0,0,1,2.63,4.07l-6.57,11a2.71,2.71,0,0,0-.14,2.52l5.32,11.64a2.7,2.7,0,0,1-3.06,3.76L50.84,430.7a2.75,2.75,0,0,0-2.44.65L39,440a2.7,2.7,0,0,1-4.52-1.75l-1.15-12.75A2.64,2.64,0,0,0,32,423.4L20.8,417.11a2.7,2.7,0,0,1,.27-4.84l11.77-5a2.71,2.71,0,0,0,1.59-1.95L37,392.75A2.71,2.71,0,0,1,41.65,391.5Z"/><path class="cls-1" d="M230.59,258l7.87,1.79a1.71,1.71,0,0,0,1.54-.41l5.94-5.46a1.7,1.7,0,0,1,2.85,1.1l.73,8a1.69,1.69,0,0,0,.86,1.33l7,4a1.71,1.71,0,0,1-.17,3.06l-7.42,3.17a1.71,1.71,0,0,0-1,1.24l-1.59,7.91a1.71,1.71,0,0,1-3,.79L239,278.4a1.69,1.69,0,0,0-1.48-.57l-8,.93a1.71,1.71,0,0,1-1.66-2.57l4.14-6.93a1.72,1.72,0,0,0,.09-1.59l-3.37-7.34A1.7,1.7,0,0,1,230.59,258Z"/><path class="cls-1" d="M192.59,86.1l5.46-1a1.18,1.18,0,0,0,.86-.67l2.27-5.06a1.18,1.18,0,0,1,2.11-.08l2.62,4.89a1.22,1.22,0,0,0,.91.61l5.51.6a1.17,1.17,0,0,1,.72,2l-3.83,4a1.16,1.16,0,0,0-.3,1.05l1.13,5.43a1.17,1.17,0,0,1-1.65,1.3l-5-2.41a1.17,1.17,0,0,0-1.09,0l-4.82,2.75a1.17,1.17,0,0,1-1.74-1.17l.74-5.5a1.13,1.13,0,0,0-.37-1L192,88.12A1.17,1.17,0,0,1,192.59,86.1Z"/><path class="cls-1" d="M377.66,36.59l-2,3.31a.84.84,0,0,0-.05.77l1.58,3.54a.81.81,0,0,1-.93,1.13l-3.78-.89a.78.78,0,0,0-.74.19l-2.88,2.6a.82.82,0,0,1-1.37-.54l-.31-3.87a.84.84,0,0,0-.41-.65l-3.37-1.93a.82.82,0,0,1,.1-1.47l3.58-1.49a.86.86,0,0,0,.49-.59l.8-3.8a.82.82,0,0,1,1.42-.36l2.53,2.94a.82.82,0,0,0,.71.28l3.86-.41A.82.82,0,0,1,377.66,36.59Z"/><path class="cls-1" d="M80.54,50.72l-1.38,3.63a.83.83,0,0,0,.1.76l2.21,3.19a.81.81,0,0,1-.71,1.28l-3.88-.18a.83.83,0,0,0-.69.32l-2.35,3.09a.82.82,0,0,1-1.45-.28l-1-3.74a.83.83,0,0,0-.52-.56L67.19,57A.82.82,0,0,1,67,55.49l3.24-2.13a.8.8,0,0,0,.37-.67l.09-3.88A.82.82,0,0,1,72,48.19l3,2.43a.81.81,0,0,0,.75.14l3.72-1.12A.82.82,0,0,1,80.54,50.72Z"/><path class="cls-1" d="M278.76,534.23l-2,3.31a.82.82,0,0,0-.05.76l1.59,3.55a.82.82,0,0,1-.94,1.13l-3.78-.9a.83.83,0,0,0-.74.19L270,544.88a.82.82,0,0,1-1.37-.55l-.32-3.86a.82.82,0,0,0-.41-.65l-3.36-1.93a.82.82,0,0,1,.09-1.47l3.58-1.5a.82.82,0,0,0,.49-.58l.8-3.8a.82.82,0,0,1,1.42-.37l2.53,3a.83.83,0,0,0,.71.28L278,533A.82.82,0,0,1,278.76,534.23Z"/><path class="cls-1" d="M97,905.74l-1.38,3.63a.82.82,0,0,0,.1.76l2.21,3.19a.83.83,0,0,1-.72,1.29l-3.87-.19a.81.81,0,0,0-.69.33l-2.36,3.09a.82.82,0,0,1-1.44-.29l-1-3.74a.83.83,0,0,0-.52-.56L83.6,912a.82.82,0,0,1-.18-1.46l3.25-2.13a.83.83,0,0,0,.37-.67l.09-3.88a.82.82,0,0,1,1.33-.62l3,2.43a.84.84,0,0,0,.75.15L96,904.67A.82.82,0,0,1,97,905.74Z"/><path class="cls-1" d="M350.78,545.7l-1.55,8.56a1.83,1.83,0,0,0,.51,1.63L355.9,562a1.84,1.84,0,0,1-1,3.13l-8.62,1.16a1.82,1.82,0,0,0-1.39,1l-3.93,7.76a1.84,1.84,0,0,1-3.3,0l-3.76-7.83a1.84,1.84,0,0,0-1.38-1l-8.59-1.34a1.84,1.84,0,0,1-1-3.15l6.29-6a1.86,1.86,0,0,0,.55-1.62l-1.38-8.59a1.83,1.83,0,0,1,2.68-1.91l7.66,4.13a1.85,1.85,0,0,0,1.71,0l7.74-4A1.83,1.83,0,0,1,350.78,545.7Z"/><path class="cls-1" d="M256.58,902c.9-4-4.15-12.92-3.33-28.13-4,9.35-12.72,21.12-22.61,27.74a59.86,59.86,0,0,0,6.49,1.83c10,2.22,18.71,1.59,19.42-1.42h0Z"/><path class="cls-1" d="M172.19,906.25c3.76,7.5,7.07,20,2.66,38.06h0c3.62-18.25,11.93-28.2,18.51-33.41a51.94,51.94,0,0,1-10.9-1.32A53.16,53.16,0,0,1,172.19,906.25Z"/><path class="cls-1" d="M165.28,828.71l-.34,0c2.42.49,4.92.88,7.5,1.15a11.3,11.3,0,1,0-16.69-3.69l1.48.5a7.37,7.37,0,0,1,0-1.33c.29-3,2.41-5,4.74-4.52s4,3.28,3.7,6.26A6.69,6.69,0,0,1,165.28,828.71Z"/><path class="cls-1" d="M58.56,802.51l-.14.64a3.63,3.63,0,0,0,2.12,4.13,22.75,22.75,0,0,0,7.35,1.65,3.63,3.63,0,0,0,3.65-2.85l.15-.67c2.3.39,4.36.58,5.22.22a3.34,3.34,0,0,0,1.29-1.1,4.22,4.22,0,0,1-.15-3.18,4.73,4.73,0,0,1,1.33-2.2c-.54-3.19-3.25-6.75-10.4-8.73l0,0-.86-.17-.85-.21v0c-14.41-2.4-15.82,8-13.61,10.45C54.3,801.18,56.29,801.88,58.56,802.51Zm3-4.86a4.11,4.11,0,1,1,3,4.78A4,4,0,0,1,61.52,797.65Z"/><path class="cls-1" d="M82.59,821.29l.73-3.32c.42-1.87-10.34-5.85-24-8.88s-25.12-4-25.53-2.09L33,810.31c-.41,1.87,10.35,5.85,24,8.88S82.17,823.16,82.59,821.29Z"/><path class="cls-1" d="M305.08,771.3c7.55,1.68,13.52,3.72,13.33,4.57l.62-2.81c.14-.63-3.1-1.92-7.86-3.22l.52-2.35.51.11a.47.47,0,0,0,.55-.58l-1-3.75a1.26,1.26,0,0,0-.94-.91l-5.51-1.22a1.26,1.26,0,0,0-1.24.42l-2.49,3a.47.47,0,0,0,.26.76l.5.12-.5,2.28c-5.71-1.07-10-1.4-10.14-.7l-.63,2.82C291.25,769,297.53,769.63,305.08,771.3Z"/><path class="cls-1" d="M356.36,833.44a7.49,7.49,0,0,1,0-1.34c.29-3,2.41-5,4.74-4.52s4,3.29,3.7,6.26a6.35,6.35,0,0,1-.38,1.68l7.16,1.11a11.3,11.3,0,1,0-16.69-3.7C355.37,833.11,355.86,833.27,356.36,833.44Z"/><path class="cls-1" d="M220.36,816.52h0A13.36,13.36,0,1,0,236.08,820l.34,0c9.61-6,46.1.07,64.36,3.64l10.5,2.33,0-.14h0l1.23-6.88L229,800.47l-63.37-14.05.2.06-14.89-3.3-1.26,7,10.26,2.27C178,796.94,214.16,806.93,220.36,816.52Z"/><path class="cls-1" d="M377.66,839.63c-.12.54-7.17-.56-15.74-2.45s-15.42-3.88-15.29-4.43l-5.36,24.18c-7.71,1.66-29.92-3.15-36.14-4.57,11.82,3.5,19.86,7.5,19.32,10-.72,3.21-15.63,2.64-33.3-1.27s-31.44-9.7-30.72-12.92l-2.36,10.65c-.71,3.21,13,9,30.72,12.91s32.59,4.48,33.3,1.27l.87-3.93c10.76,2.42,46,9.89,47.14,4.69l1.87-8.42h0Z"/><path class="cls-1" d="M271.56,789.6c12.33,2.19,20.59,3.1,20.87,2.11l.51-1.75h0l.11-.41.19-.64h0l.78-2.77c.17-.59-1.24-1.51-3.9-2.66-4.26-2.12-14.07-5.29-26.66-8.6-.57-1.35-1.11-2.74-1.62-4.18,10.06,1.89,17.05,2.75,17.27,2l.34-1.19h0l.08-.28.13-.44h0l.54-1.89c.11-.4-.85-1-2.66-1.81-2.94-1.47-9.76-3.66-18.48-5.94a117.55,117.55,0,0,1-2.38-35.13c8.82,1.85,15.61,2.84,15.78,2.27l.21-.73h0l.05-.17.07-.26h0l.32-1.15c.07-.24-.51-.63-1.62-1.1a73.61,73.61,0,0,0-11.25-3.62,11.3,11.3,0,1,0-20.1-4.65,73.15,73.15,0,0,0-11.76-1.48c-1.09,0-1.72.06-1.76.29l-.17,1.07h0l0,.25,0,.16h0l-.1.68c-.09.57,6.65,2.52,15.37,4.46a118.39,118.39,0,0,1-17,31.21c-8.24-1.47-14.85-2.27-17.88-2.18-1.79,0-2.83.11-2.88.49l-.28,1.76h0l-.06.41-.05.26h0l-.17,1.12c-.11.71,6.16,2.7,15.39,5q-1.78,1.86-3.6,3.54c-13.3-2.46-24.07-3.82-28.83-3.67-2.63-.07-4.15.16-4.24.71l-.4,2.58h0l-.09.59-.06.39h0l-.25,1.64c-.16,1,8.57,3.81,21.54,7.09a75.11,75.11,0,0,1-40,10.73l139.6,30.94A75.17,75.17,0,0,1,271.56,789.6Zm.31-62.57c-1.25.17-7.15-1-14.66-3a10.8,10.8,0,0,0,1.66-1.28A96.85,96.85,0,0,1,271,726.49,3.19,3.19,0,0,1,271.87,727Zm-43.74-10.4a93.39,93.39,0,0,1,12.49,1.75,11.24,11.24,0,0,0,.77,1.65c-7.39-1.29-13.15-2.62-14.16-3.27A3.25,3.25,0,0,1,228.13,716.63Zm-23.27,37.1a5.08,5.08,0,0,1,1.47-.2,128,128,0,0,1,16.37,2.1l-.1.12c5.8,1,23.76,4.27,38,8.83a134.44,134.44,0,0,1,16.22,5.14,5,5,0,0,1,1.38.88c-1.67.24-8.37-1-17.44-3.23l-.21-.7c-15.33-5-35.48-8.49-39.44-9.15l-.21.25C212.34,756.11,206.16,754.57,204.86,753.73ZM267,782.31c-22.59-7.81-54.85-13.18-57.86-13.67-.56.42-1.12.84-1.68,1.24-12.75-2.47-22-4.76-23.95-6a7.42,7.42,0,0,1,2.16-.3c5.09.13,14.37,1.35,25.63,3.38l0,0c7.78,1.33,36.14,6.42,56.58,13.52h0A183,183,0,0,1,289,787.31a8.11,8.11,0,0,1,2,1.29c-2.27.33-10.91-1.24-22.77-4.05C267.86,783.82,267.43,783.07,267,782.31Z"/><path class="cls-1" d="M248,702a12.82,12.82,0,0,1,11.47,2.54,25.23,25.23,0,0,1,10.48-12.09l-12.58-6-14-.16A25.09,25.09,0,0,1,248,702Z"/><path class="cls-1" d="M269.36,690c-2.32-5-5.72-22.24,4.72-78.8-13.83,54.49-24.16,69.2-28.64,73.18l12.34.13Z"/><path class="cls-1" d="M181.05,873.31c-5.67,14.27-14.07,20.23-15,24.29h0c-.67,3,6.94,7.29,17,9.52a47.58,47.58,0,0,0,13.43,1.23A206.4,206.4,0,0,1,201,949h6.47a208.22,208.22,0,0,1,20.63-33.76c-3.5,1-9.66.77-16.45-.73s-12.26-3.85-15.07-6.17a15.66,15.66,0,0,0,3.42-.62A48.2,48.2,0,0,0,212.2,912c7.53,1.67,14.3,1.73,17.51.38,1.64,7.19,2,16.55-.82,28.24h0c3.63-18.25,11.94-28.2,18.52-33.4a53.3,53.3,0,0,1-10.9-1.32,58.9,58.9,0,0,1-5.75-1.58c-.17-.75-.37-1.58-.56-2.46-5.76,3.76-11.88,5.75-17.65,4.47-4.17-.92-7.78-3.48-10.84-7-1.31-5.47-3.47-13.63-2.27-25,10.87-.2,18-2.2,18.84-6l2.1-9.5c14.88,1.92,25.1,1.83,26-.66h0v0s0-.06,0-.1,0-.07,0-.11l1.93-8.7c-.92,4.13-26.09,2.06-56.24-4.61s-53.83-15.44-52.92-19.57l-2,8.94h.05c-.38,4.19,23.11,12.83,52.92,19.43,10.94,2.42,21.21,4.23,29.91,5.36-4.31,6.4-30.43,6.37-60.76-.35-21-4.66-38.84-11.37-48.21-17.59l-3.49-.75c-22.41-5-40-11.47-39.34-14.54L65.88,836.7c-.68,3.07,16.93,9.58,39.34,14.55,1.48.32,2.94.64,4.38.93,9.57,6.07,27,12.54,47.4,17.06A232.2,232.2,0,0,0,181.05,873.31Z"/></svg>