<svg width="76" height="76" viewBox="0 0 76 76" fill="none" xmlns="http://www.w3.org/2000/svg">
<path d="M37.4912 36.9251C39.4485 36.9216 41.344 36.2397 42.855 34.9956C44.366 33.7515 45.399 32.0221 45.7782 30.1019C46.1573 28.1817 45.8592 26.1894 44.9344 24.4644C44.0097 22.7393 42.5156 21.3882 40.7066 20.6409C38.8976 19.8937 36.8855 19.7967 35.0129 20.3664C33.1404 20.936 31.5232 22.1371 30.4368 23.7652C29.3503 25.3933 28.8618 27.3476 29.0544 29.2953C29.247 31.2431 30.1088 33.0639 31.4931 34.4476C32.2708 35.2482 33.2043 35.8809 34.2358 36.307C35.2674 36.7331 36.3753 36.9435 37.4912 36.9251Z" fill="#6A717B"/>
<path d="M52.317 47.0437C52.2037 45.5321 51.9283 44.037 51.4955 42.5842C51.2597 41.8587 50.9495 41.1596 50.5698 40.4979C50.1964 39.8319 49.7311 39.2218 49.1876 38.6855C48.6106 38.129 47.9337 37.6866 47.1925 37.3815C46.3788 37.0798 45.5178 36.9252 44.6499 36.9251C44.1416 36.981 43.6609 37.185 43.2677 37.5119C42.8635 37.7857 42.381 38.0987 41.8334 38.4377C41.2544 38.7906 40.6319 39.0668 39.9818 39.2592C38.5077 39.742 36.9181 39.742 35.444 39.2592C34.7908 39.0639 34.1644 38.788 33.5794 38.4377L32.1451 37.5771C31.7554 37.2526 31.2797 37.0487 30.7759 36.9903C29.9066 36.9882 29.0445 37.1474 28.2333 37.4598C27.4852 37.7517 26.8058 38.1957 26.2382 38.7637C25.6881 39.2892 25.222 39.8961 24.856 40.5631C24.4786 41.226 24.1685 41.9249 23.9303 42.6494C23.6998 43.3634 23.5126 44.0906 23.3696 44.827C23.2283 45.5593 23.1325 46.2996 23.0827 47.0437C23.0827 47.7218 23.0045 48.3477 23.0045 49.13C22.9728 49.9466 23.1105 50.7609 23.409 51.5217C23.7074 52.2825 24.1602 52.9732 24.7387 53.5504C25.9654 54.6643 27.5817 55.2499 29.2373 55.1803H46.1885C47.8352 55.243 49.4408 54.6579 50.661 53.5504C51.2406 52.9712 51.6938 52.2783 51.9923 51.5153C52.2908 50.7522 52.428 49.9357 52.3953 49.117C52.3953 48.3781 52.3692 47.687 52.317 47.0437Z" fill="#6A717B"/>
</svg>
