<svg id="Calque_1" data-name="Calque 1" xmlns="http://www.w3.org/2000/svg" xmlns:xlink="http://www.w3.org/1999/xlink" viewBox="0 0 997.62 1171.04">
  <defs>
    <style>
      .cls-1 {
        fill: #fff;
      }

      .cls-2 {
        fill: url(#Dégradé_sans_nom_8);
      }

      .cls-3 {
        fill: url(#Dégradé_sans_nom_5);
      }

      .cls-4 {
        fill: url(#Dégradé_sans_nom_5-2);
      }

      .cls-5 {
        fill: url(#Dégradé_sans_nom_5-3);
      }

      .cls-6 {
        fill: url(#Dégradé_sans_nom_8-2);
      }

      .cls-7 {
        fill: url(#Dégradé_sans_nom_8-3);
      }

      .cls-8 {
        fill: url(#Dégradé_sans_nom_8-4);
      }

      .cls-9 {
        fill: url(#Dégradé_sans_nom_8-5);
      }

      .cls-10 {
        fill: url(#Dégradé_sans_nom_8-6);
      }

      .cls-11 {
        fill: url(#Dégradé_sans_nom_8-7);
      }
    </style>
    <linearGradient id="Dégradé_sans_nom_8" data-name="Dégradé sans nom 8" x1="133.24" y1="1111.42" x2="879.11" y2="102.29" gradientUnits="userSpaceOnUse">
      <stop offset="0" stop-color="#36ff9b"/>
      <stop offset="1" stop-color="#41e5e5"/>
    </linearGradient>
    <linearGradient id="Dégradé_sans_nom_5" data-name="Dégradé sans nom 5" x1="200.7" y1="950.09" x2="667.03" y2="124.56" gradientUnits="userSpaceOnUse">
      <stop offset="0" stop-color="#00ab67"/>
      <stop offset="1" stop-color="#00efef"/>
    </linearGradient>
    <linearGradient id="Dégradé_sans_nom_5-2" x1="90.01" y1="887.56" x2="556.33" y2="62.03" xlink:href="#Dégradé_sans_nom_5"/>
    <linearGradient id="Dégradé_sans_nom_5-3" x1="601.44" y1="1176.46" x2="1067.77" y2="350.93" xlink:href="#Dégradé_sans_nom_5"/>
    <linearGradient id="Dégradé_sans_nom_8-2" x1="260.02" y1="1190.4" x2="773.02" y2="218.4" xlink:href="#Dégradé_sans_nom_8"/>
    <linearGradient id="Dégradé_sans_nom_8-3" x1="-123.63" y1="987.92" x2="389.37" y2="15.92" xlink:href="#Dégradé_sans_nom_8"/>
    <linearGradient id="Dégradé_sans_nom_8-4" x1="-27.21" y1="1038.81" x2="485.79" y2="66.81" xlink:href="#Dégradé_sans_nom_8"/>
    <linearGradient id="Dégradé_sans_nom_8-5" x1="251.36" y1="1185.83" x2="764.36" y2="213.83" xlink:href="#Dégradé_sans_nom_8"/>
    <linearGradient id="Dégradé_sans_nom_8-6" x1="195.9" y1="1156.56" x2="708.9" y2="184.56" xlink:href="#Dégradé_sans_nom_8"/>
    <linearGradient id="Dégradé_sans_nom_8-7" x1="28.51" y1="1068.22" x2="541.51" y2="96.22" xlink:href="#Dégradé_sans_nom_8"/>
  </defs>
  <g>
    <path class="cls-1" d="M995.7,820.52C976,738.56,948.49,635.23,908.36,549c15.41-24.38,27-47.54,36-71.74a64.48,64.48,0,0,0-19-71.9,273.49,273.49,0,0,0-65.21-40.53c9.19-93.6,2.68-105-1.75-112.75-6.59-11.54-17.62-30.84-138.15-30.84-13,0-25.75.31-37.83.92C643.52,157.73,572.42,89,465.91,12.71A68,68,0,0,0,379,19.17c-75.88,73.45-147.66,195.17-182.3,258.39A1198.9,1198.9,0,0,0,77,291.33a81.62,81.62,0,0,0-66.14,97.1l1.71,8,.8,3.66,24.14,175.7C25.67,589,17.37,604.62,9.8,618.9l-1,1.93A73.43,73.43,0,0,0,6,684.76c7.2,16.66,16.6,30.93,26.71,45.48-17.16,38.34-22.41,70.2-28.47,114.69A81.53,81.53,0,0,0,69.13,948.68l2.38.4,0,.27,99.7,22.86,94.76,159.5a80.38,80.38,0,0,0,107.31,29.67L514.58,1085l46.06,18.77c14.35,7.32,27.69,10.89,40.72,10.89,25.37,0,58.73-13.24,74.07-75.88h0c.81-3,1.29-5.18,1.55-6.48,1.89-6.35,3.81-12.95,5.83-20.13,102.12-28.9,196-67.34,279.27-114.39A70.26,70.26,0,0,0,995.7,820.52ZM903.82,431.16a29.79,29.79,0,0,1,6.27,7.17,29.79,29.79,0,0,0-6.27-7.17,237.31,237.31,0,0,0-50.7-32.6A237.31,237.31,0,0,1,903.82,431.16Zm-.07,56.28a394.37,394.37,0,0,1-34,59A394.37,394.37,0,0,0,903.75,487.44ZM830.47,311.15c.37-6.8.62-13.3.71-19.1C831.09,297.85,830.84,304.35,830.47,311.15Zm-1.28-42.43a11,11,0,0,1,1,3.23,11,11,0,0,0-1-3.23,6.5,6.5,0,0,0-2-1.9A6.5,6.5,0,0,1,829.19,268.72ZM823.51,265a22.5,22.5,0,0,1,2.81,1.35A22.5,22.5,0,0,0,823.51,265Zm-94.46-10.08c-3.27,0-6.57,0-9.86,0l1,0C723.17,254.81,726.12,254.84,729.05,254.87Zm93.35,9.63c-1.51-.55-3.2-1.09-5.13-1.61C819.2,263.41,820.89,264,822.4,264.5Zm-6.23-1.87q-2.52-.64-5.46-1.23Q813.65,262,816.17,262.63ZM808.5,261c-1.94-.36-4-.72-6.13-1.05Q805.6,260.43,808.5,261Zm-7.9-1.33q-4.17-.61-8.78-1.16Q796.43,259,800.6,259.64Zm-11.08-1.41q-3.67-.42-7.58-.78Q785.84,257.81,789.52,258.23Zm-10.62-1.05c-2.92-.26-5.91-.49-9-.71C773,256.69,776,256.92,778.9,257.18Zm-10.66-.83c-3.58-.24-7.27-.45-11-.63C761,255.9,764.66,256.11,768.24,256.35ZM754,255.57q-4.31-.19-8.72-.33C748.21,255.33,751.11,255.44,754,255.57Zm-12.18-.45q-5.89-.17-11.9-.24Q735.93,255,741.81,255.12Zm-51.17.29,1.74-.06Zm-60.38-49.69c-20.29-26.2-46.07-53.15-76.88-80.79C584.19,152.57,610,179.51,630.26,205.72ZM503.46,83q17.87,14.16,34.1,28.08Q521.33,97.13,503.46,83t-37.3-28.52Q485.6,68.82,503.46,83ZM427.21,33.74c-.67,0-1.34,0-2,0,.39,0,.77-.11,1.16-.11S426.93,33.73,427.21,33.74Zm10.23,1.83c-.39-.13-.77-.31-1.17-.43C436.67,35.26,437,35.44,437.44,35.57Zm-29.95,3.71c.57-.37,1.19-.64,1.78-1C408.68,38.64,408.06,38.91,407.49,39.28Zm5.59-3c.75-.31,1.52-.53,2.29-.79C414.6,35.8,413.83,36,413.08,36.33ZM419,34.47c.84-.18,1.68-.28,2.52-.4C420.71,34.19,419.87,34.29,419,34.47ZM79,916.59l3.61.25h0L79,916.59ZM82.7,324.46c21.34-3.65,43.41-6.63,66-9-22.55,2.39-44.62,5.37-66,9a48,48,0,0,0-9.59,2.68A48,48,0,0,1,82.7,324.46Zm-18.16,7.12a48.1,48.1,0,0,0-13.42,13.17A48.1,48.1,0,0,1,64.54,331.58ZM33.7,653.85a39.47,39.47,0,0,0,3.17,17.57c6.2,14.32,14.57,26.89,24.41,41-9.84-14.09-18.21-26.66-24.41-41A39.47,39.47,0,0,1,33.7,653.85Zm1,219.54a48.18,48.18,0,0,0,2.2,10A48.32,48.32,0,0,1,34.74,873.39Zm6.43,19.26A48,48,0,0,0,55,907.55,48,48,0,0,1,41.17,892.65Zm260.6,230.68c.74.76,1.53,1.43,2.32,2.13C303.3,1124.76,302.51,1124.09,301.77,1123.33Zm8.93,7c.81.5,1.6,1.05,2.44,1.5C312.29,1131.41,311.52,1130.86,310.7,1130.36Zm12.29,5.45c.49.13,1,.15,1.5.27C324,1136,323.48,1135.94,323,1135.81Zm10.61,1.44c1.1,0,2.21,0,3.31,0-.61,0-1.22.23-1.84.23S334.1,1137.26,333.6,1137.25Zm13.71-1.57c-1,.28-2.07.43-3.12.64C345.23,1136.11,346.28,1136,347.31,1135.68Zm165.26-87.77,62.17,25.33a78.17,78.17,0,0,0,12.88,5.44,78.17,78.17,0,0,1-12.88-5.44ZM588.45,1079a46.24,46.24,0,0,0,10.85,1.94A46.24,46.24,0,0,1,588.45,1079Zm12,2a31.89,31.89,0,0,0,9.35-1.14,31.3,31.3,0,0,1-8.45,1.21C601.07,1081.07,600.75,1081,600.46,1081Zm19.82-6.57a38.06,38.06,0,0,0,5.91-5.75A38.06,38.06,0,0,1,620.28,1074.43Zm-8.46,4.66a29.83,29.83,0,0,0,6.25-3.1A30.33,30.33,0,0,1,611.82,1079.09Zm27.34-35.69c1.35-4.06,2.6-8.34,3.72-13h0C641.77,1035.07,640.51,1039.34,639.16,1043.4Zm-12,24.29a60.49,60.49,0,0,0,5.74-9.12A60.49,60.49,0,0,1,627.12,1067.69Zm7.13-12c1.29-2.71,2.51-5.6,3.64-8.7C636.76,1050.06,635.54,1053,634.25,1055.66ZM842.8,919.76q35.48-15.51,69.34-33.1Q878.29,904.26,842.8,919.76Zm121.14-85.44a35.63,35.63,0,0,0-.92-5.93c-15.72-65.3-32.75-128.27-53-185.6-8.09-22.93-16.69-45-25.92-65.88,9.23,20.92,17.83,43,25.92,65.88,20.22,57.33,37.25,120.3,53,185.6A35.63,35.63,0,0,1,963.94,834.32Z"/>
    <g>
      <path class="cls-2" d="M402.4,43.32c-143.92,139.3-320.23,519.09-243.79,460L43.39,371.5,73.23,588.67C57.9,599.3,48.18,618.28,38.46,636.59a40.26,40.26,0,0,0-1.59,34.83c8.27,19.1,20.4,35.07,34.71,55.71C49.36,769.92,44.27,800,37.15,852.51l81.67-34.23,176,296.26a46.78,46.78,0,0,0,62.45,17.27l249-134.49c124.08-29,237.69-71.34,339.35-128.77A36.37,36.37,0,0,0,963,828.39c-25.15-104.48-53.67-203-93.21-282,16.79-24.5,31.84-50.73,43-80.85a30.79,30.79,0,0,0-9-34.39c-28.08-23.39-54.2-35.44-79.79-44.45,0,0,11.79-106.39,5.16-118s-99.76-17.46-165.78-11.61C629.31,190,554.1,117.21,446.34,40A34.37,34.37,0,0,0,402.4,43.32Z"/>
      <g>
        <path class="cls-3" d="M37.35,851.62C61.63,785.59,86.23,724,111.44,671a48.06,48.06,0,0,0,1.6-37.65C86.12,562,63.57,476.31,43.79,381.56a48,48,0,0,1,38.91-57.1c103.82-17.78,224.86-20.31,333.22-13.85a47.8,47.8,0,0,0,12.46-.89C537.47,287.42,643.62,273,746.2,268.08a70.6,70.6,0,0,1,73.33,79.79c-11.34,85-29.22,167-54.39,245.53-.4,1.27-.86,2.52-1.36,3.75L705.55,738.77a48.52,48.52,0,0,0-3.17,11.88c-13.64,102-34.41,199.77-63.72,292.51a48,48,0,0,1-66.26,29l-237-111.76a48.12,48.12,0,0,0-12.66-3.95L74.6,915.52A48,48,0,0,1,37.35,851.62Z"/>
        <path class="cls-4" d="M398.16,330.06c-88.66-5.34-124.64-21.79-124.26-61.42,3-32.87,100.8-156.34,132.62-211.7a25.19,25.19,0,0,1,41.05-3.77c41.09,48.62,170.87,177.62,169,203.9-30.26,44.51-65,49.85-173.65,73Z"/>
        <path class="cls-5" d="M764.54,595.3c40.72-9.8,55.85-21.37,78.1-36.5C889,624.31,950.9,801.46,953.52,845.63c-39.26,21.76-200.31,94.17-289.78,78.08-28-8.42,38.23-118.83,23.14-177.11Z"/>
      </g>
      <g>
        <path class="cls-6" d="M439.62,761.41c-9.82-36.79-8.59-169.87,3.3-172.74l182.19,142a14.24,14.24,0,0,1,0,22.4c-45,35.63-104.19,40.65-176,18.27A14.27,14.27,0,0,1,439.62,761.41Z"/>
        <path class="cls-7" d="M58,362.43C91.78,438.82,152.35,517.81,200.88,582c36.89-70,91.17-142,159.15-215.51-71.82-18.46-182.83-31.85-287.37-27.65A16.77,16.77,0,0,0,58,362.43Z"/>
        <path class="cls-8" d="M43.9,881.35C83.05,772.37,123.2,658,146.29,635.7c22.09,25.58,33.25,57.3,30.73,96.74Q98.18,842.92,43.9,881.35Z"/>
        <path class="cls-9" d="M79,916.59l184.64,12.79a340.56,340.56,0,0,1,143.17,43.8s94.89,59.89,160.82,88.49,76.55-36.49,76.55-36.49c-10,46.57-29.82,68.92-69.43,48.06l-241.22-98.3Z"/>
        <path class="cls-10" d="M552,332.07c7.86,17.89,19.13,30.21,37.55,30.81,50.48-15.75,97.5-31.3,131.78-46.13,5.31-2.3,3.37-10.26-2.41-9.89L561.31,317A10.82,10.82,0,0,0,552,332.07Z"/>
        <path class="cls-11" d="M258.91,573.75C278.41,527.3,314.8,476.29,360,422.89c.51,32.61-3.66,66.79-13.26,102.79C317.47,549.81,288.19,561.89,258.91,573.75Z"/>
      </g>
    </g>
  </g>
</svg>
