<?xml version="1.0" encoding="utf-8"?>
<!-- Generator: Adobe Illustrator 24.1.1, SVG Export Plug-In . SVG Version: 6.00 Build 0)  -->
<svg version="1.1" id="Calque_1" xmlns="http://www.w3.org/2000/svg" xmlns:xlink="http://www.w3.org/1999/xlink" x="0px" y="0px"
	 viewBox="0 0 1498.8 1483.8" style="enable-background:new 0 0 1498.8 1483.8;" xml:space="preserve">
<style type="text/css">
	.st0{fill:#DEA959;}
	.st1{fill:#919191;}
	.st2{fill:#FFFFFF;}
</style>
<g>
	<g>
		<g>
			<g>
				<path class="st0" d="M282,832.5V191.2C128,323.2,30.5,519,30.5,737.7c0,32.1,2.1,63.7,6.2,94.7H282z"/>
			</g>
			<g>
				<path class="st0" d="M629.2,832.5h834.1c4.1-31,6.2-62.6,6.2-94.7c0-397.4-322.1-719.5-719.5-719.5c-41.2,0-81.5,3.5-120.8,10.1
					V832.5z"/>
			</g>
			<g>
				<path class="st0" d="M629.2,977.9v469.2c39.3,6.6,79.6,10.1,120.8,10.1c313.1,0,579.5-200,678.4-479.3H629.2z"/>
			</g>
			<g>
				<path class="st0" d="M282,977.9H71.6c42.5,119.9,115.8,225.2,210.4,306.3V977.9z"/>
			</g>
		</g>
		<g>
			<path class="st1" d="M248,798.5H33c1,11.4,2.2,22.7,3.7,34H282V191.2c-11.7,10-23,20.4-34,31.1V798.5z"/>
			<path class="st1" d="M663.2,23.4c-11.4,1.4-22.8,3-34,4.9v804.1h834.1c1.5-11.3,2.7-22.6,3.7-34H663.2V23.4z"/>
			<path class="st1" d="M629.2,977.9v469.2c11.2,1.9,22.6,3.5,34,4.9v-440.1h715.2h36.9c4.6-11.2,9-22.5,13-34H629.2z"/>
			<path class="st1" d="M84.6,1011.9H248v241.2c11,10.7,22.3,21.1,34,31.1V977.9H71.6C75.6,989.4,80,1000.7,84.6,1011.9z"/>
		</g>
	</g>
	<g>
		<g>
			<path class="st0" d="M977.8,1441.8c-2.7,0.9-5.5,1.8-8.2,2.7C972,1443.8,974.7,1442.8,977.8,1441.8z"/>
		</g>
		<g>
			<path class="st0" d="M1026.1,1423.5c1.9-0.8,3.7-1.6,5.6-2.4c0,0,0,0,0,0C1030,1421.8,1028.1,1422.6,1026.1,1423.5z"/>
		</g>
		<g>
			<path class="st0" d="M1010.1,1430c3-1.2,5.9-2.3,8.8-3.5c-0.4,0.1-0.7,0.3-1.1,0.4C1015.3,1427.9,1012.7,1428.9,1010.1,1430z"/>
		</g>
		<g>
			<path class="st0" d="M977.8,1441.8c2.6-0.9,5.1-1.8,7.7-2.6c-0.5,0.2-1.1,0.4-1.6,0.6C981.7,1440.4,979.7,1441.1,977.8,1441.8z"
				/>
		</g>
		<g>
			<path class="st0" d="M993.8,1436.2c-2.8,1-5.5,2-8.3,3C988.1,1438.2,990.9,1437.2,993.8,1436.2z"/>
		</g>
		<g>
			<path class="st0" d="M1026.1,1423.5c-2.4,1-4.8,2-7.2,3C1021.5,1425.4,1023.9,1424.4,1026.1,1423.5z"/>
		</g>
		<g>
			<path class="st0" d="M1010.1,1430c-2,0.8-3.9,1.5-5.9,2.3C1006.2,1431.5,1008.1,1430.8,1010.1,1430z"/>
		</g>
		<g>
			<path class="st0" d="M993.8,1436.2c3.5-1.3,7-2.6,10.4-3.9c-1.1,0.4-2.2,0.8-3.3,1.2C998.5,1434.4,996.1,1435.3,993.8,1436.2z"/>
		</g>
		<g>
			<path class="st0" d="M1488.9,630.8c0.3,0.2,0.5,0.4,0.7,0.3c-1.9-8.5-3.2-16-4.6-22.9c-0.7-3.5-1.3-6.8-1.9-10.1
				c-0.6-3.3-1.3-6.5-1.9-9.7c-0.6-3.2-1.3-6.4-1.9-9.7c-0.7-3.3-1.5-6.6-2.4-10c-0.4-1.7-0.9-3.5-1.3-5.3c-0.2-0.9-0.5-1.8-0.7-2.7
				c-0.3-0.9-0.5-1.8-0.8-2.8c-1.1-3.7-2.3-7.6-3.6-11.8c0.1,0-0.2-1.6-0.9-4.5c-0.8-2.9-2-7-3.4-12.1c-0.4-1.3-0.8-2.6-1.2-4
				c-0.4-1.4-0.9-2.8-1.4-4.3c-1-3-2-6.2-3.1-9.5c-1.1-3.4-2.3-6.8-3.6-10.5c-1.3-3.6-2.6-7.4-4-11.2c-4.3-11.2-9-23.1-14.1-34.9
				c-5.8-13.9-12-27.6-18.4-41c-1.8-4-4-9-6.6-14.5c-2.6-5.4-5.4-11.4-8.4-17.3c-1.5-2.9-3-5.9-4.4-8.8c-1.4-2.9-3-5.6-4.4-8.3
				c-2.9-5.3-5.4-10.2-7.6-14c-18.3-30-40.1-60.5-65.1-89.8c-3.2-3.6-6.2-7.3-9.5-10.9c-3.3-3.6-6.5-7.2-9.8-10.8
				c-6.7-7.1-13.4-14.2-20.4-21.1c-14-13.9-28.5-27.4-43.7-40.1c-15.2-12.8-30.8-24.9-46.8-36.4c-16-11.4-32.4-22.1-48.9-32
				c-33-19.8-66.7-36.4-99.2-49.6c-4.1-1.6-8.1-3.2-12.1-4.7c-4-1.5-8-2.8-11.8-4.1c-0.7-0.2-1.3-0.4-2-0.7
				c-12.9-5.3-26.2-10.2-39.9-14.9c-17.6-5.9-36-11.2-54.8-15.9c-18.9-4.6-38.2-8.5-58-11.6C847.1,5.7,827,3.5,806.7,2
				c-5.1-0.3-10.2-0.7-15.3-1c-5.1-0.2-10.2-0.4-15.3-0.6c-5.1-0.2-10.2-0.2-15.4-0.3L753.1,0c-2.6,0-5.1,0.1-7.7,0.1l-7.7,0.1
				c-2.6,0-5.1,0.1-7.7,0.2L714.6,1c-10.2,0.6-20.5,1.3-30.7,2.3c-40.8,3.8-80.9,11.2-119.2,21.2c-4.3,1.1-8.5,2.3-12.1,3.5
				c-3.7,1.2-6.8,2.3-8.8,3.3c-4,2-3.7,2.9,5,1.5c-4.2,1.1-8.4,2.4-12.6,3.6l-6.3,1.8c-2.1,0.6-4.2,1.3-6.3,2
				c-4.2,1.3-8.3,2.7-12.5,4c-4.1,1.4-8.3,2.8-12.4,4.3c-2.1,0.7-3.9,1.4-5.6,2c-1.7,0.7-3.2,1.3-4.5,1.8c-2.7,1.1-4.8,2-6.6,2.8
				c-3.5,1.6-5.4,2.7-7.3,3.9c-1.9,1.2-3.8,2.3-7.2,4c-1.7,0.8-3.8,1.8-6.5,3c-2.7,1.2-5.9,2.7-9.9,4.4
				c-63.4,28.7-122.9,65.7-176.5,109.7c-53.6,44-101.3,95.3-141.2,152c-39.9,56.7-72,119.1-94.6,184.7C16.2,582.5,3.2,651.4,0,720.6
				C2.6,686,7.1,656,13,626.4c0.8-3.7,1.6-7.4,2.4-11.1c0.8-3.7,1.5-7.4,2.4-11.1c1.8-7.4,3.4-14.9,5.4-22.5c1-3.8,1.9-7.6,2.9-11.5
				c1.1-3.8,2.1-7.7,3.2-11.7c0.5-2,1.1-4,1.6-5.9c0.6-2,1.2-4,1.8-6c1.2-4,2.3-8.1,3.6-12.2c1,0.3,2.9,0.9,8.3-15.4
				c8.7-24.3,18.9-49.2,30.2-73.3c11.3-24.1,23.9-47.3,36.7-68.4c12.9-21.1,26-40.1,38.3-56.1c6.1-8,12.1-15.2,17.5-21.6
				c2.8-3.2,5.5-6.1,8-8.9c2.5-2.8,4.9-5.3,7.2-7.6c3-3.1,6.1-6.1,9.5-9.4c3.5-3.3,7.5-6.9,12.1-11.4c9.4-8.7,21.5-20.7,40.2-38.2
				l-9.2,8.9c-1.5,1.5-3.1,2.9-4.6,4.4l-4.5,4.5c-3,3-6,6-9,9.1l-8.8,9.3c0.8,0.7,2.3,2.1,2.3,2.1c11.7-12.3,24.7-24.8,38.4-37.3
				c3.5-3.1,6.9-6.2,10.5-9.3c3.6-3,7.2-6.1,10.8-9.2l2.7-2.3l2.8-2.2c1.8-1.5,3.7-3,5.5-4.5l5.6-4.5l5.7-4.4
				c7.5-5.9,15.2-11.5,22.9-17c3.9-2.7,7.7-5.4,11.6-8.1c1.9-1.4,3.9-2.6,5.8-3.9c1.9-1.3,3.9-2.6,5.8-3.8
				c15.5-10.1,30.8-19.5,45.6-27.7c0,0,1,1.8,1.5,2.7c4.8-2.9,9.8-5.5,14.7-8.2c2.5-1.3,4.9-2.7,7.4-4l7.5-3.9
				c8.3-2.3,4.2,1.3-7.7,8.5c-11.8,7.4-31.1,18.9-52.7,33.4c-5.5,3.6-10.9,7.5-16.6,11.4c-2.8,1.9-5.6,4-8.5,6.1
				c-2.8,2.1-5.7,4.2-8.6,6.3c-11.3,8.6-22.8,17.5-33.6,26.7c-21.8,18.3-41.4,37-55.7,52.2c0.7,0.7,2.2,2.1,2.9,2.9
				c3.9-3.9,7.8-7.9,11.7-11.7l12-11.5l1.4,1.5c-18.1,16.9-34.5,34.1-49.8,51.6c-15.3,17.5-29.4,35.3-42.6,53.8
				c-13.2,18.5-25.6,37.5-37.3,57.6c-1.9,3.3-3.9,6.7-5.8,10.1c1.1-1.9,2.1-3.6,3-5.2c0.4,0.3,0.9,0.5,2.2-1.1
				c0.7-0.8,1.6-2.1,2.8-4c1.3-1.9,2.9-4.5,5-8.1c-4.3,7-8.5,14.4-12.8,22c-4.1,7.6-8.5,15.4-12.5,23.5c-4.2,8-8,16.3-12,24.6
				c-1.9,4.2-3.8,8.4-5.7,12.6c-1,2.1-1.8,4.2-2.7,6.4l-2.7,6.4c-0.9,2.1-1.8,4.3-2.6,6.4l-2.5,6.5c-1.6,4.3-3.4,8.6-4.9,13
				c-1.5,4.3-3.1,8.7-4.6,13c-1.4,4.3-2.8,8.7-4.2,13c-1.4,4.3-2.6,8.6-3.8,12.9c-0.6,2.1-1.2,4.2-1.8,6.4c-0.6,2.1-1.1,4.2-1.7,6.3
				c-1.1,4.2-2.1,8.4-3.2,12.5c-0.9,4.1-1.8,8.2-2.7,12.2c-0.8,4-0.9,6.1-0.4,6.2c0.4,0.1,1.4-1.8,2.9-5.6c0.7-1.9,1.6-4.3,2.6-7.3
				c0.5-1.5,1-3,1.6-4.7c0.6-1.7,1.2-3.5,1.9-5.5c1.3-3.9,2.7-8.3,4.3-13.1c1.6-4.8,3.4-10.2,5.4-16c7.5-23.3,14.8-42.4,22.8-61.2
				c8-18.8,16.7-37.3,28.4-58.9l1.8,1c-1.9,3.6-4,7.4-6.1,11.4c-2.1,4-4.2,8.2-6.4,12.5c-2.1,4.3-4.3,8.8-6.5,13.3
				c-1.1,2.3-2.2,4.6-3.2,6.9c-1,2.3-2.1,4.6-3.2,6.9c-8.3,18.6-15.6,37.7-20.5,53.2c-2.1,7.9,1.1,0.4,4.7-7
				c1.7-3.7,3.4-7.4,4.5-9.2c1.1-1.8,1.3-1.7,0.2,2.2c-2.7,7.6-5.6,15.2-7.9,23l-1.8,5.8l-0.9,2.9l-0.8,2.9c-1,3.9-2,7.8-3,11.8
				c6.8-23.3,16-50.1,26.9-76.2c10.9-26.1,23.8-51.4,36.3-72.2c4.4-6.8,9.1-13.4,12.7-18.3c3.7-4.8,6.6-7.8,7.4-7.2
				c10.5-17.1,21.4-32.8,32.5-47.1c11.1-14.3,22.3-27.2,33.3-38.8c22.2-23.2,43.7-41.4,63.2-55.4c1.7-1.1,4.1-2.9,7-5.3
				c3-2.4,6.5-5.3,10.6-8.5c4.1-3.3,8.6-7,13.5-10.8c2.5-1.9,5-3.9,7.6-6c2.7-2,5.4-4.1,8.2-6.1c5.5-4.3,11.4-8.4,17.3-12.6
				c3-2.1,6-4.1,9-6.2c2.8-1.9,5.6-3.9,8.5-5.7c55.2-34.9,115.8-62.6,179.3-81.1c65.7-19.2,134.4-28.5,202.5-27.5
				c68.1,0.9,135.5,12.2,198.3,32.7c62.9,20.5,121.2,50.2,172.3,86.4c3.1,2.4,7,5.3,11.2,8.7c4.2,3.4,8.8,7,13.2,10.9
				c2.2,1.9,4.5,3.8,6.7,5.6c2.2,1.8,4.3,3.8,6.3,5.5c4,3.6,7.7,6.8,10.5,9.5c23.7,20.1,47.6,43,70.4,68.1c2.8,3.2,5.7,6.3,8.5,9.5
				c2.8,3.2,5.6,6.5,8.4,9.7c5.5,6.6,11,13.2,16.3,20.1c10.7,13.6,21.1,27.7,30.8,42.2c9.7,14.5,19,29.3,27.6,44.3
				c8.6,15.1,16.6,30.3,23.9,45.6c14.2,29.7,25.9,59.5,35.2,88.3c1.5,5.4,2.9,10.8,4.3,16.1c3.6,15.1,6.8,30.8,9.8,47
				c2.8,16.2,5.2,32.8,7.2,49.8c1.8,17,3.1,34.3,3.9,51.9c0.7,17.6,0.7,35.4,0.2,53.4c-0.2,4.5-0.3,9-0.5,13.5
				c-0.3,4.5-0.6,9-0.8,13.5c-0.2,4.5-0.7,9-1.1,13.5l-0.6,6.8c-0.2,2.3-0.5,4.5-0.7,6.7l-0.7,6.7c-0.3,2.2-0.5,4.5-0.8,6.7
				l-1.8,13.5c-1.4,8.9-2.7,17.9-4.5,26.8c-6.5,35.6-16.1,70.3-27.7,103.3c-1.4,3.6-2.7,7.3-3.7,10.6c-1,3.2-1.7,6.1-2.2,8
				c-0.8,3.9,0.2,4.3,4.1-2.6c-1.4,3.6-3,7.2-4.5,10.9l-2.3,5.4c-0.7,1.8-1.6,3.6-2.4,5.4c-1.6,3.6-3.2,7.2-4.8,10.7
				c-1.7,3.5-3.4,7.1-5,10.6c-0.8,1.8-1.6,3.4-2.3,4.8c-0.7,1.5-1.3,2.8-1.9,3.9c-1.1,2.4-1.9,4.3-2.6,5.9c-1.3,3.2-1.8,5.1-2.4,7
				c-0.6,1.9-1.2,3.8-2.5,7c-0.7,1.6-1.6,3.5-2.7,5.8c-1.2,2.3-2.8,5.1-4.7,8.6c-30,55.3-68.5,106.2-113.3,150.6
				c-44.9,44.4-96.2,82.3-151.6,112.5c-55.5,30.1-115.1,52.4-176.6,66.3c-61.5,13.8-124.9,19.2-188.1,16.5c31.6,2.1,59.3,2.5,87,1.2
				c3.5-0.2,6.9-0.5,10.4-0.7c3.5-0.3,6.9-0.4,10.4-0.8c7-0.7,14-1.3,21.1-2.3c3.6-0.5,7.2-0.9,10.8-1.4c3.6-0.6,7.3-1.2,11-1.8
				c1.8-0.3,3.7-0.6,5.6-0.9c1.9-0.4,3.7-0.7,5.6-1.1c3.8-0.8,7.6-1.5,11.5-2.3c0.2,1,0.6,3,16.2-0.3c23.3-5,47.4-11.7,70.7-19.6
				c23.3-7.9,45.9-17.1,66.7-26.7c20.8-9.5,39.8-19.4,56.2-28.5c8.2-4.4,15.7-8.8,22.5-12.6c3.4-2,6.6-3.8,9.6-5.5
				c3-1.7,5.9-3.3,8.5-4.8c3.4-2,7-4,10.9-6.2c3.9-2.3,8.3-4.8,13.4-7.9c8.7-5.6,20-13,34.7-25l-2,1.6c-1.6,1.3-3.1,2.6-4.7,3.8
				l-4.7,3.7c-3.2,2.5-6.3,5-9.5,7.5l-9.6,7.3c0.6,0.8,1.8,2.5,1.8,2.5c13.2-9.4,26.7-20,40.3-31.3c3.4-2.9,6.8-5.7,10.2-8.6
				c3.3-3,6.7-6,10.1-9l2.5-2.3l2.5-2.3c1.7-1.5,3.3-3.1,5-4.7l5-4.7l4.9-4.8c6.6-6.3,12.9-12.9,19.2-19.4c3.1-3.3,6.1-6.6,9.2-9.9
				c1.5-1.6,3-3.3,4.5-5c1.5-1.7,3-3.3,4.4-5c11.7-13.3,22.7-26.6,32.4-39.6c0,0,1.7,1.2,2.5,1.8c3.3-4.3,6.4-8.8,9.5-13.2
				c1.5-2.2,3.2-4.4,4.7-6.7l4.5-6.8c6-5.8,4.3-0.9-2.5,10.9c-7,11.7-19.3,30-35.4,50c-3.9,5.1-8.3,10.1-12.6,15.3
				c-2.2,2.6-4.5,5.2-6.7,7.8c-2.3,2.6-4.6,5.2-6.9,7.8c-9.5,10.3-19.4,20.7-29.5,30.4c-20.1,19.6-40.4,36.9-56.6,49.7
				c0.6,0.8,1.9,2.4,2.5,3.2c4.3-3.4,8.7-6.8,13-10.3l12.7-10.6l1.3,1.6c-18.9,16.2-37.9,30.7-57.1,44
				c-19.2,13.3-38.6,25.4-58.5,36.6c-19.9,11.2-40.3,21.4-61.7,30.8c-1.7,0.8-3.5,1.5-5.2,2.3c0.2,0.5,0.4,0.9,2.5,0.5
				c1-0.2,2.5-0.7,4.7-1.5c2.2-0.8,5-2.1,8.8-3.8c-7.5,3.6-15.5,6.9-23.5,10.3c-8.2,3.2-16.5,6.7-25,9.7c-8.5,3.2-17.3,6.1-26.1,9.1
				c-4.4,1.4-8.9,2.8-13.3,4.2c-2.2,0.7-4.5,1.4-6.7,2l-6.7,2c-2.3,0.6-4.5,1.3-6.7,1.9l-6.8,1.8c-4.5,1.2-9,2.5-13.5,3.5
				c-4.5,1.1-9,2.2-13.5,3.3c-4.5,1-9,2-13.4,3c-4.4,1-8.9,1.8-13.3,2.7c-2.2,0.4-4.4,0.9-6.6,1.3c-2.2,0.5-4.4,0.8-6.5,1.2
				c-4.3,0.8-8.6,1.6-12.8,2.3c-4.2,0.7-8.4,1.4-12.5,2c-4.1,0.8-6.1,1.5-6.1,1.9c0.1,0.5,2.2,0.7,6.4,0.7c2.1,0,4.7-0.1,7.9-0.3
				c1.6-0.1,3.3-0.2,5.1-0.3c1.8-0.2,3.8-0.4,5.9-0.6c4.2-0.5,8.9-0.9,14.1-1.7c5.2-0.8,10.9-1.6,17.1-2.7
				c24.7-5,45.1-10.2,65.2-16.3c20.1-6.1,40-12.8,63.4-22.3l0.8,1.9c-3.9,1.5-8,3.3-12.4,4.9c-4.4,1.6-9,3.3-13.7,5
				c-4.7,1.6-9.6,3.2-14.5,4.9c-2.5,0.9-5,1.6-7.5,2.4c-2.5,0.8-5,1.6-7.5,2.3c-20.1,6.2-40.5,11.4-56.8,15.7
				c-8.1,2.2,0.3,1.3,8.7,0c4.2-0.6,8.4-1.2,10.5-1.4c2.1-0.2,2.2,0.1-1.8,1.4c-8.3,1.9-16.5,4-24.8,5.8l-6.2,1.4l-3.1,0.7l-3.1,0.7
				c-4.1,0.9-8.3,1.9-12.4,2.9c25.1-4.4,54-11.3,82.4-19.9c28.4-8.5,56.2-19,79.8-28.6c8-2.8,15.9-6,22-8c6-2.1,10.2-3.4,10.6-2.4
				c19-9.6,36.8-19.2,53.4-28.8c16.6-9.6,32-19.1,46.4-28.3c28.7-18.6,53.2-35.9,74.2-51.2c1.8-1.3,4.3-3.3,7.4-5.9
				c3.1-2.6,6.9-5.9,11-9.8c4.1-3.9,8.8-8.2,13.6-13c2.4-2.4,4.9-4.9,7.4-7.5c2.5-2.6,5-5.3,7.6-8c5.2-5.4,10.4-11.3,15.7-17.2
				c2.6-2.9,5.1-6,7.7-9c2.5-2.9,5-5.8,7.3-8.7c46.1-53.7,85.1-115.1,114-181.4c7.5-17.2,14.3-34.6,20.6-52.3
				c6.2-17.7,11.6-35.7,16.5-53.8l3.5-13.6c1.1-4.6,2.1-9.1,3.2-13.7l1.6-6.9l1.4-6.9l1.4-6.9c0.5-2.3,0.9-4.6,1.3-6.9l2.5-13.8
				c0.8-4.6,1.4-9.3,2.2-13.9l1.1-6.9l0.9-7c0.6-4.6,1.2-9.3,1.7-13.9C1502,769.4,1499.9,698.9,1488.9,630.8z M397.2,171.5
				c0.3-0.2,0.7-0.4,1-0.6c2.8-1.6,5.4-3.2,8-4.7C403.2,168,400.2,169.7,397.2,171.5z M1344.4,1209c1.6-2.2,3.3-4.4,4.8-6.5
				C1347.7,1204.6,1346.1,1206.8,1344.4,1209z"/>
		</g>
		<g>
			<path class="st0" d="M103.6,453.6c0.2-0.5,0.5-1.1,0.8-1.6c-1.2,2.4-2.3,4.9-3.5,7.3C101.7,457.6,102.6,455.6,103.6,453.6z"/>
		</g>
		<g>
			<path class="st0" d="M108.2,444.2c-1.3,2.7-2.6,5.3-3.8,7.9C105.6,449.4,106.9,446.8,108.2,444.2z"/>
		</g>
		<g>
			<path class="st0" d="M100.8,459.4c-1.4,2.9-2.6,5.5-3.6,7.8C98.4,464.6,99.6,462,100.8,459.4z"/>
		</g>
		<g>
			<path class="st0" d="M111.6,437.4c0.5-1,1-2.1,1.6-3.1c-1.7,3.3-3.3,6.6-5,9.9C109.3,441.9,110.4,439.7,111.6,437.4z"/>
		</g>
		<g>
			<path class="st0" d="M120,421.4c0.2-0.4,0.4-0.7,0.6-1c-1.5,2.8-3,5.5-4.5,8.3C117.4,426.2,118.8,423.8,120,421.4z"/>
		</g>
		<g>
			<path class="st0" d="M116.1,428.7c-1,1.8-2,3.7-2.9,5.6C114.1,432.4,115.1,430.6,116.1,428.7z"/>
		</g>
		<g>
			<path class="st0" d="M124.3,413.6c-1.2,2.1-2.5,4.4-3.8,6.8C121.8,418.1,123.1,415.8,124.3,413.6z"/>
		</g>
	</g>
	<g>
		<path class="st2" d="M1059.3,735.5c0,0-211.5-8.6-263.7-214.8c-2.3-8.9,10-14,14.6-6c29.2,49.6,63.4,118,139.6,105.6
			c-34.8-17.4-69.6-23.2-65.5-43.9c0,0,44.8,2.5,103.6,24C1056,625.3,1059.3,735.5,1059.3,735.5z"/>
		<path class="st2" d="M1226.8,514.7c-29.2,49.6-63.4,118-139.6,105.6c34.8-17.4,69.6-23.2,65.5-43.9c0,0-44.8,2.5-103.6,24
			c-8.4,3.1-15.8,7.5-22.4,12.8c14,14.6,44.4,51,50.8,97.9c62.4-26.1,136.1-79.9,164-190.4C1243.7,511.7,1231.5,506.7,1226.8,514.7z
			"/>
		<path class="st2" d="M1004.2,588.3c0,0-40.6-30.7-124.4-39.8l3.7-9.5C883.6,539,966.5,545.7,1004.2,588.3z"/>
		<path class="st2" d="M1034.9,588.3c0,0,40.6-30.7,124.4-39.8l-3.7-9.5C1155.5,539,1072.6,545.7,1034.9,588.3z"/>
		<path class="st2" d="M1123.3,425.1c-67.9-6.5-100.6,21.1-100.6,21.1s56.4-20.4,98-13.9l33.9,80.2c0,0-108.3,6.5-135.7,59.6
			c-27.4-53.1-134.6-59.6-134.6-59.6l14.9-46.4l-35.6,58c128.5,12.4,155.3,62.4,155.3,62.4s27.9-50,156.4-62.4L1123.3,425.1z"/>
		<path class="st2" d="M875.1,431.6c0,0,45.7-35.6,86.3,11C961.3,442.6,916.3,479.3,875.1,431.6z"/>
		<path class="st2" d="M1046,331.1c0,0,34.1-46.8,86-13.2C1131.9,317.8,1098.8,365.5,1046,331.1z"/>
		<path class="st2" d="M1033.6,181.7c0,0,46.5-2.2,51.5,47.2C1085.1,228.9,1038.6,232.1,1033.6,181.7z"/>
		<path class="st2" d="M1018.7,236.2c0,0,24.7,20,4.9,47.5C1023.5,283.7,998.3,264.2,1018.7,236.2z"/>
		<path class="st2" d="M1144.7,239.8c0,0-7.1,26.2-35.4,20.1C1109.3,259.9,1115.8,233.6,1144.7,239.8z"/>
		<path class="st2" d="M826.2,354.6c0,0,42.2-20.2,66.2,23.7C892.3,378.3,850.4,399.4,826.2,354.6z"/>
		<path class="st2" d="M818.3,294c0,0,23-11.7,36.9,12.1C855.2,306.2,832.4,318.5,818.3,294z"/>
		<path class="st2" d="M960.3,294.5c0,0-40.4,12.5-29.4,56.2C930.8,350.7,971.6,339.1,960.3,294.5z"/>
		<path class="st2" d="M926.2,253c0,0-29.3,4.9-25.8,36.5C900.4,289.5,929.9,285.2,926.2,253z"/>
		<path class="st2" d="M1017.5,496.7c-17.1-47.1-51.6-74.2-82-99.5c-23.5-19.6-45.7-38.1-57.6-62.5c-12.9-26.4-12.3-56.8,2.4-94.2
			c0.9-2.4,3.6-3.5,6-2.6v0c2.3,1,3.4,3.6,2.5,5.9c-30,76.8,6.5,108,52.6,146.3c31.3,26.1,67.7,57.3,85.6,106.7L1017.5,496.7z"/>
		<path class="st2" d="M998.6,401.4c-2.3,0.2-4.3-1.6-4.4-3.9c-3.6-70.8,29.7-100.9,63-118.6c18.5-9.9,57.9-38.9,27.5-101
			c-1-2-0.2-4.5,1.8-5.5v0c2.1-1.1,4.6-0.3,5.7,1.8c13,26.6,16.5,54.9,6.2,75.6c-9.7,19.6-27.5,31.2-37.2,36.4
			c-31,16.5-62,44.7-58.7,110.9C1002.6,399.3,1000.9,401.2,998.6,401.4L998.6,401.4z"/>
	</g>
</g>
</svg>
