<svg id="Calque_1" data-name="Calque 1" xmlns="http://www.w3.org/2000/svg" xmlns:xlink="http://www.w3.org/1999/xlink" viewBox="0 0 917.02 796.4"><defs><style>.cls-1{fill:url(#Dégradé_sans_nom_19);}.cls-2{fill:url(#Dégradé_sans_nom_27);}.cls-3{fill:url(#Dégradé_sans_nom_22);}.cls-4{fill:url(#Dégradé_sans_nom_18);}.cls-5{fill:url(#Dégradé_sans_nom_14);}</style><linearGradient id="Dégradé_sans_nom_19" x1="454.95" y1="-26.72" x2="454.95" y2="866.56" gradientUnits="userSpaceOnUse"><stop offset="0" stop-color="#3a3e42"/><stop offset="1" stop-color="#202225"/></linearGradient><linearGradient id="Dégradé_sans_nom_27" x1="488.42" y1="427.14" x2="775.31" y2="368.03" gradientUnits="userSpaceOnUse"><stop offset="0" stop-color="#605fff"/><stop offset="1" stop-color="#55c0fe"/></linearGradient><linearGradient id="Dégradé_sans_nom_22" x1="531.4" y1="370.03" x2="822.62" y2="308.04" gradientUnits="userSpaceOnUse"><stop offset="0" stop-color="#79c83f"/><stop offset="1" stop-color="#3bd99e"/></linearGradient><linearGradient id="Dégradé_sans_nom_18" x1="574.11" y1="313.87" x2="857.39" y2="249.72" gradientUnits="userSpaceOnUse"><stop offset="0" stop-color="#ff7e46"/><stop offset="1" stop-color="#ffc641"/></linearGradient><linearGradient id="Dégradé_sans_nom_14" x1="611.15" y1="254.48" x2="892.28" y2="196.1" gradientUnits="userSpaceOnUse"><stop offset="0" stop-color="#eb4848"/><stop offset="1" stop-color="#e8538f"/></linearGradient></defs><path class="cls-1" d="M835.94,391.07,415.31,475.31a46.69,46.69,0,0,1-25.27-2L188.29,399.18h0C122.63,375,67.16,299.75,67.16,234.87c0-25.22,8.65-45.14,24.35-56.09,17.83-12.43,44.64-13.44,73.56-2.79l224,82.36a50.23,50.23,0,0,0,27.31,2.09L882.8,166.29A18.94,18.94,0,0,0,898,147.71v-37.8a19,19,0,0,0-12.4-17.79L666.77,11.51C642.11,2.43,617.92-1.3,594.85.4a135.58,135.58,0,0,0-24.69,4.13l-466.8,98.92A124.42,124.42,0,0,0,53.1,123.69a118.38,118.38,0,0,0-39.5,47.05c-9,19-13.6,40.6-13.6,64.13C0,272,11.55,311.23,32.88,347.68h0s38.8,79.42,116.33,108.65h0l114.91,42.35C329.78,522.86,385.25,598.1,385.25,663c0,25.22-8.65,45.14-24.36,56.09-17.82,12.43-44.63,13.45-73.56,2.79L51.92,635.1a14.15,14.15,0,0,0-19,13.27v41.47a14.14,14.14,0,0,0,9.26,13.28l222,81.76c20.78,7.66,41.24,11.52,61,11.52q5.51,0,10.94-.41a135.32,135.32,0,0,0,22.4-3.54l431-91.37V701a149.48,149.48,0,0,0,56.28-23.61,142.62,142.62,0,0,0,47.6-56.72c11-23.16,16.56-49.51,16.56-78.33,0-44.19-13.27-90.89-37.85-134.72A33.8,33.8,0,0,0,835.94,391.07Z"/><path id="Rectangle_299" data-name="Rectangle 299" class="cls-2" d="M741.17,359.09l46.19,15c9.17,3,9.94,6.75,1.72,8.41L546.76,431.24c-8.22,1.65-22.32.57-31.5-2.42l-46.18-15Z"/><path id="Rectangle_299-2" data-name="Rectangle 299" class="cls-3" d="M781.92,301.49l46.19,15c9.17,3,9.94,6.75,1.72,8.4L587.51,373.64c-8.22,1.66-22.33.58-31.5-2.41l-46.19-15Z"/><path id="Rectangle_299-3" data-name="Rectangle 299" class="cls-4" d="M822.67,243.9l46.18,15c9.18,3,9.95,6.75,1.73,8.4L628.26,316.05c-8.23,1.65-22.33.57-31.5-2.42l-46.19-15Z"/><path id="Rectangle_299-4" data-name="Rectangle 299" class="cls-5" d="M863.42,186.3l46.18,15c9.18,3,9.95,6.75,1.73,8.4L669,258.45c-8.23,1.66-22.33.58-31.5-2.41l-46.19-15Z"/></svg>