<svg id="Calque_1" data-name="Calque 1" xmlns="http://www.w3.org/2000/svg" xmlns:xlink="http://www.w3.org/1999/xlink" viewBox="0 0 4472.21 796.4"><defs><style>.cls-1{fill:url(#Dégradé_sans_nom_19);}.cls-2{fill:url(#Dégradé_sans_nom_27);}.cls-3{fill:url(#Dégradé_sans_nom_22);}.cls-4{fill:url(#Dégradé_sans_nom_18);}.cls-5{fill:url(#Dégradé_sans_nom_14);}.cls-6{fill:url(#Dégradé_sans_nom_19-2);}.cls-7{fill:url(#Dégradé_sans_nom_19-3);}.cls-8{fill:url(#Dégradé_sans_nom_19-4);}.cls-9{fill:url(#Dégradé_sans_nom_19-5);}.cls-10{fill:url(#Dégradé_sans_nom_19-6);}.cls-11{fill:url(#Dégradé_sans_nom_19-7);}.cls-12{fill:url(#Dégradé_sans_nom_19-8);}.cls-13{fill:url(#Dégradé_sans_nom_19-9);}.cls-14{fill:url(#Dégradé_sans_nom_19-10);}.cls-15{fill:url(#Dégradé_sans_nom_19-11);}.cls-16{fill:url(#Dégradé_sans_nom_19-12);}.cls-17{fill:url(#Dégradé_sans_nom_19-13);}</style><linearGradient id="Dégradé_sans_nom_19" x1="454.95" y1="-26.72" x2="454.95" y2="866.56" gradientUnits="userSpaceOnUse"><stop offset="0" stop-color="#3a3e42"/><stop offset="1" stop-color="#202225"/></linearGradient><linearGradient id="Dégradé_sans_nom_27" x1="488.42" y1="427.14" x2="775.31" y2="368.03" gradientUnits="userSpaceOnUse"><stop offset="0" stop-color="#605fff"/><stop offset="1" stop-color="#55c0fe"/></linearGradient><linearGradient id="Dégradé_sans_nom_22" x1="531.4" y1="370.03" x2="822.62" y2="308.04" gradientUnits="userSpaceOnUse"><stop offset="0" stop-color="#79c83f"/><stop offset="1" stop-color="#3bd99e"/></linearGradient><linearGradient id="Dégradé_sans_nom_18" x1="574.11" y1="313.87" x2="857.39" y2="249.72" gradientUnits="userSpaceOnUse"><stop offset="0" stop-color="#ff7e46"/><stop offset="1" stop-color="#ffc641"/></linearGradient><linearGradient id="Dégradé_sans_nom_14" x1="611.15" y1="254.48" x2="892.28" y2="196.1" gradientUnits="userSpaceOnUse"><stop offset="0" stop-color="#eb4848"/><stop offset="1" stop-color="#e8538f"/></linearGradient><linearGradient id="Dégradé_sans_nom_19-2" x1="1183.4" y1="-1082.64" x2="1413.49" y2="2274.75" xlink:href="#Dégradé_sans_nom_19"/><linearGradient id="Dégradé_sans_nom_19-3" x1="1514.22" y1="-1105.31" x2="1744.3" y2="2252.08" xlink:href="#Dégradé_sans_nom_19"/><linearGradient id="Dégradé_sans_nom_19-4" x1="1859.59" y1="-1128.98" x2="2089.68" y2="2228.41" xlink:href="#Dégradé_sans_nom_19"/><linearGradient id="Dégradé_sans_nom_19-5" x1="2162.19" y1="-1149.72" x2="2392.27" y2="2207.67" xlink:href="#Dégradé_sans_nom_19"/><linearGradient id="Dégradé_sans_nom_19-6" x1="2462.96" y1="-1170.33" x2="2693.05" y2="2187.06" xlink:href="#Dégradé_sans_nom_19"/><linearGradient id="Dégradé_sans_nom_19-7" x1="2765.88" y1="-1191.09" x2="2995.97" y2="2166.3" xlink:href="#Dégradé_sans_nom_19"/><linearGradient id="Dégradé_sans_nom_19-8" x1="3057.25" y1="-1211.06" x2="3287.34" y2="2146.33" xlink:href="#Dégradé_sans_nom_19"/><linearGradient id="Dégradé_sans_nom_19-9" x1="3380.97" y1="-823.73" x2="3557.5" y2="1752.13" xlink:href="#Dégradé_sans_nom_19"/><linearGradient id="Dégradé_sans_nom_19-10" x1="3648.14" y1="-1251.55" x2="3878.22" y2="2105.84" xlink:href="#Dégradé_sans_nom_19"/><linearGradient id="Dégradé_sans_nom_19-11" x1="3979.46" y1="-1274.26" x2="4209.54" y2="2083.13" xlink:href="#Dégradé_sans_nom_19"/><linearGradient id="Dégradé_sans_nom_19-12" x1="4270.4" y1="-1294.2" x2="4500.49" y2="2063.19" xlink:href="#Dégradé_sans_nom_19"/><linearGradient id="Dégradé_sans_nom_19-13" x1="3432.43" y1="-57.65" x2="3473.37" y2="539.76" xlink:href="#Dégradé_sans_nom_19"/></defs><path class="cls-1" d="M835.94,391.07,415.31,475.31a46.69,46.69,0,0,1-25.27-2L188.29,399.18h0C122.63,375,67.16,299.75,67.16,234.87c0-25.22,8.65-45.14,24.35-56.09,17.83-12.43,44.64-13.44,73.56-2.79l224,82.36a50.23,50.23,0,0,0,27.31,2.09L882.8,166.29A18.94,18.94,0,0,0,898,147.71v-37.8a19,19,0,0,0-12.4-17.79L666.77,11.51C642.11,2.43,617.92-1.3,594.85.4a135.58,135.58,0,0,0-24.69,4.13l-466.8,98.92A124.42,124.42,0,0,0,53.1,123.69a118.38,118.38,0,0,0-39.5,47.05c-9,19-13.6,40.6-13.6,64.13C0,272,11.55,311.23,32.88,347.68h0s38.8,79.42,116.33,108.65h0l114.91,42.35C329.78,522.86,385.25,598.1,385.25,663c0,25.22-8.65,45.14-24.36,56.09-17.82,12.43-44.63,13.45-73.56,2.79L51.92,635.1a14.15,14.15,0,0,0-19,13.27v41.47a14.14,14.14,0,0,0,9.26,13.28l222,81.76c20.78,7.66,41.24,11.52,61,11.52q5.51,0,10.94-.41a135.32,135.32,0,0,0,22.4-3.54l431-91.37V701a149.48,149.48,0,0,0,56.28-23.61,142.62,142.62,0,0,0,47.6-56.72c11-23.16,16.56-49.51,16.56-78.33,0-44.19-13.27-90.89-37.85-134.72A33.8,33.8,0,0,0,835.94,391.07Z"/><path id="Rectangle_299" data-name="Rectangle 299" class="cls-2" d="M741.17,359.09l46.19,15c9.17,3,9.94,6.75,1.72,8.41L546.76,431.24c-8.22,1.65-22.32.57-31.5-2.42l-46.18-15Z"/><path id="Rectangle_299-2" data-name="Rectangle 299" class="cls-3" d="M781.92,301.49l46.19,15c9.17,3,9.94,6.75,1.72,8.4L587.51,373.64c-8.22,1.66-22.33.58-31.5-2.41l-46.19-15Z"/><path id="Rectangle_299-3" data-name="Rectangle 299" class="cls-4" d="M822.67,243.9l46.18,15c9.18,3,9.95,6.75,1.73,8.4L628.26,316.05c-8.23,1.65-22.33.57-31.5-2.42l-46.19-15Z"/><path id="Rectangle_299-4" data-name="Rectangle 299" class="cls-5" d="M863.42,186.3l46.18,15c9.18,3,9.95,6.75,1.73,8.4L669,258.45c-8.23,1.66-22.33.58-31.5-2.41l-46.19-15Z"/><path class="cls-6" d="M1386.71,438.67c0,43.18-31.53,80.89-96.65,80.89-41,0-84-13.23-99.08-51.43a12.24,12.24,0,0,1,7.68-16.23l41.78-13a12.17,12.17,0,0,1,13.62,4.65c5.66,8.16,18.23,13.66,32.23,13.66,13.36,0,23.3-5.15,23.3-14.4,0-12-14.74-12.68-38.73-18.51-43.87-10.63-76.09-26-76.09-75.41,0-46.95,41.47-77.8,94.26-77.8,37.42,0,71.87,16.47,85.13,49.66a12.22,12.22,0,0,1-8.43,16.43l-41.64,10.12A12.09,12.09,0,0,1,1311.5,343c-4.37-5.88-12-9.54-21.79-9.54-13.71,0-20.91,5.48-20.91,13.71,0,11.65,17.83,12.68,36.34,17.82C1363.75,381.08,1386.71,398.22,1386.71,438.67Z"/><path class="cls-7" d="M1758.26,289.68V500.59a14.51,14.51,0,0,1-14.51,14.51h-48.1a14.51,14.51,0,0,1-14.51-14.51V389l-49.83,86.25a12.62,12.62,0,0,1-10.91,6.29h-6.71a12.61,12.61,0,0,1-10.91-6.29L1553,389V500.59a14.51,14.51,0,0,1-14.51,14.51h-48.1a14.5,14.5,0,0,1-14.51-14.51V289.68a14.51,14.51,0,0,1,14.51-14.51h60a14.49,14.49,0,0,1,12.6,7.32L1617,377.31l54.1-94.82a14.49,14.49,0,0,1,12.6-7.32h60A14.51,14.51,0,0,1,1758.26,289.68Z"/><path class="cls-8" d="M2005,478.08h-67.86l-6.85,24.65a16.89,16.89,0,0,1-16.27,12.37H1867.4a16.89,16.89,0,0,1-16-22.24L1920.3,286.7a16.88,16.88,0,0,1,16-11.53h69.6a16.88,16.88,0,0,1,16,11.53l68.92,206.16a16.88,16.88,0,0,1-16,22.24h-46.66a16.89,16.89,0,0,1-16.27-12.37Zm-14.73-53.47L1971.11,355l-19.19,69.58Z"/><path class="cls-9" d="M2369.73,438.67c0,43.18-31.53,80.89-96.65,80.89-39.94,0-81.74-12.55-97.84-48.49a14.68,14.68,0,0,1,9.05-20l37.48-11.68a14.43,14.43,0,0,1,15.82,4.82c5.88,7.78,18.13,13,31.72,13,13.36,0,23.3-5.15,23.3-14.4,0-12-14.73-12.68-38.73-18.51-43.87-10.63-76.09-26-76.09-75.41,0-46.95,41.47-77.8,94.26-77.8,36.23,0,69.68,15.44,83.81,46.55a14.66,14.66,0,0,1-10,20.23l-37.38,9.09a15.05,15.05,0,0,1-14.93-5.09c-4.48-5.21-11.75-8.4-20.87-8.4-13.71,0-20.9,5.48-20.9,13.71,0,11.65,17.82,12.68,36.33,17.82C2346.77,381.08,2369.73,398.22,2369.73,438.67Z"/><path class="cls-10" d="M2681.64,286.41V503.86a11.24,11.24,0,0,1-11.24,11.24h-54.29a11.24,11.24,0,0,1-11.24-11.24V428.73H2536v75.13a11.24,11.24,0,0,1-11.24,11.24h-54.64a11.24,11.24,0,0,1-11.24-11.24V286.41a11.24,11.24,0,0,1,11.24-11.24h54.64A11.24,11.24,0,0,1,2536,286.41v72.74h68.9V286.41a11.24,11.24,0,0,1,11.24-11.24h54.29A11.24,11.24,0,0,1,2681.64,286.41Z"/><path class="cls-11" d="M2952.08,345.78h-44.9v158a11.31,11.31,0,0,1-11.31,11.31h-54.5a11.31,11.31,0,0,1-11.31-11.31v-158H2785.5a11.31,11.31,0,0,1-11.31-11.31v-48a11.31,11.31,0,0,1,11.31-11.31h166.58a11.31,11.31,0,0,1,11.31,11.31v48A11.31,11.31,0,0,1,2952.08,345.78Z"/><path class="cls-12" d="M3278.73,286V504.3a10.8,10.8,0,0,1-10.81,10.8h-55.17a10.79,10.79,0,0,1-10.8-10.8V428.73h-68.9V504.3a10.79,10.79,0,0,1-10.8,10.8h-55.52a10.8,10.8,0,0,1-10.8-10.8V286a10.81,10.81,0,0,1,10.8-10.8h55.52a10.8,10.8,0,0,1,10.8,10.8v73.18H3202V286a10.8,10.8,0,0,1,10.8-10.8h55.17A10.81,10.81,0,0,1,3278.73,286Z"/><path class="cls-13" d="M3550.53,461.66v42.45a11,11,0,0,1-11,11h-147a11,11,0,0,1-11-11V286.17a11,11,0,0,1,11-11h143.9a11,11,0,0,1,11,11v42.44a11,11,0,0,1-11,11h-77.78v26.73h66.81a11,11,0,0,1,11,11v33.53a11,11,0,0,1-11,11h-66.81v28.79h80.87A11,11,0,0,1,3550.53,461.66Z"/><path class="cls-14" d="M3864.16,468.83l17.68,17.68a7.47,7.47,0,0,1,0,10.57l-26.08,26.07a7.46,7.46,0,0,1-10.59,0l-19.74-20A134.3,134.3,0,0,1,3761,519.56c-72,0-126.48-53.47-126.48-124.42,0-70.61,54.5-124.08,126.48-124.08s126.48,53.47,126.48,124.08C3887.47,423.24,3878.9,448.26,3864.16,468.83Zm-97.35-24.34-13.67-13.91a7.88,7.88,0,0,1,.1-11.14L3779,394.13a7.89,7.89,0,0,1,11.13.09l17.44,17.71a52.06,52.06,0,0,0,2.75-16.79c0-29.32-21.69-50.11-50.93-49.34A49.14,49.14,0,0,0,3711.29,396c.4,28.68,21.19,48.51,49.7,48.51Z"/><path class="cls-15" d="M4190.41,275.17a10,10,0,0,1,10,10V418.1c0,71.29-44.21,101.46-109.34,101.46-65.46,0-109.34-30.17-109.34-101.46V285.17a10,10,0,0,1,10-10h56.78a10,10,0,0,1,10,10v124.7c0,22.28,11.65,34.62,32.56,34.62,20.57,0,32.22-12.34,32.22-34.62V285.17a10,10,0,0,1,10-10Z"/><path class="cls-16" d="M4472.21,457.67V508.1a7,7,0,0,1-7,7h-155a7,7,0,0,1-7-7V282.17a7,7,0,0,1,7-7h151.89a7,7,0,0,1,7,7v50.44a7,7,0,0,1-7,7h-81.77v26.73h70.8a7,7,0,0,1,7,7v41.52a7,7,0,0,1-7,7h-70.8v28.79h84.85A7,7,0,0,1,4472.21,457.67Z"/><path class="cls-17" d="M3475.93,252.37h-25.17a14.3,14.3,0,0,1-11.78-6.19l-24.67-35.77a7.78,7.78,0,0,1,6.4-12.2H3464a14.32,14.32,0,0,1,13,8.24l12,25.54A14.31,14.31,0,0,1,3475.93,252.37Z"/></svg>