<svg id="Calque_1" data-name="Calque 1" xmlns="http://www.w3.org/2000/svg" xmlns:xlink="http://www.w3.org/1999/xlink" viewBox="0 0 4472.21 796.4"><defs><style>.cls-1{fill:url(#Dégradé_sans_nom_19);}.cls-2{fill:url(#Dégradé_sans_nom_27);}.cls-3{fill:url(#Dégradé_sans_nom_22);}.cls-4{fill:url(#Dégradé_sans_nom_18);}.cls-5{fill:url(#Dégradé_sans_nom_14);}.cls-6{fill:url(#Dégradé_sans_nom_19-2);}.cls-7{fill:url(#Dégradé_sans_nom_19-3);}.cls-8{fill:url(#Dégradé_sans_nom_19-4);}.cls-9{fill:url(#Dégradé_sans_nom_19-5);}.cls-10{fill:url(#Dégradé_sans_nom_19-6);}.cls-11{fill:url(#Dégradé_sans_nom_19-7);}.cls-12{fill:url(#Dégradé_sans_nom_19-8);}.cls-13{fill:url(#Dégradé_sans_nom_19-9);}.cls-14{fill:url(#Dégradé_sans_nom_19-10);}.cls-15{fill:url(#Dégradé_sans_nom_19-11);}.cls-16{fill:url(#Dégradé_sans_nom_19-12);}</style><linearGradient id="Dégradé_sans_nom_19" x1="454.95" y1="-26.72" x2="454.95" y2="866.56" gradientUnits="userSpaceOnUse"><stop offset="0" stop-color="#3a3e42"/><stop offset="1" stop-color="#202225"/></linearGradient><linearGradient id="Dégradé_sans_nom_27" x1="488.42" y1="427.14" x2="775.31" y2="368.03" gradientUnits="userSpaceOnUse"><stop offset="0" stop-color="#605fff"/><stop offset="1" stop-color="#55c0fe"/></linearGradient><linearGradient id="Dégradé_sans_nom_22" x1="531.4" y1="370.03" x2="822.62" y2="308.04" gradientUnits="userSpaceOnUse"><stop offset="0" stop-color="#79c83f"/><stop offset="1" stop-color="#3bd99e"/></linearGradient><linearGradient id="Dégradé_sans_nom_18" x1="574.11" y1="313.87" x2="857.39" y2="249.72" gradientUnits="userSpaceOnUse"><stop offset="0" stop-color="#ff7e46"/><stop offset="1" stop-color="#ffc641"/></linearGradient><linearGradient id="Dégradé_sans_nom_14" x1="611.15" y1="254.48" x2="892.28" y2="196.1" gradientUnits="userSpaceOnUse"><stop offset="0" stop-color="#eb4848"/><stop offset="1" stop-color="#e8538f"/></linearGradient><linearGradient id="Dégradé_sans_nom_19-2" x1="723.47" y1="-745.06" x2="1897.39" y2="1724.85" xlink:href="#Dégradé_sans_nom_19"/><linearGradient id="Dégradé_sans_nom_19-3" x1="996.04" y1="-874.61" x2="2169.95" y2="1595.31" xlink:href="#Dégradé_sans_nom_19"/><linearGradient id="Dégradé_sans_nom_19-4" x1="1256.76" y1="-998.52" x2="2430.67" y2="1471.39" xlink:href="#Dégradé_sans_nom_19"/><linearGradient id="Dégradé_sans_nom_19-5" x1="1525.35" y1="-1126.18" x2="2699.27" y2="1343.73" xlink:href="#Dégradé_sans_nom_19"/><linearGradient id="Dégradé_sans_nom_19-6" x1="1773.6" y1="-1244.17" x2="2947.51" y2="1225.75" xlink:href="#Dégradé_sans_nom_19"/><linearGradient id="Dégradé_sans_nom_19-7" x1="2039.91" y1="-1370.74" x2="3213.83" y2="1099.17" xlink:href="#Dégradé_sans_nom_19"/><linearGradient id="Dégradé_sans_nom_19-8" x1="2260.66" y1="-1475.66" x2="3434.57" y2="994.26" xlink:href="#Dégradé_sans_nom_19"/><linearGradient id="Dégradé_sans_nom_19-9" x1="2503.07" y1="-1590.87" x2="3676.98" y2="879.04" xlink:href="#Dégradé_sans_nom_19"/><linearGradient id="Dégradé_sans_nom_19-10" x1="2744.88" y1="-1705.8" x2="3918.79" y2="764.11" xlink:href="#Dégradé_sans_nom_19"/><linearGradient id="Dégradé_sans_nom_19-11" x1="3025.7" y1="-1839.27" x2="4199.62" y2="630.64" xlink:href="#Dégradé_sans_nom_19"/><linearGradient id="Dégradé_sans_nom_19-12" x1="3254.9" y1="-1948.21" x2="4428.82" y2="521.7" xlink:href="#Dégradé_sans_nom_19"/></defs><path class="cls-1" d="M835.94,391.07,415.31,475.31a46.69,46.69,0,0,1-25.27-2L188.29,399.18h0C122.63,375,67.16,299.75,67.16,234.87c0-25.22,8.65-45.14,24.35-56.09,17.83-12.43,44.64-13.44,73.56-2.79l224,82.36a50.23,50.23,0,0,0,27.31,2.09L882.8,166.29A18.94,18.94,0,0,0,898,147.71v-37.8a19,19,0,0,0-12.4-17.79L666.77,11.51C642.11,2.43,617.92-1.3,594.85.4a135.58,135.58,0,0,0-24.69,4.13l-466.8,98.92A124.42,124.42,0,0,0,53.1,123.69a118.38,118.38,0,0,0-39.5,47.05c-9,19-13.6,40.6-13.6,64.13C0,272,11.55,311.23,32.88,347.68h0s38.8,79.42,116.33,108.65h0l114.91,42.35C329.78,522.86,385.25,598.1,385.25,663c0,25.22-8.65,45.14-24.36,56.09-17.82,12.43-44.63,13.45-73.56,2.79L51.92,635.1a14.15,14.15,0,0,0-19,13.27v41.47a14.14,14.14,0,0,0,9.26,13.28l222,81.76c20.78,7.66,41.24,11.52,61,11.52q5.51,0,10.94-.41a135.32,135.32,0,0,0,22.4-3.54l431-91.37V701a149.48,149.48,0,0,0,56.28-23.61,142.62,142.62,0,0,0,47.6-56.72c11-23.16,16.56-49.51,16.56-78.33,0-44.19-13.27-90.89-37.85-134.72A33.8,33.8,0,0,0,835.94,391.07Z"/><path id="Rectangle_299" data-name="Rectangle 299" class="cls-2" d="M741.17,359.09l46.19,15c9.17,3,9.94,6.75,1.72,8.41L546.76,431.24c-8.22,1.65-22.32.57-31.5-2.42l-46.18-15Z"/><path id="Rectangle_299-2" data-name="Rectangle 299" class="cls-3" d="M781.92,301.49l46.19,15c9.17,3,9.94,6.75,1.72,8.4L587.51,373.64c-8.22,1.66-22.33.58-31.5-2.41l-46.19-15Z"/><path id="Rectangle_299-3" data-name="Rectangle 299" class="cls-4" d="M822.67,243.9l46.18,15c9.18,3,9.95,6.75,1.73,8.4L628.26,316.05c-8.23,1.65-22.33.57-31.5-2.42l-46.19-15Z"/><path id="Rectangle_299-4" data-name="Rectangle 299" class="cls-5" d="M863.42,186.3l46.18,15c9.18,3,9.95,6.75,1.73,8.4L669,258.45c-8.23,1.66-22.33.58-31.5-2.41l-46.19-15Z"/><path class="cls-6" d="M1386.71,475.51c0,43.19-31.53,80.89-96.65,80.89-41,0-84-13.23-99.08-51.43a12.24,12.24,0,0,1,7.68-16.23l41.78-13a12.17,12.17,0,0,1,13.62,4.65c5.66,8.17,18.23,13.66,32.23,13.66,13.36,0,23.3-5.14,23.3-14.39,0-12-14.74-12.69-38.73-18.51-43.87-10.63-76.09-26.05-76.09-75.41,0-47,41.47-77.81,94.26-77.81,37.42,0,71.87,16.48,85.13,49.66a12.22,12.22,0,0,1-8.43,16.43l-41.64,10.13a12.09,12.09,0,0,1-12.59-4.29c-4.37-5.88-12-9.54-21.79-9.54-13.71,0-20.91,5.48-20.91,13.71,0,11.65,17.83,12.68,36.34,17.82C1363.75,417.93,1386.71,435.07,1386.71,475.51Z"/><path class="cls-7" d="M1758.26,326.53V537.44A14.51,14.51,0,0,1,1743.75,552h-48.1a14.51,14.51,0,0,1-14.51-14.51V425.81l-49.83,86.25a12.61,12.61,0,0,1-10.91,6.3h-6.71a12.59,12.59,0,0,1-10.91-6.3L1553,425.81V537.44A14.51,14.51,0,0,1,1538.44,552h-48.1a14.51,14.51,0,0,1-14.51-14.51V326.53A14.5,14.5,0,0,1,1490.34,312h60a14.49,14.49,0,0,1,12.6,7.32L1617,414.16l54.1-94.82a14.49,14.49,0,0,1,12.6-7.32h60A14.51,14.51,0,0,1,1758.26,326.53Z"/><path class="cls-8" d="M2005,514.93h-67.86l-6.85,24.65A16.89,16.89,0,0,1,1914.06,552H1867.4a16.89,16.89,0,0,1-16-22.24l68.92-206.16a16.88,16.88,0,0,1,16-11.53h69.6a16.88,16.88,0,0,1,16,11.53l68.92,206.16a16.89,16.89,0,0,1-16,22.24h-46.66a16.89,16.89,0,0,1-16.27-12.37Zm-14.73-53.47-19.2-69.58-19.19,69.58Z"/><path class="cls-9" d="M2369.73,475.51c0,43.19-31.53,80.89-96.65,80.89-39.94,0-81.74-12.55-97.84-48.48a14.68,14.68,0,0,1,9.05-20l37.48-11.69a14.42,14.42,0,0,1,15.82,4.83c5.88,7.77,18.13,12.95,31.72,12.95,13.36,0,23.3-5.14,23.3-14.39,0-12-14.73-12.69-38.73-18.51-43.87-10.63-76.09-26.05-76.09-75.41,0-47,41.47-77.81,94.26-77.81,36.23,0,69.68,15.45,83.81,46.56a14.65,14.65,0,0,1-10,20.22l-37.38,9.09a15,15,0,0,1-14.93-5.09c-4.48-5.2-11.75-8.39-20.87-8.39-13.71,0-20.9,5.48-20.9,13.71,0,11.65,17.82,12.68,36.33,17.82C2346.77,417.93,2369.73,435.07,2369.73,475.51Z"/><path class="cls-10" d="M2681.64,323.26V540.71A11.24,11.24,0,0,1,2670.4,552h-54.29a11.24,11.24,0,0,1-11.24-11.24V465.57H2536v75.14A11.24,11.24,0,0,1,2524.73,552h-54.64a11.24,11.24,0,0,1-11.24-11.24V323.26A11.24,11.24,0,0,1,2470.09,312h54.64A11.24,11.24,0,0,1,2536,323.26V396h68.9V323.26A11.24,11.24,0,0,1,2616.11,312h54.29A11.24,11.24,0,0,1,2681.64,323.26Z"/><path class="cls-11" d="M2952.08,382.63h-44.9v158A11.31,11.31,0,0,1,2895.87,552h-54.5a11.31,11.31,0,0,1-11.31-11.31v-158H2785.5a11.31,11.31,0,0,1-11.31-11.31v-48A11.31,11.31,0,0,1,2785.5,312h166.58a11.31,11.31,0,0,1,11.31,11.31v48A11.31,11.31,0,0,1,2952.08,382.63Z"/><path class="cls-12" d="M3278.73,322.82V541.15a10.81,10.81,0,0,1-10.81,10.8h-55.17a10.8,10.8,0,0,1-10.8-10.8V465.57h-68.9v75.58a10.8,10.8,0,0,1-10.8,10.8h-55.52a10.81,10.81,0,0,1-10.8-10.8V322.82a10.8,10.8,0,0,1,10.8-10.8h55.52a10.79,10.79,0,0,1,10.8,10.8V396H3202V322.82a10.79,10.79,0,0,1,10.8-10.8h55.17A10.8,10.8,0,0,1,3278.73,322.82Z"/><path class="cls-13" d="M3550.53,498.51V541a11,11,0,0,1-11,11h-147a11,11,0,0,1-11-11V323a11,11,0,0,1,11-11h143.9a11,11,0,0,1,11,11v42.45a11,11,0,0,1-11,11h-77.78v26.73h66.81a11,11,0,0,1,11,11v33.53a11,11,0,0,1-11,11h-66.81v28.79h80.87A11,11,0,0,1,3550.53,498.51Zm-74.6-210.14h-25.17a14.3,14.3,0,0,1-11.78-6.19l-24.67-35.77a7.78,7.78,0,0,1,6.4-12.2H3464a14.32,14.32,0,0,1,13,8.24l12,25.54A14.31,14.31,0,0,1,3475.93,288.37Z"/><path class="cls-14" d="M3864.16,505.68l17.68,17.68a7.46,7.46,0,0,1,0,10.56L3855.76,560a7.46,7.46,0,0,1-10.59,0l-19.74-20A134.3,134.3,0,0,1,3761,556.4c-72,0-126.48-53.47-126.48-124.42,0-70.61,54.5-124.08,126.48-124.08S3887.47,361.37,3887.47,432C3887.47,460.09,3878.9,485.11,3864.16,505.68Zm-97.35-24.34-13.67-13.92a7.88,7.88,0,0,1,.1-11.14L3779,431a7.88,7.88,0,0,1,11.13.09l17.44,17.71a52.13,52.13,0,0,0,2.75-16.8c0-29.32-21.69-50.11-50.93-49.33a49.14,49.14,0,0,0-48.13,50.18c.4,28.68,21.19,48.51,49.7,48.51Z"/><path class="cls-15" d="M4190.41,312a10,10,0,0,1,10,10V455c0,71.29-44.21,101.45-109.34,101.45-65.46,0-109.34-30.16-109.34-101.45V322a10,10,0,0,1,10-10h56.78a10,10,0,0,1,10,10V446.72c0,22.28,11.65,34.62,32.56,34.62,20.57,0,32.22-12.34,32.22-34.62V322a10,10,0,0,1,10-10Z"/><path class="cls-16" d="M4472.21,494.51v50.43a7,7,0,0,1-7,7h-155a7,7,0,0,1-7-7V319a7,7,0,0,1,7-7h151.89a7,7,0,0,1,7,7v50.43a7,7,0,0,1-7,7h-81.77v26.73h70.8a7,7,0,0,1,7,7v41.51a7,7,0,0,1-7,7h-70.8v28.79h84.85A7,7,0,0,1,4472.21,494.51Z"/></svg>