<svg id="Calque_1" data-name="Calque 1" xmlns="http://www.w3.org/2000/svg" viewBox="0 0 32 32"><path d="M29,16.82a4.06,4.06,0,0,0,1-2.74A4.83,4.83,0,0,0,24.93,9.2a10.12,10.12,0,0,0-5.2,1.31l-.63.4-.35.23.09.4.16.73.4,1.83H13.6v0A4.83,4.83,0,0,0,8.53,9.2a10.12,10.12,0,0,0-5.2,1.31l-.63.4-.35.23.09.4.16.73.49,2.23.25,1.13v.06a5.79,5.79,0,0,0-1.21,3.5V22.8H29.73v-6H29ZM3.81,19.19a4.22,4.22,0,0,1,3-4c1.1-.44,1.29-.76,1.29-1s-.26-.59-.82-.59a12.27,12.27,0,0,0-2.53.49l-.5-2.23a8.51,8.51,0,0,1,4.3-1,3.19,3.19,0,0,1,3.4,3.21,2.45,2.45,0,0,1-.07.62l-.08.24c-.4,1.17-1.62,1.74-2.9,2.22-1.49.57-1.49,1.34-1.49,1.34h4.27v2.63H3.81Zm15.35-3.42-1.8,5.36H15l-1.8-5.36h2.18l.79,2.58L17,15.77Zm8.89,5.36H20.21V19.19a4.22,4.22,0,0,1,3-4c1.1-.44,1.29-.76,1.29-1s-.26-.59-.83-.59a12.43,12.43,0,0,0-2.53.49l-.49-2.23a8.51,8.51,0,0,1,4.3-1,3.19,3.19,0,0,1,3.4,3.21c0,1.8-1.49,2.49-3.06,3.08s-1.49,1.34-1.49,1.34h4.27Z"/></svg>