<svg id="Calque_1" data-name="Calque 1" xmlns="http://www.w3.org/2000/svg" viewBox="0 0 32 32">
  <g>
    <g id="Groupe_192" data-name="Groupe 192">
      <g id="Groupe_191" data-name="Groupe 191">
        <path id="Tracé_341" data-name="Tracé 341" d="M28.31,5.33H25.84V4.46A2.46,2.46,0,0,0,23.38,2H7A2.47,2.47,0,0,0,4.51,4.46v.87H3.69A.82.82,0,0,0,3.69,7h.82V11.9H3.69a.82.82,0,1,0,0,1.64h.82v4.93H3.69a.82.82,0,1,0,0,1.64h.82V25H3.69a.83.83,0,0,0,0,1.65h.82v.86A2.47,2.47,0,0,0,7,30h16.4a2.46,2.46,0,0,0,2.46-2.46v-14h2.47a.82.82,0,0,0,.82-.82h0V6.16a.83.83,0,0,0-.82-.83ZM24.2,27.54a.82.82,0,0,1-.82.82H7a.82.82,0,0,1-.82-.82v-.88H7A.82.82,0,0,0,7,25H6.16V20.1H7a.82.82,0,0,0,0-1.64H6.16V13.54H7A.82.82,0,0,0,7,11.9H6.16V7H7A.83.83,0,0,0,7,5.33H6.16V4.46A.82.82,0,0,1,7,3.64h16.4a.82.82,0,0,1,.82.82ZM27.49,11.9H25.84V7h1.65Z"/>
      </g>
    </g>
    <g id="Groupe_193" data-name="Groupe 193">
      <path id="Tracé_342" data-name="Tracé 342" d="M20.29,13.88a.75.75,0,0,1-.43,1,.58.58,0,0,1-.26.06.75.75,0,0,1-.7-.48L18.33,13H14.84l-.56,1.4a.73.73,0,0,1-.93.47.75.75,0,0,1-.51-.74.87.87,0,0,1,.05-.28l3-7.51a.78.78,0,0,1,1-.42.79.79,0,0,1,.42.42Zm-2.56-2.35L16.6,8.66l-1.15,2.87Z"/>
      <path id="Tracé_343" data-name="Tracé 343" d="M14.21,20.66a1.82,1.82,0,0,1-1.74,1.85H10.74a.49.49,0,0,1-.49-.49V17.07a.49.49,0,0,1,.49-.5H12.1a2.14,2.14,0,0,1,.78.2,1.5,1.5,0,0,1,.83,1.42,1.68,1.68,0,0,1-.27.92A1.78,1.78,0,0,1,14.21,20.66Zm-3-1.85H12c.13,0,.74,0,.74-.62s-.39-.62-.56-.62h-.92Zm2,1.85a.81.81,0,0,0-.77-.86h-1.2v1.73h1.17a1.16,1.16,0,0,0,.44-.12.8.8,0,0,0,.36-.75Z"/>
      <path id="Tracé_344" data-name="Tracé 344" d="M19.78,24.67a.39.39,0,0,1-.16.53,2.39,2.39,0,1,1,0-4.19.39.39,0,0,1,.19.53.4.4,0,0,1-.53.19l0,0a1.53,1.53,0,0,0-.76-.19,1.59,1.59,0,0,0,0,3.18h0a1.53,1.53,0,0,0,.76-.19A.41.41,0,0,1,19.78,24.67Z"/>
    </g>
  </g>
</svg>
