<svg id="Calque_1" data-name="Calque 1" xmlns="http://www.w3.org/2000/svg" viewBox="0 0 32 32">
  <defs>
    <style>
      .cls-1 {
        fill: #fff;
      }
    </style>
  </defs>
  <g id="avatar">
    <circle id="Ellipse_2" data-name="Ellipse 2" cx="16" cy="16" r="13.5"/>
    <g id="Groupe_62" data-name="Groupe 62">
      <path id="Tracé_85" data-name="Tracé 85" class="cls-1" d="M16,15.7a4,4,0,1,0-2.84-1.18A3.9,3.9,0,0,0,16,15.7Z"/>
      <path id="Tracé_86" data-name="Tracé 86" class="cls-1" d="M23,20.48a9.41,9.41,0,0,0-.13-1.05,7.8,7.8,0,0,0-.26-1.06,5.07,5.07,0,0,0-.44-1,3.42,3.42,0,0,0-.65-.86,3.22,3.22,0,0,0-1-.59,3.27,3.27,0,0,0-1.2-.22,1.27,1.27,0,0,0-.65.28l-.68.44a4.92,4.92,0,0,1-.88.39,3.44,3.44,0,0,1-2.15,0,4.36,4.36,0,0,1-.88-.39L13.44,16a1.31,1.31,0,0,0-.65-.28,3.33,3.33,0,0,0-1.21.22,3.05,3.05,0,0,0-.94.59,3.71,3.71,0,0,0-.66.86,5.75,5.75,0,0,0-.44,1,9.6,9.6,0,0,0-.25,1.06,9.31,9.31,0,0,0-.14,1.06c0,.31,0,.64,0,1a2.74,2.74,0,0,0,.82,2.09,2.92,2.92,0,0,0,2.12.77h8a2.92,2.92,0,0,0,2.12-.77A2.81,2.81,0,0,0,23,21.47,8.06,8.06,0,0,0,23,20.48Z"/>
    </g>
  </g>
</svg>
