<svg id="Calque_1" data-name="Calque 1" xmlns="http://www.w3.org/2000/svg" viewBox="0 0 32 32">
  <g>
    <path id="Tracé_284" data-name="Tracé 284" d="M28.67,12.69H20.4a.83.83,0,0,0-.83.83v3.91h0v1.05a.83.83,0,0,0,.83.83h8.27a.83.83,0,0,0,.83-.83h0v-5A.83.83,0,0,0,28.67,12.69Zm-.82,5H21.23V14.34h6.62Z"/>
    <path id="Tracé_285" data-name="Tracé 285" d="M15,9.22H12.42V7.56a.83.83,0,0,0-.82-.83H3.33a.83.83,0,0,0-.83.83v5a.83.83,0,0,0,.83.83H11.6a.83.83,0,0,0,.82-.83V10.87h1.8V21.13h-1.8V19.48a.83.83,0,0,0-.82-.83H3.33a.83.83,0,0,0-.83.83v5a.83.83,0,0,0,.83.83H11.6a.83.83,0,0,0,.82-.83V22.79H15a.83.83,0,0,0,.83-.83V16.83h0V10A.83.83,0,0,0,15,9.22ZM10.77,11.7H4.15V8.39h6.62Zm0,11.91H4.15V20.3h6.62Z"/>
    <circle id="Ellipse_9" data-name="Ellipse 9" cx="17.67" cy="16" r="0.79"/>
  </g>
</svg>