<svg id="Calque_1" data-name="Calque 1" xmlns="http://www.w3.org/2000/svg" viewBox="0 0 32 32"><path d="M30.05,17v5.62a1,1,0,0,1-1.47.85l-4.37-2.53a1,1,0,0,1-.49-.85V13.91a1,1,0,0,1,.49-.84l4.37-2.53a1,1,0,0,1,1.47.85Z"/><path d="M17.49,13.67H7.05a.47.47,0,0,0-.47.47v5.72a.48.48,0,0,0,.47.48H17.49a.48.48,0,0,0,.47-.48V14.14A.47.47,0,0,0,17.49,13.67ZM9.66,18.14A1.14,1.14,0,1,1,10.81,17,1.14,1.14,0,0,1,9.66,18.14Zm4.81,0A1.14,1.14,0,1,1,15.61,17,1.14,1.14,0,0,1,14.47,18.14Z"/><path d="M20.77,9.15H7.35L7.09,7.81a.77.77,0,0,0-.73-.66H2.7A.81.81,0,0,0,2,8V23.16a1.69,1.69,0,0,0,1.69,1.69H20.77a1.69,1.69,0,0,0,1.7-1.69V10.84A1.7,1.7,0,0,0,20.77,9.15ZM19,19.86a1.48,1.48,0,0,1-1.48,1.48H7.05a1.48,1.48,0,0,1-1.48-1.48V14.14a1.48,1.48,0,0,1,1.48-1.48H17.49A1.49,1.49,0,0,1,19,14.14Z"/></svg>