<svg id="Calque_1" data-name="Calque 1" xmlns="http://www.w3.org/2000/svg" viewBox="0 0 32 32"><path d="M25.54,12.51c-4,0-6.2,3.71-6.38,4h0c-.3-.12-3.7-1.37-6,.72a21.16,21.16,0,0,1-1.45,4.39,21.16,21.16,0,0,0,.9-4.86,25.22,25.22,0,0,0-.47-4.08,0,0,0,0,1,0,0h2.41a2.68,2.68,0,0,0,1.89-.79l2.22-2.24a1.87,1.87,0,0,0,0-2.26,2,2,0,0,0-.48-2.17,6,6,0,0,0-4-1.74c-6.31,0-11.69,13-11.61,16.15.06,2.22-.52,2.62-.21,3.86a1.9,1.9,0,0,0,.82,1.14C13.26,31,24.6,27.85,27.18,27a3.58,3.58,0,0,0,1.16-.61,3.67,3.67,0,0,0,1.38-2.95V16.3A3.85,3.85,0,0,0,25.54,12.51Z"/></svg>