<svg id="Calque_1" data-name="Calque 1" xmlns="http://www.w3.org/2000/svg" viewBox="0 0 32 32"><path d="M27.16,12.87h0a.28.28,0,0,0,0,.09h0a1.2,1.2,0,0,0,.18.5h0a.18.18,0,0,1,0,.07h0a.18.18,0,0,0,.05.07h0a1.54,1.54,0,0,0,.34.28h0l.07,0h0L28,14h0l.18.06-.12,0h0l-.09,0h0l-.08,0h0l-.07,0h0l-.07,0h0a1.26,1.26,0,0,0-.48.77c.09.16.17.32.25.48a9.1,9.1,0,0,1,.44,1l0,.08h1.76V15.24a1.25,1.25,0,0,0-1-1.22,1.25,1.25,0,1,0-1.52-1.22v.07Z"/><path d="M16.47,6.86a18.36,18.36,0,0,1,10.47,6.36,1.47,1.47,0,0,1-.06-.42,1.66,1.66,0,0,1,0-.24A20,20,0,0,0,16.45,6.34c0,.11,0,.22,0,.33Z"/><path d="M12.3,7.86l5.23,9.69,9.91-.87,0-.08h0c0-.1-.07-.19-.11-.29v0l-.13-.3h0c-.05-.1-.09-.19-.14-.28C25.19,12,20.61,8.79,15.89,8l-.29,0-.2,0-.35-.05h-.12l-.41,0h0l-.47,0H13C12.74,7.81,12.52,7.83,12.3,7.86Z"/><path d="M14,7.32a13.91,13.91,0,0,1,2.09.23V6.67a.57.57,0,0,0,0-.13v0s0,0,0-.08v0s0,0,0-.07a1.55,1.55,0,0,0-1.18-1.16,1.57,1.57,0,1,0-.68,0,1.53,1.53,0,0,0-1,.77h0a.61.61,0,0,0-.07.14v0s0,.09-.05.13v0a1.63,1.63,0,0,0-.06.45v.67c.22,0,.45,0,.68,0Z"/><path d="M11.25,20.94l.48.35.4.29a15.62,15.62,0,0,0,1.34.83l.7.37c.35.18.71.34,1.06.49l.37.15-2-3.66L12,19.93l-1.72.19h0C10.6,20.4,10.92,20.68,11.25,20.94Z"/><path d="M23.72,26.69l0-.06,0-.09-.06-.11,0-.05-.05-.09,0,0a2.2,2.2,0,0,0-1.3-.84,2.19,2.19,0,0,0,1.63-1.51v0a.29.29,0,0,0,0-.09l0-.11s0-.05,0-.07a.68.68,0,0,0,0-.14v0a1.09,1.09,0,0,0,0-.18h0a2.2,2.2,0,0,0-2.2-2.2h-.29l-.09,0h0l-.09,0h0l-.12,0h0l-.11,0h0l-.09,0h0l-.09,0h0a1.55,1.55,0,0,0-.32.2h0l-.1.08h0a2.2,2.2,0,0,0,1,3.81,2.19,2.19,0,0,0-1.37.94h0l-.12.21v0l0,.09s0,0,0,.06l0,.09s0,.09-.05.14,0,0,0,.06l0,.1a.15.15,0,0,1,0,.07s0,.09,0,.13v0h0c0,.06,0,.12,0,.19V30h4.4V27.58a2.3,2.3,0,0,0-.14-.79S23.74,26.72,23.72,26.69Z"/><path d="M29.35,16.88h-.5a6.81,6.81,0,0,1-3.8,8.5,9.79,9.79,0,0,1-1.31.49,2.54,2.54,0,0,1,.48.83,10.6,10.6,0,0,0,1.25-.52C29.31,24.3,30.45,20.54,29.35,16.88Z"/><path d="M27.82,18.2l-9.39,1,1.26,2.33a2.65,2.65,0,0,1,4.68,1.72,2.74,2.74,0,0,1-.08.64A5.19,5.19,0,0,0,27.82,18.2Z"/><path d="M8.42,20.43a3.08,3.08,0,0,0-2.42-3,3.11,3.11,0,0,0,1.55-.87h0l.1-.11h0l.08-.09,0,0,.06-.08,0,0,.05-.08,0,0L8,16,8,16a.2.2,0,0,0,0-.08l0,0,0-.09,0,0a.61.61,0,0,0,0-.12h0a.69.69,0,0,1,.05-.13v0l0-.09v-.05l0-.09v-.06s0,0,0-.08V15s0-.05,0-.08v-.06a.28.28,0,0,1,0-.09V14.7a.34.34,0,0,0,0-.1v0a.66.66,0,0,0,0-.14h0c0-.06,0-.12,0-.18v-.06s0-.09,0-.13V14l0-.17h0a1.16,1.16,0,0,0,0-.18v0l0-.13,0,0c0-.05,0-.1-.05-.15v0c0-.05,0-.11-.08-.16l0,0L8,12.89l0,0a.64.64,0,0,0-.08-.14v0l-.11-.15,0,0-.09-.12,0,0-.11-.12h0l-.14-.13h0L7.25,12l0,0-.14-.1h0l-.16-.1h0a3.06,3.06,0,0,0-1.59-.44,2.76,2.76,0,0,0-.57.06h0l-.14,0h0l-.14,0h0l-.12,0h0l-.13,0h0l-.12.05h0L4,11.65H4l-.12.07h0a2.94,2.94,0,0,0-.94.81h0a3.07,3.07,0,0,0,.62,4.36h0l.12.08,0,0,.11.06,0,0,.11.06h0a.61.61,0,0,0,.14.07h0l.13.06h0l.1,0,0,0,.1,0h0l.14,0h0l-.19,0h0a1.06,1.06,0,0,0-.19.06h0a2.59,2.59,0,0,0-.38.17h0a3.09,3.09,0,0,0-1.61,2.71v3.35H8.42V23.4h0V21.65h0Z"/><path d="M8,9.86a4.6,4.6,0,0,0-.89,1.38,3.61,3.61,0,0,1,.71,5.81l0,.07a11.6,11.6,0,0,0,.81,1.21L12.56,18Z"/><path d="M12.61,6.56a1.87,1.87,0,0,1,.15-.66C8.05,5.87,4.11,8,3.09,11.56A3.49,3.49,0,0,1,5,10.79C6.2,8.28,9.09,6.76,12.61,6.56Z"/><path d="M9,23.78v0a19,19,0,0,0,10.09,3.55,2.68,2.68,0,0,1,.29-1A17.59,17.59,0,0,1,9,22.15Z"/></svg>