<svg id="Calque_1" data-name="Calque 1" xmlns="http://www.w3.org/2000/svg" viewBox="0 0 32 32">
  <g id="Groupe_75" data-name="Groupe 75">
    <path id="Tracé_262" data-name="Tracé 262" d="M19.77,6.07l.06,0h0Z"/>
    <path id="Tracé_263" data-name="Tracé 263" d="M20.82,23.84c.62.91,1.48,2,1.48,2a9.58,9.58,0,0,0,7.2-3.41A32.21,32.21,0,0,0,26.12,8.56a10.76,10.76,0,0,0-6.37-2.48l-.34.36a14.7,14.7,0,0,1,5.72,3A19.51,19.51,0,0,0,6.6,9.34a13.07,13.07,0,0,1,6-3l-.25-.26a10.79,10.79,0,0,0-6.46,2.5h0A32.18,32.18,0,0,0,2.5,22.39s1.86,3.43,7,3.56c0,0,.75-1.05,1.5-2a7.43,7.43,0,0,1-4-2.77c.21.12.42.25.62.39h.11a.17.17,0,0,1,.11.06h0a.14.14,0,0,0,.11.06c6.1,2.66,11.19,3.28,17-.66A7.41,7.41,0,0,1,20.82,23.84ZM11.7,20a2.65,2.65,0,0,1,0-5.27h0a2.65,2.65,0,0,1,0,5.27Zm8.46,0a2.65,2.65,0,0,1,0-5.27h0a2.65,2.65,0,0,1,0,5.27Z"/>
  </g>
</svg>
