<svg id="Calque_1" data-name="Calque 1" xmlns="http://www.w3.org/2000/svg" viewBox="0 0 32 32">
  <g>
    <g id="Groupe_69" data-name="Groupe 69">
      <path id="Tracé_245" data-name="Tracé 245" d="M23.23,15.73a3.57,3.57,0,1,0-2.53-1.05A3.48,3.48,0,0,0,23.23,15.73Z"/>
      <path id="Tracé_246" data-name="Tracé 246" d="M29.47,20q0-.46-.12-.93a9.22,9.22,0,0,0-.23-.94,4.62,4.62,0,0,0-.39-.88,3.33,3.33,0,0,0-.58-.76,2.65,2.65,0,0,0-.84-.53,3,3,0,0,0-1.07-.19,1,1,0,0,0-.58.25l-.6.39a3.69,3.69,0,0,1-.79.34,3,3,0,0,1-1.91,0,3.62,3.62,0,0,1-.78-.34L21,16a1,1,0,0,0-.58-.25,3.06,3.06,0,0,0-1.07.19,2.5,2.5,0,0,0-.83.53,3.37,3.37,0,0,0-.59.76,4,4,0,0,0-.38.88,5.86,5.86,0,0,0-.23.94,7.4,7.4,0,0,0-.12.93c0,.29,0,.58,0,.88a2.46,2.46,0,0,0,.73,1.86,2.62,2.62,0,0,0,1.88.69h7.13a2.64,2.64,0,0,0,1.89-.69,2.49,2.49,0,0,0,.73-1.86C29.5,20.56,29.49,20.27,29.47,20Z"/>
    </g>
    <g id="Groupe_70" data-name="Groupe 70">
      <path id="Tracé_245-2" data-name="Tracé 245-2" d="M8.59,15.73a3.59,3.59,0,1,0-2.52-1.05A3.46,3.46,0,0,0,8.59,15.73Z"/>
      <path id="Tracé_246-2" data-name="Tracé 246-2" d="M14.83,20a7.4,7.4,0,0,0-.12-.93,5.86,5.86,0,0,0-.23-.94,5.31,5.31,0,0,0-.38-.88,3.37,3.37,0,0,0-.59-.76,2.45,2.45,0,0,0-.84-.53,3,3,0,0,0-1.07-.19A1.08,1.08,0,0,0,11,16l-.6.39a3.62,3.62,0,0,1-.78.34,3,3,0,0,1-1.91,0,3.69,3.69,0,0,1-.79-.34L6.34,16a1,1,0,0,0-.58-.25,3,3,0,0,0-1.07.19,2.65,2.65,0,0,0-.84.53,3.33,3.33,0,0,0-.58.76,4.62,4.62,0,0,0-.39.88,9.22,9.22,0,0,0-.23.94q-.07.46-.12.93c0,.29,0,.58,0,.88a2.49,2.49,0,0,0,.73,1.86,2.64,2.64,0,0,0,1.89.69h7.13a2.62,2.62,0,0,0,1.88-.69,2.46,2.46,0,0,0,.73-1.86A8.53,8.53,0,0,0,14.83,20Z"/>
    </g>
  </g>
</svg>
