<svg id="Calque_1" data-name="Calque 1" xmlns="http://www.w3.org/2000/svg" viewBox="0 0 32 32"><path d="M30,7.27a6.11,6.11,0,0,0-1.78-3.45A6.11,6.11,0,0,0,24.73,2a4,4,0,0,0-3.42,1L6.41,18h0L5.34,19.06c-.47.47-1.14,1.52-2.27,5.52-.6,2.14-1,4.07-1,4.15A1.79,1.79,0,0,0,2,29a1,1,0,0,0,1,1l.23,0c.08,0,2-.45,4.15-1.05,4-1.12,5.05-1.8,5.51-2.27l16-16A4,4,0,0,0,30,7.27Zm-3.25-2a4.16,4.16,0,0,1,1.18,2.25,1.94,1.94,0,0,1-.46,1.67,1.94,1.94,0,0,1-1.67.46,4,4,0,0,1-2.25-1.18c-1.26-1.26-1.59-3.06-.73-3.92S25.45,4,26.71,5.29ZM6.86,26.92c-.87.24-1.72.46-2.41.63.17-.69.39-1.54.63-2.4s.49-1.68.7-2.28a6.52,6.52,0,0,0,3.35,3.35C8.53,26.43,7.79,26.66,6.86,26.92Z"/><path d="M24.54,7.8a1.05,1.05,0,0,0,.74.31A1,1,0,0,0,26,6.33L25.67,6A1,1,0,0,0,24.2,7.45Z"/></svg>