<svg id="Calque_1" data-name="Calque 1" xmlns="http://www.w3.org/2000/svg" viewBox="0 0 32 32"><path d="M27.14,26.13c-.43.46-.71.59-.83,1l-.28.95a1.07,1.07,0,0,0,.17.93l.41.55a1.06,1.06,0,0,0,1.89-.4.43.43,0,0,1,.1-.21l.33-.29a1.07,1.07,0,0,0,.31-1.15l-.34-1a1.07,1.07,0,0,0-1.76-.41Z"/><path d="M7.18,13.34a6.45,6.45,0,0,0,1.48,2.11,1.37,1.37,0,0,1,.19,1.45,11.92,11.92,0,0,0-.52,3.52A7.77,7.77,0,0,1,7.52,23,2.27,2.27,0,0,0,8.66,26c2.4,1.15,2.44,1.29,2.84,1.29a1,1,0,0,0,.9-.58.16.16,0,0,1,.27-.06l1.6,1.45h0c.6.54,1.83.4,2.43.45A1.16,1.16,0,0,0,18,27.27,1.28,1.28,0,0,1,18.61,26c.66-.39,1.22-.84,1.85-.61l.65.25h0l1.55.58h0A4.1,4.1,0,0,0,25,26,3.69,3.69,0,0,0,27,24.41a1.47,1.47,0,0,0-.27-2.12l-.55-.4a.38.38,0,0,1-.14-.21l-.24-1.12a.36.36,0,0,1,.18-.39,1.18,1.18,0,0,0,.4-1.7c-.12-.2-.3-.34-.27-.56l.07-.48a1,1,0,0,0-1.07-1.16.2.2,0,0,1-.2-.29l1-2.28a.57.57,0,0,1,.53-.34,1.37,1.37,0,0,0,1.41-1.27c.16-1.76.09-1.83.24-2A1.31,1.31,0,0,0,27.35,8l-1.5-.38c-.25-.06-.28-.2-.94-.91a1.73,1.73,0,0,0-1.15-.48,4.43,4.43,0,0,1-2.32-.94h0c-.67-.39-.78-.66-1.75-1.73a4,4,0,0,0-2.94-1.31h-.58a1,1,0,0,0-1,.86L15,4.46a.74.74,0,0,1-.65.64,2.28,2.28,0,0,0-1.7.66s0,0,0,0a.63.63,0,0,0-.11.13.59.59,0,0,1-.77.26L10,5.36A1.3,1.3,0,0,0,8.29,7L8.69,8a.17.17,0,0,1-.21.22c-2.69-.81-2.61-.82-2.9-.76L4,7.8A1.54,1.54,0,0,0,2.88,10a1.7,1.7,0,0,0,.89,1l2,.87a2.47,2.47,0,0,1,1.37,1.49Zm20.89-3.27a.3.3,0,0,1-.08.08A.3.3,0,0,0,28.07,10.07ZM7.16,13.28v0Z"/></svg>