<svg id="Calque_1" data-name="Calque 1" xmlns="http://www.w3.org/2000/svg" viewBox="0 0 32 32">
  <path id="Tracé_214" data-name="Tracé 214" d="M16,3.07a13.23,13.23,0,0,0-4.27,25.84c.68.13.92-.28.92-.63s0-1.15,0-2.26c-3.76.8-4.55-1.78-4.55-1.78a3.53,3.53,0,0,0-1.5-1.94c-1.22-.82.09-.8.09-.8a2.8,2.8,0,0,1,2.07,1.36A2.9,2.9,0,0,0,12.68,24a2.81,2.81,0,0,1,.86-1.78c-3-.33-6.15-1.47-6.15-6.55a5.07,5.07,0,0,1,1.39-3.56A4.64,4.64,0,0,1,8.9,8.57S10,8.21,12.61,9.93a12.88,12.88,0,0,1,6.75,0c2.56-1.72,3.69-1.36,3.69-1.36a4.79,4.79,0,0,1,.14,3.51,5.1,5.1,0,0,1,1.38,3.56c0,5.09-3.15,6.22-6.16,6.54a3.14,3.14,0,0,1,.91,2.46c0,1.77,0,3.2,0,3.63s.23.76.93.63A13.24,13.24,0,0,0,29.5,16.34,13.37,13.37,0,0,0,16,3.07Z"/>
</svg>
