<svg id="Calque_1" data-name="Calque 1" xmlns="http://www.w3.org/2000/svg" viewBox="0 0 32 32">
  <g id="equipes">
    <path id="Tracé_245" data-name="Tracé 245" d="M15.89,16.58a4.23,4.23,0,1,0-3-1.24A4.08,4.08,0,0,0,15.89,16.58Z"/>
    <path id="Tracé_246" data-name="Tracé 246" d="M23.31,21.64a8.42,8.42,0,0,0-.14-1.11,10.74,10.74,0,0,0-.27-1.12,5.67,5.67,0,0,0-.46-1,3.82,3.82,0,0,0-.7-.9,2.88,2.88,0,0,0-1-.63,3.48,3.48,0,0,0-1.27-.23,1.3,1.3,0,0,0-.69.29l-.72.46a3.66,3.66,0,0,1-.93.41,3.53,3.53,0,0,1-2.27,0,3.51,3.51,0,0,1-.93-.41l-.72-.46a1.37,1.37,0,0,0-.69-.29,3.48,3.48,0,0,0-1.27.23,3.08,3.08,0,0,0-1,.63,4.06,4.06,0,0,0-.69.9,5.67,5.67,0,0,0-.46,1,10.74,10.74,0,0,0-.27,1.12,8.42,8.42,0,0,0-.14,1.11c0,.34,0,.69,0,1a2.9,2.9,0,0,0,.87,2.21,3.13,3.13,0,0,0,2.24.82h8.48a3.15,3.15,0,0,0,2.24-.82,2.89,2.89,0,0,0,.86-2.21C23.35,22.33,23.34,22,23.31,21.64Z"/>
    <g id="Groupe_68" data-name="Groupe 68">
      <path id="Tracé_247" data-name="Tracé 247" d="M21,12.34a5.16,5.16,0,0,1-.1,1,3.79,3.79,0,1,0-1.57-4.81l.18.17A4.92,4.92,0,0,1,21,12.34Z"/>
      <path id="Tracé_248" data-name="Tracé 248" d="M29.47,18.45c0-.34-.07-.67-.13-1a8.72,8.72,0,0,0-.24-1,5.53,5.53,0,0,0-.42-.93,3.23,3.23,0,0,0-.62-.81,2.53,2.53,0,0,0-.89-.56A2.86,2.86,0,0,0,26,13.93a1.08,1.08,0,0,0-.61.26l-.65.41a3.52,3.52,0,0,1-.84.37,3.24,3.24,0,0,1-2,0,3.63,3.63,0,0,1-.83-.37l-.46-.29a5.22,5.22,0,0,1-.94,1.46,4,4,0,0,1,1.4.28,3.65,3.65,0,0,1,1.27.8,4.56,4.56,0,0,1,.85,1.1,6.44,6.44,0,0,1,.53,1.2,8.49,8.49,0,0,1,.3,1.23q.11.6.15,1.2a4.41,4.41,0,0,1,0,.52h2.53a2.81,2.81,0,0,0,2-.73,2.66,2.66,0,0,0,.78-2C29.5,19.06,29.5,18.75,29.47,18.45Z"/>
      <path id="Tracé_249" data-name="Tracé 249" d="M12.3,8.75c.06-.07.13-.13.19-.19a3.66,3.66,0,0,0-.8-1.15,3.8,3.8,0,1,0-.78,6,5.33,5.33,0,0,1-.1-1.05A4.91,4.91,0,0,1,12.3,8.75Z"/>
      <path id="Tracé_250" data-name="Tracé 250" d="M8,20.38a12.26,12.26,0,0,1,.3-1.23A6.48,6.48,0,0,1,8.84,18a4.52,4.52,0,0,1,.84-1.1,4,4,0,0,1,2.46-1.07,5,5,0,0,1-.9-1.36l-.29.19a3.6,3.6,0,0,1-.83.36,3.24,3.24,0,0,1-2,0,3.6,3.6,0,0,1-.83-.36l-.65-.42A1.11,1.11,0,0,0,6,13.93a3.16,3.16,0,0,0-1.14.21,2.57,2.57,0,0,0-.9.56,3.78,3.78,0,0,0-.62.81,4.62,4.62,0,0,0-.41.94,8.12,8.12,0,0,0-.25,1c-.06.33-.1.66-.13,1s0,.61,0,.93a2.64,2.64,0,0,0,.78,2,2.81,2.81,0,0,0,2,.73H7.82c0-.17,0-.35,0-.52C7.88,21.18,7.93,20.78,8,20.38Z"/>
    </g>
  </g>
</svg>
