<svg id="Calque_1" data-name="Calque 1" xmlns="http://www.w3.org/2000/svg" viewBox="0 0 32 32"><path d="M7.12,14.49V25.86s5.67.19,8.5,1.77V16.09S13.14,12.34,7.12,14.49Z"/><path d="M25.64,14.68V26.59l-.73,0c-.06,0-5.51.2-8.15,1.67l-.17.1H15.41l-.17-.1c-2.64-1.47-8.09-1.67-8.15-1.67l-.73,0V14.68L5,15.15V28s6.74.1,10.11,2h1.88c3.37-1.89,10.11-2,10.11-2V15.15Z"/><path d="M20.82,20.58l-.57.63-.56-.64a51.67,51.67,0,0,1-3.31-4.25V27.63c2.83-1.58,8.5-1.77,8.5-1.77V15.34A46,46,0,0,1,20.82,20.58Z"/><path d="M26.86,8.64a6.61,6.61,0,1,0-13.21,0c0,3.9,6.61,11.43,6.61,11.43l.07-.08h0l.06-.07.05-.05.06-.07.06-.07,0,0,.17-.19h0a46.57,46.57,0,0,0,3.81-5.09h0C25.83,12.42,26.86,10.29,26.86,8.64Zm-5.44,5.53h-2.3v-1.4h2.3Zm1.84-4.82a2.59,2.59,0,0,1-1.35.6c-.34.05-.51.22-.51.53v1.14H19.11V9.56a1.22,1.22,0,0,1,.32-.9,2.05,2.05,0,0,1,.84-.44C20.71,8.09,21,8,21,8a.61.61,0,0,0,.38-.58c0-.36-.38-.55-1.13-.55-.91,0-1.36.39-1.36,1.16a3,3,0,0,0,.05.44H16.46q0-3.69,3.89-3.69a5.05,5.05,0,0,1,2.37.53,2.34,2.34,0,0,1,1.34,2.19A2.31,2.31,0,0,1,23.26,9.35Z"/></svg>