<svg id="Calque_1" data-name="Calque 1" xmlns="http://www.w3.org/2000/svg" viewBox="0 0 32 32">
  <g id="joueurs">
    <path id="Tracé_245" data-name="Tracé 245" d="M15.83,15.5a6.49,6.49,0,1,0-4.6-1.9A6.27,6.27,0,0,0,15.83,15.5Z"/>
    <path id="Tracé_246" data-name="Tracé 246" d="M27.2,23.26a16.23,16.23,0,0,0-.63-3.42,8.48,8.48,0,0,0-.71-1.6,6.24,6.24,0,0,0-1.06-1.39,4.88,4.88,0,0,0-1.53-1,5.61,5.61,0,0,0-1.95-.35,2,2,0,0,0-1.06.45c-.31.21-.68.45-1.1.71a6,6,0,0,1-1.42.63,5.59,5.59,0,0,1-3.48,0,6.29,6.29,0,0,1-1.43-.63L11.73,16a2,2,0,0,0-1.05-.45,5.39,5.39,0,0,0-1.95.36,4.45,4.45,0,0,0-1.53,1,5.7,5.7,0,0,0-1.06,1.38,8.77,8.77,0,0,0-.71,1.6A14.34,14.34,0,0,0,5,21.56a13.87,13.87,0,0,0-.22,1.7c0,.52-.06,1-.06,1.6a4.54,4.54,0,0,0,1.33,3.39A4.83,4.83,0,0,0,9.5,29.5h13a4.83,4.83,0,0,0,3.43-1.25,4.55,4.55,0,0,0,1.33-3.4Q27.26,24,27.2,23.26Z"/>
  </g>
</svg>
