<svg id="Calque_1" data-name="Calque 1" xmlns="http://www.w3.org/2000/svg" viewBox="0 0 32 32"><path d="M10.88,26c.16-.14-1.08,1-1.51,1-.07,0-.11,0-.1-.11.05-.35.94-1.19,1.14-1.37a4.78,4.78,0,0,1,1.43-1,5.07,5.07,0,0,1-.67-.39A7,7,0,0,0,10,25c-.26.23-1.45,1.34-1.4,2a.32.32,0,0,0,.24.27c.72.2,2.38-1.32,2.16-1.14a6.51,6.51,0,0,0,1.25-1.45.88.88,0,0,1-.2-.09C12,24.91,11.09,25.78,10.88,26Z"/><path d="M10.46,19.74a4.26,4.26,0,0,0-.19-1.63,3.81,3.81,0,0,0-.22.83c0,.21,0,.42,0,.65l.39.12Z"/><path d="M9.65,24.71a6.66,6.66,0,0,1,1.15-.89c-.09-.06-.17-.14-.26-.21a10.42,10.42,0,0,0-2.36-.38A6.22,6.22,0,0,1,6.64,23a1.22,1.22,0,0,1-.88-1.19,2,2,0,0,1,.59-1.44,2.25,2.25,0,0,1,.37-.31,4.24,4.24,0,0,1-.35-.68c-.54-1.16-1-3-2-2.52-.89.38-.45,2.1.51,3.49a3.58,3.58,0,0,1,.59,2.55l0,0a.93.93,0,0,0,.41.15.67.67,0,0,0,.41-.17.69.69,0,0,1-.18.16.55.55,0,0,1-.22.1,1.13,1.13,0,0,1-.26,0l-.23-.07-.44-.18c-.1,0-.19-.07-.29-.09C3.34,22.55,2,23,2,24.11s1.68.47,3.35,1a4.73,4.73,0,0,0,3,1.19A6.2,6.2,0,0,1,9.65,24.71Z"/><path d="M6.78,20a3.87,3.87,0,0,1,1.61-.52c-.14-.49-.24-1-.3-1.32L8,17.81v0H8c-.16-1.13-.16-2.12-1-2.12-1.39,0-.85,2.61-.56,3.73A4.2,4.2,0,0,0,6.78,20Z"/><path d="M8.9,19.46a5.87,5.87,0,0,1,1,.1,6.53,6.53,0,0,0,0-.73.59.59,0,0,0,0-.13h0a13.18,13.18,0,0,1,0-1.53c0-.07-.09-.14-.14-.21a9.18,9.18,0,0,1-.54-.89c-.68,0-.88.88-.92,1.65a8.47,8.47,0,0,0,.22,1.77Z"/><path d="M29.94,19a.39.39,0,0,0-.14-.17c-1.08-.75-3.43,1.44-3.87,1.84S23.46,22.94,23.55,24a.54.54,0,0,0,.4.47c1.22.33,4-2.25,3.68-1.94C28.12,22.09,30.38,20,29.94,19Zm-2.47,3.29C27.74,22,25.63,24,24.91,24a.16.16,0,0,1-.18-.2c.08-.59,1.6-2,1.93-2.32s2.1-2,2.68-1.72a.13.13,0,0,1,.06.07C29.54,20.33,27.84,21.93,27.47,22.27Z"/><path d="M18.3,24.32c.21-.18-1.47,1.38-2.05,1.39a.12.12,0,0,1-.14-.16c.06-.47,1.28-1.61,1.54-1.85a9.8,9.8,0,0,1,1.59-1.24,9.16,9.16,0,0,1-.82-.51A11.22,11.22,0,0,0,17.06,23c-.36.32-2,1.83-1.89,2.67a.42.42,0,0,0,.31.38c1,.26,3.23-1.79,2.95-1.55A10,10,0,0,0,20,22.8l-.22-.09A8.47,8.47,0,0,1,18.3,24.32Z"/><path d="M17.63,16.48a5.23,5.23,0,0,0-.34-2.27,4.87,4.87,0,0,0-.12.57,11.92,11.92,0,0,0-.05,1.53,3,3,0,0,1,.48.16Z"/><path d="M15.71,16.15a6.37,6.37,0,0,1,1.3.13h0c-.1-.63,0-1-.12-1.66,0-.06,0-.12,0-.18v0h0a9.58,9.58,0,0,1-.05-1.07c-.06-.1-.12-.2-.19-.3A12.28,12.28,0,0,1,15.52,11c-.57.33-.76,1.27-.81,2.13a12,12,0,0,0,.47,3.07Z"/><path d="M16.63,22.61a9.64,9.64,0,0,1,1.3-1l-.18-.16a13,13,0,0,0-2.94-.47,7.76,7.76,0,0,1-1.94-.3,1.54,1.54,0,0,1-1.12-1.52,2.5,2.5,0,0,1,.74-1.84,4.21,4.21,0,0,1,2.62-1.1,17.57,17.57,0,0,1-.6-2.45c0-.17,0-.33-.08-.5v-.06h0c-.22-1.53-.21-2.88-1.3-2.88-1.88,0-1.16,3.55-.76,5.07A10.92,10.92,0,0,0,13,16.79a5.32,5.32,0,0,1-.82-1.43c-.74-1.58-1.34-4-2.78-3.42-1.21.5-.61,2.85.69,4.74a5.07,5.07,0,0,1,.51.93c0,.07.05.14.07.2v0c.05.13.08.26.12.39h0c0,.13.06.26.08.38h0l0,.18h0l0,.34h0c0,.11,0,.21,0,.3h0v.14h0a.49.49,0,0,0,0,.12v0s0,.07,0,.11h0a.31.31,0,0,0,0,.09h0a.31.31,0,0,0,0,.09v0s0,.05,0,.07l0,0h0l.08,0h0a.91.91,0,0,0,.45.14.8.8,0,0,0,.55-.22,1,1,0,0,1-.23.22.85.85,0,0,1-.31.13.89.89,0,0,1-.23,0h-.13l-.15,0-.08,0-.08,0-.3-.11-.29-.12L10,20.08h0l-.13,0-.21,0H9.57L9.4,20H8.12L8,20l-.06,0H7.87l-.06,0-.07,0-.08,0-.08,0-.07,0,0,0-.07,0,0,0-.09.05,0,0-.08,0,0,0-.06,0,0,0-.09.06,0,0-.07.06,0,0-.06,0,0,0-.07.08h0l-.06.08,0,0,0,.06,0,0,0,.09h0l0,.09v0l0,.08v0l0,.11h0a.43.43,0,0,0,0,.11v0s0,.05,0,.08v0a.48.48,0,0,0,0,.12.71.71,0,0,0,.3.62l.19.1a2.66,2.66,0,0,0,.78.17l.32,0,.34,0a10.7,10.7,0,0,1,2.62.44l.12.11.09.08,0,0,.11.09h0l.12.1h0a5.72,5.72,0,0,0,1.09.62h0a7.17,7.17,0,0,0,2.46.58A8.38,8.38,0,0,1,16.63,22.61Z"/><path d="M23,13.59h-.59v.67H23c.25,0,.37-.11.37-.33a.33.33,0,0,0-.1-.25A.32.32,0,0,0,23,13.59Z"/><path d="M25.38,20.12a9.24,9.24,0,0,1,2.88-1.92,3.64,3.64,0,0,1-.31-.73h.26v-.56l0-4.15c.51-2.44,1.18-4.63-.13-5s-1.82,1.51-2,2.53A15.44,15.44,0,0,0,26,12.21l-.08,0c-.12-.79-.05-1.32-.14-2.09a1.85,1.85,0,0,1,0-.23v0h0c-.23-2,.45-4.33-1-4.46-1.29-.12-1.65,1.43-1.72,2.8A14.88,14.88,0,0,0,23.55,12h-.1a22.87,22.87,0,0,1-.71-3c0-.21-.08-.42-.11-.63V8.31h0C22.35,6.4,22.36,4.72,21,4.72c-2.36,0-1.46,4.43-1,6.34a7.92,7.92,0,0,0,.44,1v.24a8.5,8.5,0,0,1-.67-1.29c-.92-2-1.67-5.05-3.48-4.29-1.19.5-1,2.45,0,4.41l0,.07c.1.2.21.41.33.62l0,0,.18.31h0c.1.17.21.33.32.49a5.37,5.37,0,0,1,.4.67h0l.06.12,0,0a.54.54,0,0,1,.05.11l0,0,0,.1,0,.06a.3.3,0,0,1,0,.1l0,.05a.42.42,0,0,1,0,.1l0,0a.36.36,0,0,0,0,.11v0c0,.13.08.26.11.39v0a.43.43,0,0,1,0,.11v0a.3.3,0,0,1,0,.1v0s0,.06,0,.1v0s0,.06,0,.09v0s0,.07,0,.1v0l0,.33v0a.28.28,0,0,0,0,.09v.59a.41.41,0,0,1,0,.11V17h0l.05,0h0l.11.06h0l.23.11h0l.12,0h0l.2,0a1.1,1.1,0,0,0,.69-.28,1.24,1.24,0,0,1-.29.27,1,1,0,0,1-.39.16,1,1,0,0,1-.25,0h0l-.18,0h0a2.34,2.34,0,0,1-.4-.12c-.26-.09-.51-.2-.75-.29L17.06,17h0l-.15,0-.27,0h-.07l-.22,0h0l-.26,0H15l-.1,0H14.8l-.09,0h-.08l-.11,0-.09,0-.11,0-.07,0-.09,0-.07,0-.1,0-.05,0-.14.06-.05,0-.09,0-.06,0-.09,0,0,0-.12.08,0,0-.1.06,0,0-.07.06,0,0-.1.08h0l-.09.1,0,0-.06.07,0,0-.06.09,0,0a.75.75,0,0,0-.07.12l0,0a1,1,0,0,1,0,.1l0,0a.69.69,0,0,1,0,.1v0c0,.05,0,.09,0,.14v0l0,.12v0a.34.34,0,0,0,0,.1v.2h0a.89.89,0,0,0,.29.7c.79.7,3.09.27,5.4,1h0l.21.19,0,0,.21.17h0a6.42,6.42,0,0,0,.53.38h0l.15.09h0a7.88,7.88,0,0,0,.91.47h0l.14.07h0a9,9,0,0,0,2.87.62A10.86,10.86,0,0,1,25.38,20.12Zm.21-7.32a1.59,1.59,0,0,0,1.05-.28h1l0,4.4H26.22l0-3.26a2.27,2.27,0,0,1-.67.07Zm-3.18,2.58V16.9H21V12.52h2.1a1.77,1.77,0,0,1,1.13.34,1.32,1.32,0,0,1,.47,1.07A1.3,1.3,0,0,1,24.25,15a1.77,1.77,0,0,1-1.14.36Z"/></svg>