<svg id="Calque_1" data-name="Calque 1" xmlns="http://www.w3.org/2000/svg" viewBox="0 0 32 32"><path d="M10.88,26c.16-.14-1.08,1-1.51,1-.07,0-.11,0-.1-.11.05-.35.94-1.19,1.14-1.37a4.78,4.78,0,0,1,1.43-1,5.07,5.07,0,0,1-.67-.39A7,7,0,0,0,10,25c-.26.23-1.45,1.34-1.4,2a.32.32,0,0,0,.24.27c.72.2,2.38-1.32,2.16-1.14a6.51,6.51,0,0,0,1.25-1.45.88.88,0,0,1-.2-.09C12,24.91,11.09,25.78,10.88,26Z"/><path d="M10.46,19.74a4.26,4.26,0,0,0-.19-1.63,3.81,3.81,0,0,0-.22.83c0,.21,0,.42,0,.65l.39.12Z"/><path d="M9.65,24.71a6.66,6.66,0,0,1,1.15-.89c-.09-.06-.17-.14-.26-.21-1.3-.45-2.73-.26-3.9-.62-1.48-.61-.9-2.29.08-2.94a4.24,4.24,0,0,1-.35-.68c-.54-1.16-1-3-2-2.52-.89.38-.45,2.1.51,3.49a3.58,3.58,0,0,1,.59,2.55.64.64,0,0,0,.84,0c-.43.57-1.1.05-1.62-.08C3.34,22.55,2,23,2,24.11s1.68.47,3.35,1a4.73,4.73,0,0,0,3,1.19A6.2,6.2,0,0,1,9.65,24.71Z"/><path d="M6.78,20a3.87,3.87,0,0,1,1.61-.52c-.14-.49-.24-1-.3-1.32L8,17.81v0H8c-.16-1.13-.16-2.12-1-2.12-1.39,0-.85,2.61-.56,3.73A4.2,4.2,0,0,0,6.78,20Z"/><path d="M8.9,19.46a5.87,5.87,0,0,1,1,.1,6.53,6.53,0,0,0,0-.73.59.59,0,0,0,0-.13h0a13.18,13.18,0,0,1,0-1.53c0-.07-.09-.14-.14-.21a9.18,9.18,0,0,1-.54-.89c-.68,0-.88.88-.92,1.65a8.47,8.47,0,0,0,.22,1.77Z"/><path d="M29.94,19a.39.39,0,0,0-.14-.17c-1.08-.75-3.43,1.44-3.87,1.84S23.46,22.94,23.55,24a.54.54,0,0,0,.4.47c1.22.33,4-2.25,3.68-1.94C28.12,22.09,30.38,20,29.94,19Zm-2.47,3.29C27.74,22,25.63,24,24.91,24a.16.16,0,0,1-.18-.2c.08-.59,1.6-2,1.93-2.32s2.1-2,2.68-1.72a.13.13,0,0,1,.06.07C29.54,20.33,27.84,21.93,27.47,22.27Z"/><path d="M18.3,24.32c.21-.18-1.47,1.38-2.05,1.39a.12.12,0,0,1-.14-.16c.06-.47,1.28-1.61,1.54-1.85a9.8,9.8,0,0,1,1.59-1.24,9.16,9.16,0,0,1-.82-.51A11.22,11.22,0,0,0,17.06,23c-.36.32-2,1.83-1.89,2.67a.42.42,0,0,0,.31.38c1,.26,3.23-1.79,2.95-1.55A10,10,0,0,0,20,22.8l-.22-.09A8.47,8.47,0,0,1,18.3,24.32Z"/><path d="M17.63,16.48a5.23,5.23,0,0,0-.34-2.27,4.87,4.87,0,0,0-.12.57,11.92,11.92,0,0,0-.05,1.53,3,3,0,0,1,.48.16Z"/><path d="M15.71,16.15a6.37,6.37,0,0,1,1.3.13h0c-.1-.63,0-1-.12-1.66,0-.06,0-.12,0-.18v0h0a9.58,9.58,0,0,1-.05-1.07c-.06-.1-.12-.2-.19-.3A12.28,12.28,0,0,1,15.52,11c-.57.33-.76,1.27-.81,2.13a12,12,0,0,0,.47,3.07Z"/><path d="M16.63,22.61a9.64,9.64,0,0,1,1.3-1l-.18-.16c-1.63-.55-3.42-.33-4.88-.77a1.54,1.54,0,0,1-1.12-1.52c0-1.8,1.57-2.77,3.36-2.94a18.22,18.22,0,0,1-.69-3c-.22-1.53-.21-2.88-1.3-2.88-1.88,0-1.16,3.55-.76,5.07A10.92,10.92,0,0,0,13,16.79a5.32,5.32,0,0,1-.82-1.43c-.74-1.58-1.34-4-2.78-3.42-1.21.5-.61,2.85.69,4.74a4.74,4.74,0,0,1,.8,3.46l0,0h0a.85.85,0,0,0,1.1,0c-.52.71-1.37.16-2-.06h0l-.13,0A4.86,4.86,0,0,0,8.58,20h0c-1,.05-2.37.63-2.34,1.85,0,.71.66.81,1.27.89a14.77,14.77,0,0,1,3.28.5c.15.14.32.28.49.41h0a5.72,5.72,0,0,0,1.09.62h0a7.17,7.17,0,0,0,2.46.58A8.38,8.38,0,0,1,16.63,22.61Z"/><path d="M23,13.59h-.59v.67H23c.25,0,.37-.11.37-.33a.33.33,0,0,0-.1-.25A.32.32,0,0,0,23,13.59Z"/><path d="M25.38,20.12a9.24,9.24,0,0,1,2.88-1.92,3.64,3.64,0,0,1-.31-.73h.26c0-.14,0-4.41,0-4.71.51-2.44,1.18-4.63-.13-5s-1.82,1.51-2,2.53A15.44,15.44,0,0,0,26,12.21l-.08,0c-.12-.79-.05-1.32-.14-2.09a1.85,1.85,0,0,1,0-.23v0h0c-.23-2,.45-4.33-1-4.46-1.29-.12-1.65,1.43-1.72,2.8A14.88,14.88,0,0,0,23.55,12h-.1a23,23,0,0,1-.83-3.67h0C22.35,6.4,22.36,4.72,21,4.72c-2.36,0-1.46,4.43-1,6.34a7.92,7.92,0,0,0,.44,1v.24a8.5,8.5,0,0,1-.67-1.29c-.92-2-1.67-5.05-3.48-4.29-1.55.53-.55,3.82.55,5.44h0c.24.39.53.77.72,1.16h0A6,6,0,0,1,18.2,17h0a2.2,2.2,0,0,0,.54.25h0a1,1,0,0,0,.89-.25,1.1,1.1,0,0,1-.93.45h0a12.35,12.35,0,0,1-1.81-.59,6.45,6.45,0,0,0-1.52-.11h0a3.29,3.29,0,0,0-2.78,1.41,1.41,1.41,0,0,0,.09,1.6c.79.7,3.09.27,5.4,1l.45.38h0a6.42,6.42,0,0,0,.53.38h0a7.75,7.75,0,0,0,1.21.63h0a9,9,0,0,0,2.87.62A10.86,10.86,0,0,1,25.38,20.12Zm.21-7.32a1.59,1.59,0,0,0,1.05-.28h1l0,4.4H26.22l0-3.26a2.27,2.27,0,0,1-.67.07Zm-3.18,2.58V16.9H21V12.52c.76.06,2.64-.22,3.23.34a1.46,1.46,0,0,1-1.16,2.52Z"/></svg>