<svg id="Calque_1" data-name="Calque 1" xmlns="http://www.w3.org/2000/svg" viewBox="0 0 32 32"><path d="M23.11,2a6.56,6.56,0,0,0-4.69,2L13.24,9.12A8,8,0,0,1,14.44,9a8.73,8.73,0,0,1,3.21.62L20.87,6.4a3.14,3.14,0,0,1,2.24-.93,3.17,3.17,0,0,1,3.17,3.17,3.14,3.14,0,0,1-.93,2.24l-5.79,5.8a3.25,3.25,0,0,1-4.49,0l-2.45,2.46a6.64,6.64,0,0,0,9.39,0l5.8-5.79A6.65,6.65,0,0,0,23.11,2Z"/><path d="M14.07,22.16l-3.19,3.19a3.14,3.14,0,0,1-2.24.93,3.17,3.17,0,0,1-3.17-3.17,3.14,3.14,0,0,1,.93-2.24l5.8-5.8a3.24,3.24,0,0,1,4.48,0l2.45-2.46a6.81,6.81,0,0,0-9.39,0L4,18.42A6.56,6.56,0,0,0,2,23.11a6.65,6.65,0,0,0,11.34,4.7l5.1-5.11a8.48,8.48,0,0,1-1.13.11,8.3,8.3,0,0,1-3.24-.65Z"/></svg>