<svg id="Calque_1" data-name="Calque 1" xmlns="http://www.w3.org/2000/svg" viewBox="0 0 32 32">
  <g id="perso">
    <path id="Tracé_251" data-name="Tracé 251" d="M26.82,17.82l-.41.3-.56.37a11.07,11.07,0,0,1-.63,2.27c-.11.29-.19.46-.19.46l-.48-.51-1.07-1.15A9.36,9.36,0,0,0,24,17.34a2.17,2.17,0,0,1-1.48.63,6.4,6.4,0,0,1-2.74-.84,7.12,7.12,0,0,0-7.47,0A6.45,6.45,0,0,1,9.53,18a2.18,2.18,0,0,1-1.48-.62,9.81,9.81,0,0,0,.49,2.21l-.74.78L7,21.22s-.08-.17-.2-.47a11.82,11.82,0,0,1-.62-2.26h0l-.57-.38c-.14-.09-.27-.19-.4-.29a2,2,0,0,0-1,1.87,4.66,4.66,0,0,0,2.67,4,.16.16,0,0,0,.12,0,7.41,7.41,0,0,0,5.1,4.38,6.12,6.12,0,0,0,7.74,0A7.44,7.44,0,0,0,25,23.75a.27.27,0,0,0,.12,0,4.68,4.68,0,0,0,2.67-4A2,2,0,0,0,26.82,17.82ZM23.7,22.45a1.28,1.28,0,0,1-1.11.65,1.79,1.79,0,0,1-.67,1.9,2.51,2.51,0,0,1-2.14,0,1.91,1.91,0,0,1-1.33,1.5,5,5,0,0,0-4.89,0A1.94,1.94,0,0,1,12.22,25a2.48,2.48,0,0,1-2.13,0,1.76,1.76,0,0,1-.67-1.9,1.27,1.27,0,0,1-1.11-.65c-.4-.69.13-1.81.13-1.81a29.42,29.42,0,0,0,4,.79,2.44,2.44,0,0,0-.1.71,3.69,3.69,0,0,0,7.25,0,2.45,2.45,0,0,0-.11-.71,29.13,29.13,0,0,0,4-.79s.54,1.12.14,1.81Z"/>
    <path id="Tracé_252" data-name="Tracé 252" d="M16,2.5C11.47,2.5,4,7.2,4,13.64A5.29,5.29,0,0,0,4.1,14.9a5,5,0,0,0,.17.55A4.09,4.09,0,0,0,5,16.62a3.41,3.41,0,0,0,.37.39,3.54,3.54,0,0,0,.42.35,1.88,1.88,0,0,0,.23.16c.11.07,0,0,.07-.1a5.31,5.31,0,0,1,.65-.69l0,0h0A3.53,3.53,0,0,1,7.89,16h0c.05.1.68,1.28,1.64,1.28,1.82,0,3.49-1.9,6.47-1.9s4.65,1.9,6.47,1.9c1,0,1.65-1.29,1.65-1.29h0a3.51,3.51,0,0,1,1.07.67,5.77,5.77,0,0,1,.44.42c.14.15.25.28.31.36l.08.1.22-.16a3.54,3.54,0,0,0,.42-.35,3.41,3.41,0,0,0,.37-.39,2.75,2.75,0,0,0,.32-.44,4.39,4.39,0,0,0,.27-.47,2,2,0,0,1,.11-.26c.07-.18.12-.37.17-.55A5.35,5.35,0,0,0,28,13.64C28.05,7.2,20.54,2.5,16,2.5Zm0,2.74A5.05,5.05,0,0,1,20.9,10a2.5,2.5,0,0,1-1.27,2.38,13.72,13.72,0,0,0-7.25,0A2.5,2.5,0,0,1,11.11,10,5.05,5.05,0,0,1,16,5.24Z"/>
  </g>
</svg>
