<svg id="Calque_1" data-name="Calque 1" xmlns="http://www.w3.org/2000/svg" viewBox="0 0 32 32"><path d="M19.79,6.83l1.93-.48,1.45.48,2.41.48,1.45-1a13.64,13.64,0,0,1,2.08,2.81L29,9.24l-2.9,1-2.9-.48-1-1.45H19.31L17.86,9.73l.48,3.38,3.38,1.45,1.93-.49,1.45,1V17l1,1.93,1,1.93v1.94l1.31,1.3A14,14,0,0,1,4,10.58l.84,2.53,1.45,1,1.45,1-1,1v1.45l1,1.93,2.41.49V24.7l1,2.41,1.45.48V25.18l1.93-1.45V22.28l1.93-1.93.48-2.41H15l-1.45-2.42H10.13l-1-1.93L7.72,15V13.11l-1-1V10.69l3.38-.48,2.42-1.45L14,6.35l1.45-.49.49-1.45L13,3.93,11.66,3a14,14,0,0,1,11.47.46l-1.89.94H19.31l-1,1.94Z"/></svg>