<svg id="Calque_1" data-name="Calque 1" xmlns="http://www.w3.org/2000/svg" viewBox="0 0 32 32">
  <g>
    <path id="Tracé_289" data-name="Tracé 289" d="M26,14.69l-1.32-1.8a.36.36,0,0,1,0-.4l1.29-1.82a.34.34,0,0,0-.08-.47l0,0-2-1a.35.35,0,0,1-.17-.36L24,6.57a.34.34,0,0,0-.27-.39h-.05l-2.23-.1a.33.33,0,0,1-.31-.24l-.62-2.15a.34.34,0,0,0-.42-.23h0l-2.06.89a.34.34,0,0,1-.38-.09L16.18,2.61a.34.34,0,0,0-.48,0l0,0L14.2,4.3a.32.32,0,0,1-.38.09l-2.06-.85a.33.33,0,0,0-.44.19,0,0,0,0,0,0,0l-.6,2.16a.34.34,0,0,1-.3.24l-2.23.13a.34.34,0,0,0-.32.36.08.08,0,0,0,0,0l.4,2.19a.34.34,0,0,1-.17.36L6.15,10.32a.34.34,0,0,0-.13.46l0,0,1.32,1.8a.36.36,0,0,1,0,.4L6.07,14.83a.34.34,0,0,0,.08.47l0,0,2,1.05a.36.36,0,0,1,.17.36L8,18.93a.33.33,0,0,0,.27.39h0l2.23.1a.33.33,0,0,1,.31.24l.62,2.14a.33.33,0,0,0,.42.23h0l2-.88a.34.34,0,0,1,.39.08l1.49,1.66a.33.33,0,0,0,.47,0l0,0,1.47-1.69a.34.34,0,0,1,.38-.09l2.07.85a.34.34,0,0,0,.44-.18s0,0,0,0l.59-2.15a.34.34,0,0,1,.3-.25l2.23-.12a.34.34,0,0,0,.32-.36v0l-.41-2.2a.34.34,0,0,1,.17-.35l2-1.08a.33.33,0,0,0,.14-.44l0-.05ZM16,18.81a6.06,6.06,0,1,1,6.06-6.06A6.06,6.06,0,0,1,16,18.81Z"/>
    <path id="Tracé_290" data-name="Tracé 290" d="M21.46,22.73a1.77,1.77,0,0,1-1.24.52,2.24,2.24,0,0,1-.51-.07l-1.42-.43-1.1,1a.87.87,0,0,1-.11.09l1.76,5.48a.25.25,0,0,0,.32.16.2.2,0,0,0,.12-.08l1.29-1.65a.24.24,0,0,1,.26-.09l2,.58a.24.24,0,0,0,.31-.17.17.17,0,0,0,0-.14Z"/>
    <path id="Tracé_291" data-name="Tracé 291" d="M13.73,22.75l-1.43.43a1.77,1.77,0,0,1-1.75-.45l-1.68,5.2a.25.25,0,0,0,.16.32.38.38,0,0,0,.15,0l2-.59a.25.25,0,0,1,.27.09l1.28,1.65a.25.25,0,0,0,.35.05.3.3,0,0,0,.09-.13l1.77-5.47-.12-.09Z"/>
    <path id="Tracé_292" data-name="Tracé 292" d="M19.6,11.24l-2.29-.16L16.45,9a.47.47,0,0,0-.62-.26.49.49,0,0,0-.27.26l-.86,2.12-2.28.16a.48.48,0,0,0-.28.85l1.75,1.48-.54,2.22a.47.47,0,0,0,.34.58.52.52,0,0,0,.37-.05l2-1.21L18,16.32a.49.49,0,0,0,.72-.53l-.55-2.22,1.75-1.48a.48.48,0,0,0,.06-.67.44.44,0,0,0-.33-.18Z"/>
  </g>
</svg>