<svg id="Calque_1" data-name="Calque 1" xmlns="http://www.w3.org/2000/svg" viewBox="0 0 32 32"><path d="M21.55,19.29c0-.24-.2-.42-.38-.4L11.86,20l-2,5.52,11.75-2.77a.46.46,0,0,0,.27-.52Zm-5.77,4.15-2,.43a.44.44,0,0,1-.51-.43l-.2-2.38a.53.53,0,0,1,.42-.58l2-.26a.44.44,0,0,1,.46.43l.21,2.21A.53.53,0,0,1,15.78,23.44Zm4.56-2.13-2.9.53a.29.29,0,0,1-.32-.29.35.35,0,0,1,.24-.4l2.91-.48c.13,0,.25.1.27.28A.32.32,0,0,1,20.34,21.31Z"/><path d="M3.06,13.67,8,13.79l2.05-4.54L2.84,8.34c-.4-.05-.72.18-.71.52L2.29,13A.76.76,0,0,0,3.06,13.67ZM6.39,9.88l.15,2.73-.77,0-.11-2.17-.58-.05,0-.61Z"/><path d="M3.32,20.15l5.06-.51,2.08-5.08L3.09,14.5a.67.67,0,0,0-.72.65l.16,4.39A.68.68,0,0,0,3.32,20.15Zm1.7-4a.91.91,0,0,1,.39-.36A1.47,1.47,0,0,1,6,15.66a1.65,1.65,0,0,1,.63.11,1,1,0,0,1,.4.32.86.86,0,0,1,.15.45v.05a.77.77,0,0,1-.16.55,1.61,1.61,0,0,1-.59.43L6,17.78a.48.48,0,0,0-.15.1.19.19,0,0,0,0,.13v0L7.3,18l0,.63-2.28.18,0-.66a1,1,0,0,1,.06-.36.69.69,0,0,1,.22-.27,1.74,1.74,0,0,1,.39-.23L6.16,17a.65.65,0,0,0,.25-.19.37.37,0,0,0,0-.48.44.44,0,0,0-.29-.09.41.41,0,0,0-.29.11.37.37,0,0,0-.09.28l-.79,0A1,1,0,0,1,5,16.16Z"/><path d="M3.36,21a.82.82,0,0,0-.75.79l.18,4.66A.61.61,0,0,0,3.6,27l5.17-1.22,2.1-5.66Zm4.23,3.33a1.19,1.19,0,0,1-.4.44,1.69,1.69,0,0,1-.64.26,1.26,1.26,0,0,1-.67,0,.83.83,0,0,1-.47-.28.87.87,0,0,1-.18-.51L6,24.07a.3.3,0,0,0,.13.25.43.43,0,0,0,.34,0,.53.53,0,0,0,.24-.1.35.35,0,0,0,.15-.17.52.52,0,0,0,0-.21.35.35,0,0,0-.13-.27.42.42,0,0,0-.34-.05.71.71,0,0,0-.22.07.76.76,0,0,0-.17.13l-.4-.52.86-.67,0-.06-1.21.18,0-.68,2.2-.32,0,.65L6.69,23a1.28,1.28,0,0,1,.4,0,.75.75,0,0,1,.61.72v.05A1.12,1.12,0,0,1,7.59,24.32Z"/><path d="M29.87,8.09c0-.36-.36-.6-.82-.51a8.73,8.73,0,0,0-2.71,1c-1.1-1.18-2.11-1.94-2.52-2.34-.14-.13-.05-.45-.05-.45,1,0,.63-.83-.13-.83-1,0-3.18,1.17-4.52,5.17a4.93,4.93,0,0,0-1.27.08h0l-.07,0h-.14l-.06,0h-.09l0,0h-.09l0,0,0,0h0l-.07,0h0a.61.61,0,0,0-.31.79l0,0h0l0,0v0l0,0h0a2.36,2.36,0,0,0,.14.26h0a5.25,5.25,0,0,0,.61.83h0a.52.52,0,0,0,.1.11v0l.1.1h0l.1.1,0,0,.11.1h0l.11.09,0,0,.11.09,0,0,.13.1v.23a.62.62,0,0,0,0,.13v0a.62.62,0,0,1,0,.13v.05a6,6,0,0,0,.2,1h0a1.18,1.18,0,0,0,.07.2v0c.05.14.1.27.16.4h0l.09.19h0a6.46,6.46,0,0,0,1.49,2h0l.09.08h0l.18.15h0L21,18h0l.16.12h0l.06.05h0a6.46,6.46,0,0,0,.65.41.34.34,0,0,0,.17.05c.59.07.82-1.05,1.25-1a9.52,9.52,0,0,0,2.34-.65,1.12,1.12,0,0,1,1,.11c.52.35,1,.86,1.32.42a6.16,6.16,0,0,0,.47-5.83A6.72,6.72,0,0,0,29.87,8.09ZM20.5,10.2c.35,0,.66.61.68,1.38a1.78,1.78,0,0,1-.41,1.35l-.05,0h0l0,0h-.32l0,0h0l0,0v0h0v0h0v-.06l0,0V12.6l0,0v-.76c0-.06,0-.13,0-.19v-.46h0c0-.08,0-.14,0-.21h0v-.07l0,0h0l0-.05h0l0-.05h0l.07-.15h0C20.21,10.33,20.34,10.21,20.5,10.2Zm4.35,2c-.44.1-1-.48-1.13-1.3s0-1.56.48-1.66.95.49,1.13,1.3S25.3,12.14,24.85,12.24Z"/><path d="M18,14c0-.16,0-.31,0-.47a5.85,5.85,0,0,1-1.17-1.24l-.38,0a.38.38,0,0,1-.31-.34c0-.18.1-.31.25-.3h0l-.11-.23a1.19,1.19,0,0,1,.36-1.35L11,9.38,9.08,13.82Zm-5.41-3.85,1.91.21a.54.54,0,0,1,.44.49l.2,2a.38.38,0,0,1-.36.44l-1.92-.08a.56.56,0,0,1-.5-.5l-.18-2.16A.36.36,0,0,1,12.63,10.19Z"/><path d="M16.87,16.32l1.92-.07c-.09-.17-.18-.34-.26-.51a6.32,6.32,0,0,1-.38-1.11l-6.72-.06-1.95,5L20.66,18.4a8.12,8.12,0,0,1-1-.92,7.42,7.42,0,0,1-.49-.62L16.94,17a.34.34,0,0,1-.32-.32A.29.29,0,0,1,16.87,16.32Zm-1.58,2-1.94.17a.5.5,0,0,1-.51-.47l-.19-2.26a.44.44,0,0,1,.42-.5l1.92,0a.49.49,0,0,1,.45.46l.21,2.12A.44.44,0,0,1,15.29,18.29Z"/></svg>