<svg id="Calque_1" data-name="Calque 1" xmlns="http://www.w3.org/2000/svg" viewBox="0 0 32 32">
  <g id="Groupe_207" data-name="Groupe 207">
    <path id="Tracé_359" data-name="Tracé 359" d="M21.15,5.3a1.74,1.74,0,1,0-1.51,3.13l.12.05a9.41,9.41,0,1,1-7.52,0,1.73,1.73,0,0,0,.92-1,1.71,1.71,0,0,0,0-1.33,1.74,1.74,0,0,0-2.28-.89,12.88,12.88,0,1,0,10.3,0Z"/>
    <path id="Tracé_360" data-name="Tracé 360" d="M16,15.5a1.74,1.74,0,0,0,1.74-1.73v-10a1.74,1.74,0,1,0-3.47,0v10A1.73,1.73,0,0,0,16,15.5Z"/>
  </g>
</svg>