<svg id="Calque_1" data-name="Calque 1" xmlns="http://www.w3.org/2000/svg" viewBox="0 0 32 32">
  <g>
    <path id="Tracé_228" data-name="Tracé 228" d="M19.19,12.78v6.33h6.87a1,1,0,0,0,.75-.32l2-2a1.06,1.06,0,0,0,0-1.46l-2-2.19a1,1,0,0,0-.78-.34Z"/>
    <path id="Tracé_229" data-name="Tracé 229" d="M12.81,6.45H5.94a1,1,0,0,0-.75.32l-2,2a1.06,1.06,0,0,0,0,1.46l2,2.19a1,1,0,0,0,.78.34h6.85Z"/>
    <path id="Tracé_230" data-name="Tracé 230" d="M17.61,28.44V3.56A1.05,1.05,0,0,0,16.55,2.5H15.5a1.06,1.06,0,0,0-1.06,1h0V28.44A1.05,1.05,0,0,0,15.5,29.5h1.05a1.05,1.05,0,0,0,1.06-1.05Z"/>
  </g>
</svg>
