<svg id="Calque_1" data-name="Calque 1" xmlns="http://www.w3.org/2000/svg" viewBox="0 0 32 32"><path d="M9,8.2A10.35,10.35,0,0,1,21.24,7.05l-1.78.06a1.27,1.27,0,0,0-.86.4,1.19,1.19,0,0,0-.32.88,1.23,1.23,0,0,0,1.27,1.18h0l4.93-.18a1.23,1.23,0,0,0,1.18-1.23l-.18-5a1.29,1.29,0,0,0-.4-.86A1.29,1.29,0,0,0,24.2,2a1.19,1.19,0,0,0-.85.39,1.21,1.21,0,0,0-.33.88l.08,2A12.79,12.79,0,0,0,7.35,6.38,12.74,12.74,0,0,0,3.52,18.84a1.22,1.22,0,0,0,1.19.94,1.27,1.27,0,0,0,.29,0,1.23,1.23,0,0,0,.9-1.48A10.3,10.3,0,0,1,9,8.2Z"/><path d="M28.48,13.16h0a1.24,1.24,0,0,0-.56-.76,1.19,1.19,0,0,0-.92-.14,1.23,1.23,0,0,0-.9,1.48A10.29,10.29,0,0,1,10.54,24.82l2-.18a1.23,1.23,0,1,0-.23-2.44l-4.91.44A1.23,1.23,0,0,0,6.27,24l.44,4.91A1.24,1.24,0,0,0,7.93,30h.12a1.22,1.22,0,0,0,1.1-1.33L9,26.74a12.56,12.56,0,0,0,6.49,2.15c.21,0,.43,0,.65,0A12.73,12.73,0,0,0,28.48,13.16Z"/></svg>