<svg id="Calque_1" data-name="Calque 1" xmlns="http://www.w3.org/2000/svg" viewBox="0 0 32 32">
  <path id="Tracé_460" data-name="Tracé 460" d="M30,15.07a14,14,0,0,0-13-13V2H15.07V2a14,14,0,0,0-13,13H2v1.86H2a14,14,0,0,0,13,13v0h1.86v0a14,14,0,0,0,13-13h0V15.07Zm-19.21-10A14.85,14.85,0,0,0,8.57,9.47H5.77a12.21,12.21,0,0,1,5-4.42Zm-6,6.28H8.08a22.36,22.36,0,0,0-.46,3.74H3.9a12,12,0,0,1,.9-3.74Zm-.9,5.6H7.62a22.36,22.36,0,0,0,.46,3.74H4.8a11.75,11.75,0,0,1-.89-3.74Zm1.87,5.6h2.8A14.85,14.85,0,0,0,10.76,27a12.15,12.15,0,0,1-5-4.42ZM15.07,28c-1.92-.51-3.57-2.57-4.58-5.48h4.58Zm0-7.34H10a21.4,21.4,0,0,1-.49-3.74h5.59Zm0-5.6H9.49A20.48,20.48,0,0,1,10,11.33h5.1Zm0-5.6H10.49c1-2.91,2.66-5,4.58-5.48Zm11.15,0H23.43a14.64,14.64,0,0,0-2.2-4.42,12.14,12.14,0,0,1,5,4.42ZM16.93,4c1.92.51,3.57,2.57,4.57,5.48H16.93Zm0,7.34H22a21.39,21.39,0,0,1,.48,3.74H16.93Zm0,5.6h5.58A21.39,21.39,0,0,1,22,20.67h-5.1Zm0,11.08V22.53H21.5c-1,2.91-2.64,5-4.56,5.48ZM21.23,27a14.87,14.87,0,0,0,2.2-4.42h2.79a12.15,12.15,0,0,1-5,4.42Zm6-6.28H23.92a22.36,22.36,0,0,0,.46-3.74H28.1a12.31,12.31,0,0,1-.89,3.74Zm-2.82-5.6a22.36,22.36,0,0,0-.46-3.74H27.2a12,12,0,0,1,.9,3.74Z"/>
</svg>
