<svg id="Calque_1" data-name="Calque 1" xmlns="http://www.w3.org/2000/svg" viewBox="0 0 32 32">
  <g id="Groupe_76" data-name="Groupe 76">
    <rect id="Rectangle_262" data-name="Rectangle 262" x="3.46" y="2.5" width="2.74" height="20.45"/>
    <rect id="Rectangle_263" data-name="Rectangle 263" x="3.46" y="24.36" width="2.74" height="5.14"/>
    <rect id="Rectangle_264" data-name="Rectangle 264" x="10.22" y="24.36" width="18.32" height="5.14"/>
    <path id="Tracé_264" data-name="Tracé 264" d="M10.22,2.5V23H28.54V2.5Zm8.91,14.33a2.12,2.12,0,0,1-2.4,2.11H12.51V16.72h3.33a.39.39,0,0,0,.37-.41V15c-.05.32-.36,1.21-2.29,1A1.86,1.86,0,0,1,12.14,14h0s-.1-4.24,0-5A1.86,1.86,0,0,1,13,7.68a3.35,3.35,0,0,1,2-.3c1,0,1.27,1.14,1.27,1.14V7.38h2.88Zm8.18,0a2.12,2.12,0,0,1-2.4,2.11H20.69V16.72H24a.39.39,0,0,0,.37-.41V15c-.05.32-.36,1.21-2.29,1A1.86,1.86,0,0,1,20.32,14h0s-.1-4.24,0-5a1.86,1.86,0,0,1,.87-1.39,3.35,3.35,0,0,1,2-.3c1,0,1.27,1.14,1.27,1.14V7.38h2.88Z"/>
    <path id="Rectangle_265" data-name="Rectangle 265" d="M23.8,9.66h0a.58.58,0,0,1,.58.58V13.1a.58.58,0,0,1-.58.58h0a.58.58,0,0,1-.58-.58V10.24A.58.58,0,0,1,23.8,9.66Z"/>
    <path id="Rectangle_266" data-name="Rectangle 266" d="M15.62,9.66h0a.58.58,0,0,1,.58.58V13.1a.58.58,0,0,1-.58.58h0A.58.58,0,0,1,15,13.1V10.24A.58.58,0,0,1,15.62,9.66Z"/>
  </g>
</svg>
