<svg id="Calque_1" data-name="Calque 1" xmlns="http://www.w3.org/2000/svg" viewBox="0 0 32 32"><path d="M10.1,6.26a.34.34,0,0,0-.61.31l1.86,3.77.72-.07Z"/><path d="M16.56,4.49A.35.35,0,0,0,16.39,4a.34.34,0,0,0-.46.17l-2.71,5.93.79-.08Z"/><path d="M29.33,11.07a1.65,1.65,0,0,0-.4-.17,1.84,1.84,0,0,1,.17.77V25.84a1.84,1.84,0,0,1-.17.77,1.47,1.47,0,0,0,.42-.18,1.07,1.07,0,0,0,.54-.94V12A1.1,1.1,0,0,0,29.33,11.07Z"/><path d="M27.82,10.67a1.5,1.5,0,0,0-.44-.19,1.93,1.93,0,0,1,.19.82V26.22a2,2,0,0,1-.18.81,1.68,1.68,0,0,0,.45-.19,1.16,1.16,0,0,0,.57-1V11.67A1.16,1.16,0,0,0,27.82,10.67Z"/><path d="M26.33,10.24a1.44,1.44,0,0,0-.54-.2,1.89,1.89,0,0,1,.18.82V26.65a2,2,0,0,1-.17.82,1.54,1.54,0,0,0,.55-.2,1.23,1.23,0,0,0,.6-1.05V11.3A1.23,1.23,0,0,0,26.33,10.24Z"/><path d="M24.63,9.74a1.32,1.32,0,0,0-.73-.22L2.69,11.77a.66.66,0,0,0-.58.66v11.9a.65.65,0,0,0,.55.65l21.22,3a1.39,1.39,0,0,0,1.41-1.34V10.86A1.29,1.29,0,0,0,24.63,9.74ZM23,26a.57.57,0,0,1-.65.55L3.29,24a.56.56,0,0,1-.5-.55v-10a.56.56,0,0,1,.52-.55L22.37,11a.56.56,0,0,1,.63.55Z"/><path d="M17.05,18.37l-4.75,1a.48.48,0,0,1-.29,0l-2.28-.83h0a2.22,2.22,0,0,1-1.37-1.86A.77.77,0,0,1,8.63,16a.93.93,0,0,1,.84,0l2.53.93a.55.55,0,0,0,.31,0l5.27-1.07a.21.21,0,0,0,.18-.21v-.43a.22.22,0,0,0-.14-.2l-2.48-.91a2,2,0,0,0-.81-.13l-.28.05L8.77,15.12a1.3,1.3,0,0,0-.57.23,1.36,1.36,0,0,0-.45.53,1.73,1.73,0,0,0-.15.73A2.54,2.54,0,0,0,8,17.88H8a2.72,2.72,0,0,0,1.32,1.23h0l1.3.48A2.21,2.21,0,0,1,12,21.45a.73.73,0,0,1-.28.63.91.91,0,0,1-.83,0l-2.66-1a.17.17,0,0,0-.21.1.11.11,0,0,0,0,.05v.47a.15.15,0,0,0,.11.15l2.51.93a2.1,2.1,0,0,0,.69.13h.12a1,1,0,0,0,.25,0l4.88-1h0a1.72,1.72,0,0,0,.64-.27A1.58,1.58,0,0,0,17.7,21a2,2,0,0,0,.19-.89,3.13,3.13,0,0,0-.43-1.52A.39.39,0,0,0,17.05,18.37Z"/><path id="Rectangle_299" data-name="Rectangle 299" d="M16,18l.53.17c.1,0,.11.08,0,.1l-2.74.55a.85.85,0,0,1-.35,0l-.53-.17Z"/><path id="Rectangle_299-2" data-name="Rectangle 299-2" d="M16.44,17.36l.53.17c.1,0,.11.08,0,.09l-2.75.56a.85.85,0,0,1-.35,0L13.37,18Z"/><path id="Rectangle_299-3" data-name="Rectangle 299-3" d="M16.9,16.71l.53.17c.1,0,.11.07,0,.09l-2.74.55a.88.88,0,0,1-.36,0l-.52-.17Z"/><path id="Rectangle_299-4" data-name="Rectangle 299-4" d="M17.37,16.06l.52.17c.1,0,.11.07,0,.09l-2.74.55a.88.88,0,0,1-.36,0l-.52-.17Z"/></svg>