<svg id="Calque_1" data-name="Calque 1" xmlns="http://www.w3.org/2000/svg" viewBox="0 0 32 32">
  <path d="M23.85,4A9.91,9.91,0,0,0,10,6C6.27,11.11,8.91,15,6.76,18a3,3,0,0,0,0,3,.79.79,0,0,0-.62.28,1,1,0,0,0,0,1,1,1,0,0,0-.9.28,1,1,0,0,0,0,.95,1,1,0,0,0-.92.27c-.2.28-.12.72.16,1.23a.92.92,0,0,0-.62.31c-.38.53.12,1.56,1.14,2.57a1.55,1.55,0,0,0,2.19,1.57c1.29.66,2.44.81,2.82.28a.86.86,0,0,0,.09-.68c.6.11,1,0,1.24-.23a1,1,0,0,0,0-1,1,1,0,0,0,.92-.27,1,1,0,0,0,0-1,1,1,0,0,0,.9-.28.81.81,0,0,0,.05-.71A3,3,0,0,0,16,24.67c2.16-3,6.69-1.75,10.4-6.92A9.91,9.91,0,0,0,23.85,4Zm.42,12.23A9.6,9.6,0,0,1,19,19.8a10,10,0,0,0-5,3.14,4.73,4.73,0,0,1-3.08-1A4.69,4.69,0,0,1,9,19.36a10,10,0,0,0,1.37-5.72,9.66,9.66,0,0,1,1.72-6.15A7.28,7.28,0,0,1,22.31,6.13,7.28,7.28,0,0,1,24.27,16.21Z"/>
</svg>
