<svg id="Calque_1" data-name="Calque 1" xmlns="http://www.w3.org/2000/svg" viewBox="0 0 32 32">
  <g id="Groupe_45" data-name="Groupe 45">
    <path id="Tracé_223" data-name="Tracé 223" d="M11.18,19,10,19.07,5.31,20.85l-.92-2.14,4.53-2.19.88-.76Z"/>
    <path id="Tracé_224" data-name="Tracé 224" d="M29.5,13l-6.65,2.63-2.61-6,6.49-3Z"/>
    <rect id="Rectangle_7" data-name="Rectangle 7" x="3.24" y="18.25" width="1.1" height="3.97" transform="translate(-7.69 3.15) rotate(-23.29)"/>
    <path id="Tracé_225" data-name="Tracé 225" d="M19.26,10.85,10,15.06l1.81,4.2,2.95-1.2a2,2,0,0,1,3.73-1.51l2.78-1.13.81-.11-2.15-5Z"/>
    <g id="Groupe_44" data-name="Groupe 44">
      <path id="Tracé_226" data-name="Tracé 226" d="M12.61,25.45h.87l2.76-6.1a2.07,2.07,0,0,1-.71-.32Z"/>
      <path id="Tracé_227" data-name="Tracé 227" d="M20.19,25.45,17.8,19.08a2.19,2.19,0,0,1-.73.29l2.28,6.08Z"/>
    </g>
    <circle id="Ellipse_1" data-name="Ellipse 1" cx="16.7" cy="17.4" r="1.59"/>
  </g>
</svg>
