<svg id="Calque_1" data-name="Calque 1" xmlns="http://www.w3.org/2000/svg" viewBox="0 0 32 32">
  <g>
    <g>
      <g id="Tracé_245" data-name="Tracé 245">
        <path d="M16.27,19.45A3.24,3.24,0,1,0,14,18.5,3.13,3.13,0,0,0,16.27,19.45Z"/>
      </g>
      <g id="Tracé_246" data-name="Tracé 246">
        <path d="M22,23.32a7.9,7.9,0,0,0-.11-.85,6.34,6.34,0,0,0-.21-.86,4.41,4.41,0,0,0-.35-.8,3,3,0,0,0-.53-.69,2.33,2.33,0,0,0-.76-.48,2.5,2.5,0,0,0-1-.17,1,1,0,0,0-.52.22l-.55.35a3.45,3.45,0,0,1-.71.32,2.87,2.87,0,0,1-1.74,0,3,3,0,0,1-.71-.32l-.55-.35a1,1,0,0,0-.53-.22,2.48,2.48,0,0,0-1,.17,2.33,2.33,0,0,0-.76.48,3.17,3.17,0,0,0-.53.69,4.09,4.09,0,0,0-.36.8,8.26,8.26,0,0,0-.2.86,6,6,0,0,0-.11.85c0,.26,0,.52,0,.79a2.24,2.24,0,0,0,.66,1.7,2.41,2.41,0,0,0,1.72.62H19.6a2.38,2.38,0,0,0,1.71-.62,2.29,2.29,0,0,0,.67-1.7C22,23.84,22,23.57,22,23.32Z"/>
      </g>
    </g>
    <path d="M26.74,6.37h0A2.59,2.59,0,0,0,24.9,5.6H19.19V2H13.53V5.6H7.82A2.57,2.57,0,0,0,6,6.36H6A2.58,2.58,0,0,0,5.22,8.2V27.41A2.6,2.6,0,0,0,7.82,30H24.9a2.61,2.61,0,0,0,2.6-2.6V8.2A2.59,2.59,0,0,0,26.74,6.37ZM15,3.52h2.64V8.23H15ZM26,27.41A1.09,1.09,0,0,1,24.9,28.5H7.82a1.09,1.09,0,0,1-1.09-1.09V11.29H26Z"/>
  </g>
</svg>
