<svg id="Calque_1" data-name="Calque 1" xmlns="http://www.w3.org/2000/svg" viewBox="0 0 32 32">
  <g id="Groupe_87" data-name="Groupe 87">
    <rect id="Rectangle_270" data-name="Rectangle 270" x="2.5" y="18.07" width="7.99" height="10.72"/>
    <rect id="Rectangle_271" data-name="Rectangle 271" x="21.51" y="15.31" width="7.99" height="13.48"/>
    <rect id="Rectangle_272" data-name="Rectangle 272" x="12.01" y="11.31" width="7.99" height="17.48"/>
    <path id="Tracé_281" data-name="Tracé 281" d="M25.57,7.19,26.7,9.48l2.53.37L27.4,11.63l.43,2.53L25.57,13l-2.27,1.2.43-2.53L21.9,9.85l2.53-.37Z"/>
    <path id="Tracé_282" data-name="Tracé 282" d="M16,3.21l1.14,2.3,2.53.36L17.88,7.66l.42,2.52L16,9l-2.27,1.19.43-2.52L12.37,5.87l2.53-.36Z"/>
    <path id="Tracé_283" data-name="Tracé 283" d="M6.35,9.86l1.13,2.3,2.54.37L8.19,14.31l.43,2.52L6.35,15.64,4.09,16.83l.42-2.52L2.68,12.53l2.53-.37Z"/>
  </g>
</svg>
