<svg id="Calque_1" data-name="Calque 1" xmlns="http://www.w3.org/2000/svg" viewBox="0 0 32 32"><path d="M18.74,23.37a34,34,0,0,1-5.53,0,.47.47,0,1,0,0,.93h1a1.19,1.19,0,0,0-.58,1c0,.81,1.06,1.47,2.37,1.47s2.38-.66,2.38-1.47a1.21,1.21,0,0,0-.58-1h1a.47.47,0,0,0,0-.93Z"/><path d="M18.82,26.6a.32.32,0,0,0-.35,0,4.13,4.13,0,0,1-1.77.63,5.39,5.39,0,0,1-.71,0,5.32,5.32,0,0,1-.81-.06,4.06,4.06,0,0,1-1.71-.66.34.34,0,0,0-.35,0l-3.2,1.58a.13.13,0,0,0,0,.22,10.42,10.42,0,0,0,4.75,1.43c.44,0,.88.06,1.33.06s.83,0,1.23-.05A10.49,10.49,0,0,0,22,28.4a.13.13,0,0,0,0-.22Z"/><path d="M10,20.67A10,10,0,0,1,6.55,13.6l2.27-.34a.57.57,0,0,0,.47-.54h0a.39.39,0,0,0-.47-.4l-3.92.6a.34.34,0,0,0-.3.36,9.27,9.27,0,0,0,5,8A.37.37,0,0,0,10,20.67Z"/><path d="M27.1,12.92l-3.92-.6a.39.39,0,0,0-.47.4h0a.57.57,0,0,0,.47.54l2.27.34A10,10,0,0,1,22,20.67a.37.37,0,0,0,.42.59,9.27,9.27,0,0,0,4.95-8A.34.34,0,0,0,27.1,12.92Z"/><path d="M21.57,10a.17.17,0,0,0-.07-.15A8.8,8.8,0,0,0,16,8.27a8.8,8.8,0,0,0-5.53,1.57.2.2,0,0,0-.07.15v1.24a0,0,0,0,0,.09,0A7.35,7.35,0,0,1,16,9.16a7.37,7.37,0,0,1,5.52,2.1s.08,0,.08,0Z"/><path d="M22.62,4.06a.14.14,0,0,0-.28,0,7.78,7.78,0,0,1-1.65,2.72,16.54,16.54,0,0,0-3.06-1.17A10.11,10.11,0,0,0,16,2a.12.12,0,0,0-.19,0,9.36,9.36,0,0,0-1.49,3.53,16.38,16.38,0,0,0-3.07,1.17A7.78,7.78,0,0,1,9.6,4a.14.14,0,0,0-.27,0A22.49,22.49,0,0,0,10,9.42a.06.06,0,0,0,.11,0A8.1,8.1,0,0,1,16,7.34a8.09,8.09,0,0,1,5.88,2.11.07.07,0,0,0,.12,0A22.79,22.79,0,0,0,22.62,4.06Z"/><path d="M16,21.78a24.56,24.56,0,0,1-4-.33,8.6,8.6,0,0,0,.58.93.57.57,0,0,0,.39.23,32.74,32.74,0,0,0,5.94,0,.55.55,0,0,0,.39-.23,8.51,8.51,0,0,0,.57-.9A25,25,0,0,1,16,21.78Z"/><path d="M16.09,12.28a2.7,2.7,0,0,0-2.17,4.29,2.66,2.66,0,0,0,.71.67,2.6,2.6,0,0,0,.76.34,2.77,2.77,0,0,0,1.4,0,2.49,2.49,0,0,0,.76-.34,2.52,2.52,0,0,0,.71-.67,2.69,2.69,0,0,0-2.17-4.29Zm-1.45,4.39a2.25,2.25,0,0,1-.65-1h.65Zm0-1.4h-.76a2.81,2.81,0,0,1,0-.29,2.25,2.25,0,0,1,.77-1.7Zm1.45,1.93a2.22,2.22,0,0,1-.37,0V15.72h2.47A2.22,2.22,0,0,1,16.09,17.2Zm-.37-1.93V12.78a2.24,2.24,0,0,1,2.6,2.2,2.83,2.83,0,0,1,0,.29Z"/><path d="M14,18.79h.44l.08.07.25.21.46-1.15a2.89,2.89,0,0,1-.76-.34Z"/><path d="M16.94,17.94l.45,1.15.26-.21.08-.07h.43L17.7,17.6A3,3,0,0,1,16.94,17.94Z"/><path d="M21.59,13.08a1.33,1.33,0,0,0-.47-1A8.15,8.15,0,0,0,16,10.46a8.17,8.17,0,0,0-5.15,1.64,1.33,1.33,0,0,0-.47,1,18.76,18.76,0,0,0,1.4,7.8,23.88,23.88,0,0,0,8.43,0A18.76,18.76,0,0,0,21.59,13.08Zm-3.74,6L16.79,20l-.47-1.17-.23-.58L15.4,20h0l-1.07-.91-1.39-.07.55-1.4.27-.67A3,3,0,0,1,13,15a3.08,3.08,0,1,1,5.42,2l.08.21.74,1.86Z"/></svg>